<mxfile host="app.diagrams.net" modified="2023-08-07T15:43:35.307Z" agent="Mozilla/5.0 (Macintosh; Intel Mac OS X 10_15_7) AppleWebKit/537.36 (KHTML, like Gecko) Chrome/115.0.0.0 Safari/537.36" etag="AiaP1oI32PwwQk9Aspe3" version="21.6.6" type="device">
  <diagram name="Page-1" id="5NQvapfXGWRPjHtllCIQ">
    <mxGraphModel dx="1434" dy="765" grid="1" gridSize="10" guides="1" tooltips="1" connect="1" arrows="1" fold="1" page="1" pageScale="1" pageWidth="827" pageHeight="1169" math="0" shadow="0">
      <root>
        <mxCell id="0" />
        <mxCell id="1" parent="0" />
        <mxCell id="2_PLvZ0-YJUxEWmZZNLs-40" style="rounded=0;orthogonalLoop=1;jettySize=auto;html=1;entryX=0;entryY=0.5;entryDx=0;entryDy=0;strokeWidth=1;strokeColor=#B3B3B3;" edge="1" parent="1" source="2_PLvZ0-YJUxEWmZZNLs-1" target="2_PLvZ0-YJUxEWmZZNLs-7">
          <mxGeometry relative="1" as="geometry" />
        </mxCell>
        <mxCell id="2_PLvZ0-YJUxEWmZZNLs-41" style="rounded=0;orthogonalLoop=1;jettySize=auto;html=1;entryX=0;entryY=0.5;entryDx=0;entryDy=0;strokeColor=#B3B3B3;endArrow=classicThin;endFill=1;" edge="1" parent="1" source="2_PLvZ0-YJUxEWmZZNLs-1" target="2_PLvZ0-YJUxEWmZZNLs-8">
          <mxGeometry relative="1" as="geometry" />
        </mxCell>
        <mxCell id="2_PLvZ0-YJUxEWmZZNLs-44" style="rounded=0;orthogonalLoop=1;jettySize=auto;html=1;entryX=0;entryY=0;entryDx=0;entryDy=0;strokeColor=#B3B3B3;endArrow=classicThin;endFill=1;" edge="1" parent="1" source="2_PLvZ0-YJUxEWmZZNLs-1" target="2_PLvZ0-YJUxEWmZZNLs-9">
          <mxGeometry relative="1" as="geometry" />
        </mxCell>
        <mxCell id="2_PLvZ0-YJUxEWmZZNLs-51" style="rounded=0;orthogonalLoop=1;jettySize=auto;html=1;entryX=0;entryY=0.5;entryDx=0;entryDy=0;endArrow=classicThin;endFill=1;strokeColor=#B3B3B3;" edge="1" parent="1" source="2_PLvZ0-YJUxEWmZZNLs-1" target="2_PLvZ0-YJUxEWmZZNLs-12">
          <mxGeometry relative="1" as="geometry" />
        </mxCell>
        <mxCell id="2_PLvZ0-YJUxEWmZZNLs-1" value="" style="ellipse;whiteSpace=wrap;html=1;aspect=fixed;fillColor=#dae8fc;strokeColor=#6c8ebf;" vertex="1" parent="1">
          <mxGeometry x="304" y="145" width="20" height="20" as="geometry" />
        </mxCell>
        <mxCell id="2_PLvZ0-YJUxEWmZZNLs-4" style="edgeStyle=orthogonalEdgeStyle;rounded=0;orthogonalLoop=1;jettySize=auto;html=1;entryX=0.5;entryY=0;entryDx=0;entryDy=0;strokeWidth=3;strokeColor=default;" edge="1" parent="1" source="2_PLvZ0-YJUxEWmZZNLs-2" target="2_PLvZ0-YJUxEWmZZNLs-3">
          <mxGeometry relative="1" as="geometry" />
        </mxCell>
        <mxCell id="2_PLvZ0-YJUxEWmZZNLs-2" value="" style="shape=image;verticalLabelPosition=bottom;labelBackgroundColor=default;verticalAlign=top;aspect=fixed;imageAspect=0;image=data:image/png,iVBORw0KGgoAAAANSUhEUgAAAQ4AAAEECAYAAADZKtrDAAAKqmlDQ1BJQ0MgUHJvZmlsZQAASImVlwdQk9kWgO//p4eElhDphN57CyAlhBZAQTqISkgChBJCIKjYUFlcwRVFRAQruiCi4KoUWVREFNuiYK8bZBFR1sWCDZX3A0Nw9817b96ZOXO+nJx7zrl37p05PwBkRY5IlA4rApAhzBGH+XvTY2Lj6LghgAc4QAKOwILDzRYxQ0ODASIz9u/y/g6AJu1Ny8lc//7/fxUlHj+bCwAUinAiL5ubgfBJRF9wReIcAFD7EL/+0hzRJHchTBUjDSJ8b5KTp3lkkhOnGA2mYiLCWAhTAcCTOBxxMgAkOuKn53KTkTwkL4RthDyBEGERwh4ZGZk8hI8hbILEID7SZH5G4nd5kv+WM1GWk8NJlvH0XqYE7yPIFqVzlv+fx/G/JSNdMlPDCFFSijggDLHKyJndS8sMkrEwcX7IDAt4U/FTnCIJiJxhbjYrboZ5HJ8g2dr0+cEznCTwY8vy5LAjZpif7Rs+w+LMMFmtJDGLOcMc8WxdSVqkzJ/CZ8vy56VERM9wriBq/gxnp4UHzcawZH6xJEzWP1/o7z1b10+294zs7/YrYMvW5qREBMj2zpntny9kzubMjpH1xuP7+M7GRMriRTneslqi9FBZPD/dX+bPzg2Xrc1BLuTs2lDZGaZyAkNnGLBAJkhHVAzoIBj55QNADn9ZzuRGWJmi5WJBckoOnYm8MD6dLeRaWdDtbOzsAZh8r9PX4S1t6h1CtCuzvvVEANyFExMT7bO+oM8AnNQFgCid9Rn3ASCP3PtLW7kSce60b+otYQARKAAqUAPaQB+YAEtgB5yAG/ACviAQhIAIEAsWAy5IARlI50vBSrAWFIJisAVsB5VgLzgADoGj4DhoAe3gHLgIroIb4DZ4CKRgELwEo+A9GIcgCAeRIQqkBulAhpA5ZAcxIA/IFwqGwqBYKAFKhoSQBFoJrYeKoVKoEtoP1UG/QKegc9BlqBe6D/VDw9Ab6DOMgkkwFdaCjWBrmAEz4SA4Al4EJ8NZcB5cAG+GK+Bq+AjcDJ+Dr8K3YSn8Eh5DAZQciobSRVmiGCgWKgQVh0pCiVGrUUWoclQ1qgHVhupG3URJUSOoT2gsmoKmoy3RbugAdCSai85Cr0ZvQleiD6Gb0V3om+h+9Cj6G4aM0cSYY1wxbEwMJhmzFFOIKcfUYJowFzC3MYOY91gsloY1xjpjA7Cx2FTsCuwm7G5sI7YD24sdwI7hcDg1nDnOHReC4+BycIW4nbgjuLO4Ptwg7iNeDq+Dt8P74ePwQvw6fDn+MP4Mvg8/hB8nKBIMCa6EEAKPsJxQQjhIaCNcJwwSxolKRGOiOzGCmEpcS6wgNhAvEB8R38rJyenJucgtkBPI5ctVyB2TuyTXL/eJpEwyI7FI8SQJaTOpltRBuk96SyaTjche5DhyDnkzuY58nvyE/FGeIm8lz5bnya+Rr5Jvlu+Tf6VAUDBUYCosVshTKFc4oXBdYUSRoGikyFLkKK5WrFI8pXhXcUyJomSrFKKUobRJ6bDSZaXnyjhlI2VfZZ5ygfIB5fPKAxQURZ/ConAp6ykHKRcog1Qs1ZjKpqZSi6lHqT3UURVlFQeVKJVlKlUqp1WkNBTNiMampdNKaMdpd2if52jNYc7hz9k4p2FO35wPqhqqXqp81SLVRtXbqp/V6Gq+amlqW9Va1B6ro9XN1BeoL1Xfo35BfUSDquGmwdUo0jiu8UAT1jTTDNNcoXlA85rmmJa2lr+WSGun1nmtEW2atpd2qnaZ9hntYR2KjoeOQKdM56zOC7oKnUlPp1fQu+ijupq6AboS3f26PbrjesZ6kXrr9Br1HusT9Rn6Sfpl+p36owY6BvMMVhrUGzwwJBgyDFMMdxh2G34wMjaKNtpg1GL03FjVmG2cZ1xv/MiEbOJpkmVSbXLLFGvKME0z3W16www2czRLMasyu24OmzuZC8x3m/daYCxcLIQW1RZ3LUmWTMtcy3rLfiuaVbDVOqsWq1fWBtZx1lutu62/2TjapNsctHloq2wbaLvOts32jZ2ZHdeuyu6WPdnez36Nfav9awdzB77DHod7jhTHeY4bHDsdvzo5O4mdGpyGnQ2cE5x3Od9lUBmhjE2MSy4YF2+XNS7tLp9cnVxzXI+7/uVm6Zbmdtjt+Vzjufy5B+cOuOu5c9z3u0s96B4JHvs8pJ66nhzPas+nXvpePK8aryGmKTOVeYT5ytvGW+zd5P2B5cpaxerwQfn4+xT59Pgq+0b6Vvo+8dPzS/ar9xv1d/Rf4d8RgAkICtgacJetxeay69ijgc6BqwK7gkhB4UGVQU+DzYLFwW3z4HmB87bNezTfcL5wfksICGGHbAt5HGocmhX66wLsgtAFVQuehdmGrQzrDqeELwk/HP4+wjuiJOJhpEmkJLIzSiEqPqou6kO0T3RptDTGOmZVzNVY9VhBbGscLi4qriZubKHvwu0LB+Md4wvj7ywyXrRs0eXF6ovTF59eorCEs+REAiYhOuFwwhdOCKeaM5bITtyVOMplcXdwX/K8eGW8Yb47v5Q/lOSeVJr0PNk9eVvycIpnSnnKiIAlqBS8Tg1I3Zv6IS0krTZtIj06vTEDn5GQcUqoLEwTdmVqZy7L7BWZiwpF0izXrO1Zo+IgcU02lL0ouzWHigxG1yQmkh8k/bkeuVW5H5dGLT2xTGmZcNm15WbLNy4fyvPL+3kFegV3RedK3ZVrV/avYq7avxpanbi6c43+moI1g/n++YfWEtemrf1tnc260nXv1kevbyvQKsgvGPjB/4f6QvlCceHdDW4b9v6I/lHwY89G+407N34r4hVdKbYpLi/+som76cpPtj9V/DSxOWlzT4lTyZ4t2C3CLXe2em49VKpUmlc6sG3etuYyellR2bvtS7ZfLnco37uDuEOyQ1oRXNG602Dnlp1fKlMqb1d5VzXu0ty1cdeH3bzdfXu89jTs1dpbvPfzPsG+e/v99zdXG1WXH8AeyD3w7GDUwe6fGT/X1ajXFNd8rRXWSg+FHeqqc66rO6x5uKQerpfUDx+JP3LjqM/R1gbLhv2NtMbiY+CY5NiLXxJ+uXM86HjnCcaJhpOGJ3c1UZqKmqHm5c2jLSkt0tbY1t5Tgac629zamn61+rW2Xbe96rTK6ZIzxDMFZybO5p0d6xB1jJxLPjfQuaTz4fmY87e6FnT1XAi6cOmi38Xz3czus5fcL7Vfdr186grjSstVp6vN1xyvNf3m+FtTj1NP83Xn6603XG609c7tPdPn2Xfups/Ni7fYt67enn+7907knXt34+9K7/HuPb+ffv/1g9wH4w/zH2EeFT1WfFz+RPNJ9e+mvzdKnaSn+336rz0Nf/pwgDvw8o/sP74MFjwjPysf0hmqe273vH3Yb/jGi4UvBl+KXo6PFP6p9OeuVyavTv7l9de10ZjRwdfi1xNvNr1Ve1v7zuFd51jo2JP3Ge/HPxR9VPt46BPjU/fn6M9D40u/4L5UfDX92vYt6NujiYyJCRFHzJkaBVCIwklJALypBYAcCwDlBjI/LJyep6cEmv4GmCLwn3h65p4SJwAaEDM5FrE6ADiGqFE+khvRyZEowgvA9vYynZl9p+b0ScEiXyz7fCbp/rZF+eAfMj3Df9f3Py2YzOoA/mn/BYLIBz4QpyMXAAAAimVYSWZNTQAqAAAACAAEARoABQAAAAEAAAA+ARsABQAAAAEAAABGASgAAwAAAAEAAgAAh2kABAAAAAEAAABOAAAAAAAAAJAAAAABAAAAkAAAAAEAA5KGAAcAAAASAAAAeKACAAQAAAABAAABDqADAAQAAAABAAABBAAAAABBU0NJSQAAAFNjcmVlbnNob3TP9RPlAAAACXBIWXMAABYlAAAWJQFJUiTwAAAB1mlUWHRYTUw6Y29tLmFkb2JlLnhtcAAAAAAAPHg6eG1wbWV0YSB4bWxuczp4PSJhZG9iZTpuczptZXRhLyIgeDp4bXB0az0iWE1QIENvcmUgNi4wLjAiPgogICA8cmRmOlJERiB4bWxuczpyZGY9Imh0dHA6Ly93d3cudzMub3JnLzE5OTkvMDIvMjItcmRmLXN5bnRheC1ucyMiPgogICAgICA8cmRmOkRlc2NyaXB0aW9uIHJkZjphYm91dD0iIgogICAgICAgICAgICB4bWxuczpleGlmPSJodHRwOi8vbnMuYWRvYmUuY29tL2V4aWYvMS4wLyI+CiAgICAgICAgIDxleGlmOlBpeGVsWURpbWVuc2lvbj4yNjA8L2V4aWY6UGl4ZWxZRGltZW5zaW9uPgogICAgICAgICA8ZXhpZjpQaXhlbFhEaW1lbnNpb24+MjcwPC9leGlmOlBpeGVsWERpbWVuc2lvbj4KICAgICAgICAgPGV4aWY6VXNlckNvbW1lbnQ+U2NyZWVuc2hvdDwvZXhpZjpVc2VyQ29tbWVudD4KICAgICAgPC9yZGY6RGVzY3JpcHRpb24+CiAgIDwvcmRmOlJERj4KPC94OnhtcG1ldGE+CjGIaF4AAAAcaURPVAAAAAIAAAAAAAAAggAAACgAAACCAAAAggAAEoREGRDrAAASUElEQVR4AexdW3MURRRORCUJqHjjopaKIXgPiqEULNDyQSxL3+TRP+CjVeo/8c0XH32hyirLGyDlXQQ1CIUQQkAERCDEKyJizNnOnv76q91kJ7uZzGa+qUrmnL7NzNc9306fPt3d2dHRMT7xp0MICAEh0DACnRMpRRwNw6WEQkAIGAIiDrUDISAEMiMg4sgMmTIIASEg4lAbEAJCIDMCIo7MkCmDEBACFeJYtGhRgsSff/6Z6FKEgBAoFwLICf/++2/HxYsXEwA6Fy5cON7d3Z0Ejo2NJboUISAEyoXAkiVL/IEvXbrUwR8TIg6HR4IQEAJVBEQcVSR0FgJCoGEEpiWO7q7u8e6etKsyOjra8AWUUAgIgfmHwA033OAPZV2V33//3XUTOkUcCR5ShIAQmEBAxKFmIASEQGYERByZIVMGISAEpieO7gkbBw3HysahhiMEyo2AiKPc9a+nFwIzQkDEMSPYlEkIlBuBhoijp6cnQencuXOJLkUICIFyIXDjjTf6A//zzz81hmMnbBwiDsdIghAQAhMIiDjUDISAEMiMgIgjM2TKIASEgIhDbUAICIHMCIg4MkOmDEJACIg41AaEgBDIjICIIzNkyiAEhICIQ21ACAiBzAiIODJDpgxCQAiIONQGhIAQyIyAiCMzZMogBISAiENtQAgIgcwIiDgyQ6YMQkAIiDjUBoSAEMiMgIgjM2TKkBWBK664wrNcddVVLpvQ1dWV6BiPsiViHTNevnwZ1Q7bXQwPm/pdPVC2MNYx7/j4eDWbzoCAiAPAkDg7CIg4ZgfXuSxVxDGX6Jfk2iKO+VfRIo75V6eFeyIRR+GqpOkbEnE0DaEKYASQKCwOV5DDXc4t7vrrr7eTH9ggb7rpJg83gfUFCxZ4PO8kxstbnjlzxtPyKv2cFzdQZvuHbB4BRqwnw4gx7JzYGkFLB3qTk9AIAiKORlBq7zQijvauv0LevYijkNXS0psScbQUznIWxkSxePHiBIhrr73W9ZtvvtllE+66665EX7Vqlet9fX0um7B69epEv/LKK10/ffq0yyYMDQ0l+qFDh1wfHh522YQTJ04kOnZlfvvttySOuy5JZIkUEUeJKnu2HlXEMVvIFrdcEUdx66Zt7kzE0TZV1bIbFXG0DMryFiTiKF/dizjKV+ctf+LrrrsuKRO3B7SI22+/3ePZpsF2i7vvvtvTomyBvb29HmcC2jhwuNXiDh8+bCc/Dhw44DLaOyyQ9ZGREU97/Phxl01gm8d///2XxJdFEXGUpaZn8TlFHLMIbkGLFnEUtGLa6bZEHO1UW625VxFHa3AsdSkijvJVv4ijfHXe9BPz9PYVK1YkZd5///2J/vjjj7vOcUuXLvU4E9CtnG0lrKNR9q+//krKGRsbS3S0gbA7Ots4vvzyS8+7fft2l03gvBcuXEjiy6KIOMpS0y18ThFHBFPEEdYz0VyV2CYk1UFAxBGBEXGIOGJrkJQMdRocOMOVXcp5iBW7Jpb36aeftlPlYDdyLgtJCWXLjMOvpnd2dtqpcuCqXRbAw6ToKo6ypcXhV9Oxe/Lmm29akB/sns7Ds55wngvqqszzCp7p4/FLKuIISIo4Ag4ijpm+WfM8n4gjVLC+OGo3dBFHbVxKHyriEHFM9RKIOKZCp0RxaC+wx8ap8KbjSl0rV660ID/6+/tdNmHDhg2Jvn79eteXL1/usglsx8AVtlC2tJcuXbJTzYPvn4kP41G2wtit/KOPPvJrvP766y6bwEO358+fT+LLoog4ylLT0zwnv0wijgCYiKN2wxFx1MaldKEijljl+uKIWNSTRBz1kClZuIgjVriII2JRTxJx1EOmZOELFy5MnpiX+MMl/Z566qkk7cDAQKLzdHh0K8dhXcuEbuOmo/8F+2awjmm5HFwB3cq9+uqr7VQ5mCRPnjxZjaqcP/30U9ffeOMNl03Yu3dvop89e9Z1vj+PmIeCiGMeVupMHknEEVETcUQs6kkijnrIlCxcxBErXMQRsagniTjqITMPw/kTHUdOeOYprtplUKxZs8YRQRdyC+QZr8uWLfO0JmA3gbsUScIJBT/3efiVZ8DiPBHcRMnKxHJMR2Lk2bzsgr5v3z7LUjm2bt1aFSvnwcHBRMduDrufT3W/fM2k0DZQRBxtUEmtukURR0BSxNF8ixJxNI9h25Qg4hBxtKqxijhahWQblCPiEHG0qpmKOFqFZAHLYbdrHgrF1bZ4CBVtGvZoqD/88MPJ0956662JzhtLJ5HTKGjXQBuGZfv111+T3L/88ovrP/74o8sm8Epdi3oWefzAunT4GIeLLRHaKvYOpsOv+/ZH+4elRRf0I0eOWJAfaP+wQLwnXvgGn9sLKLAg4ihw5TR7ayKOiKCII2LRCknE0QoUC1qGiCNWjIgjYtEKScTRChQLWoaII1aMiCNi0QpJxNEKFHMsgw2cPC0dfSa6urqSO7vmmmsSHZf8w6nvluixxx5L0t57772uY6OxQLadMGF5xgYE7Ouzb8boudGkhMPDcbc2dgXn5QDxHjdv3pyUg/Ybi8AlBP74448k7bFjxxId/Tq++eabJA79QSxiaGjI49HeYYHs8+EJCypgGzCfFLbZdHZ3d48j6PYc/NAFfbZ5eVsijlitIo6IRd6SiCNvxJu8nogjAijiiFjkLYk48kZ8BtdDsuDuB7qNW9G4qxp+clscu4LjECx3VdauXWtZ/GAXdI+YEPD+MHwmMnZV+POdh2NxI+kvvvgiuRx3E7AL9+yzzyZpeVX2O++8M4lH5e+//0a1A+8B57hYItzYyfTdu3fbqXKcPn26KlbOOAScRBRUEXEUtGLwtvDFFHFEZPClFXFEXPKQRBx5oNzkNUQcAUB9cTTZkFqYXcTRQjBnqygRR0BWxDFbLSx7uSKO7JjlngOHXNGGYTeCdgrTV69ebafKgcOtFsB9d7Rb3HbbbSHT5H90R7cgHsrFxEhsGD4TGVf14qnxGGdlo7v3Z599llxu165diY5lsU3jkUceSdL29va6znYitnGgm/nXX3/t+UxgG8cnn3zi8byxE5OiJyyoIOIoaMXgbYk4AhoiDmwVcyuLOOYW/4auLuIIMIk4GmouuSQSceQCc3MXEXEE/EQczbWjVuYWcbQSzVkqC6ep8xTwjRs3Jld99NFHXecl/djGgXYLHuZFsrICccm/y5cv+zVMYB19MTie7SFTXRevmVxwUjl69KgHf/zxxy6bwD4V6CfBuLB+zz33eFlsJ+JnRVvFd9995/lM4CHiHTt2eDzvHjc2NuZx7SCIONqglkQctStJxFEblzxCRRx5oNzkNUQctQEUcdTGJY9QEUceKDd5DRwS5O7G888/n5S+adMm1/kTnDd89oQ1BLYn4Cc6u4LzzEgeWsRuAneBePUwXG0dVyavcYsdSBw7d+5Mkmzfvj3RcbUwHnru6+tL0uJs2XXr1iVx3LU6deqUx0/XVdm2bZun5RXLGDNPWFBBxFHQisHbEnEgGlEWcUQs8pZEHHkjPoPriThqgybiqI1LHqEijjxQbvIaIo7aAIo4auOSR6iIIw+UM16D7QC4ATTbLbZs2ZKUjsOzK1euTOJwankSUUNhGwfuPIb2AsuKQ5KmHx05aic/Tpw84fLixYtdNgGHj03Hza05rcXjcfDgQVc/+OADl01g/aeffvL4JUuWuGwCD7miXeO5555L0rIr/qmT0caxe0+cNm+ZPv/88yQv2l3wfiyRbBwJVFJmgoCII6Am4phJ68knj7448sE501VEHAEuEUemZpNrYhFHrnA3djERR8BJxNFYe5mLVCKOuUCdrslT5dEYaknvuOMOz/HQQw+5bAIvg4c+CGgbsbTs7m1h1QOnnVsYrzCOS90NHYqrdVvaIyPpDmZs88DFrfnZNmzYYEX4cd9997nMyyKOjqarnO/fv9/Tsos5T2lHfwu29eDyAlYg3tOLL77o1zCB06Kr+Pfff5+k5an+7733nscPDw+7bAI/WxJZQEXEUYBKEXHEShBxRCyKLIk4ClA7Io5YCSKOiEWRJRFHTrXD3QR0XWZXcHx57PZwhSruqjzwwAPJE6xYscJ1thGMj497nAnYPeGNh3jD5B9++MHz8qxP9KewRFwWbtDEs3v5/tEFnYeEcbUtu87hw3FDJtzsyOLYpfv8+fMWXDkWLFhQFStnxh9XCHvppZeStOyejvXK1+Th2K1bt3pZ3K3BrqAl4hnGnrEggogjp4rABmaXFHEE4EUcAQcRR8BB/wkBEUcARF8cAQd9cdALIrU2AiKOgIuII+Ag4qj9npQ+lFevmtiDN8EE7Q/cb37yySeTtKiz/QNX8bJMOBUdbQsWxzYOHHLF4UpLe+jgITv5ge7U6DptCTgvPzv2h3k3uVtuucWvYQLihNPxLQ5dzE3/+eef7VQ52GWb7Sy8FEA1n53RLmQ6brj98ssvW5Af3LXCIWMcdrYM3377recz4a233nKdV0RnF3R8drRFeQFzLGCdatPpFlYGvzz4QthlRBwBbBFHwEHEEXAo/X8RR2wC+OukL46Ai744YvuQBAiIOCIYIo6Ahboq587FViGpJgI9PT1JOPaFLQKNhOgmbnHPbH7GTn5s3LTRZV72ziMmBbZjYDwu/2fhZ8+e9Wj2g+Bl8L766itPy+7dZ86c8TgT0M5iOk5Fx6UBLY5tNBZWPdhuwX4S6O6N0/6r+Rs9Y11YnrVr13rW1157zWUT2I8Gp+jzEoojIyNJ3rffftt19vHAXeksEQ7Psn2G/Vu80BwF/DGQjaOFwIs4IpgijoCFiENfHPGtqCOJOCIwIg4RRwUBHnaKTaTcEk6H51mgPOSHm0Pjp7EhuH79+gRIXPULPxGTRJMKfrJz1wTjLDl++vPQIeuDg4N+uQMHDrhsArpzJxGTCpIod2MQM87Lbtc4RGlpcQPoqbpoXC7r3FVBF/9XX301ST5VVwXvxzJhd8N0nLHLxtE9e/ZYEj9w5i92ySwB4+KZchSwHaqr0iTw+BKIOCKYIo6AhYhDXZX4VoAk4gAwQBRxBDBEHCIOeC2iKOKIWKAk4ghoiDhKShw834RXksKhOXZ06u3txXcpGdZ78MEHkzh2K8ep5khOlontCziEiS7llpaH9dBbkedOsB0Dp7DzlHu2PbCLNE5jR9nuiXULqx7T2WiasWtUr2Fnriu0cbzyyiuYNKk3i8A6ZxsS1oWlRZd5tmnwamE4XIvD5lbOxYsX7TSnh2wcGeAXcQSwRByx0Yg4OjpkHI3toaYk4hBxTDWqoi+O+Np0TkzOGsc+qkWVdThWxCHiEHGENqCuSsChof88TZ3dyHEFbNyRzArn6dj9/f1+TZ5WP9WMUbZb4Hi/FYjL+LErOE81x3hemZy7I9jP5hW5+Z7YxuEPWlCBbRwDAwN+p2zj4OkB2FVh/wrGBTFmP5mdO3f6NU348MMPXcd6ssALFy543FwJIo4MyIs4AlgijthoRByyccTWUEcScYg49MUR2oC+OOqQRK1gXowH52BYetxAGTcutjjsmpjet6rPTpVj2fJlVbFyZrdsHEY9fvx4kvb9999PdHQNx+FWS8TDpvjJy5/ZrKM79VTl2HVaNUxqZeVxtKqrwsPH3FVBF3SsJ3vGHTt2JI/67rvvuo75LBDrzRPlLIg4MgAu4ghgiThio8Guiogj4qJRlYhFsh6mBeuLI4DDv4D64gi46IuDFqUp63CsvjjCC6EvjoCD/dcXh4yjsTXUkXirRl6NCzeAfuKJJ5JSeDgWdw9jN3J+MY8dO+Zl8cpc27Zt8zgTcHiW+8b8C4if1nwPvPQhrjrF5bA9RF8coUoYJ/zBZRsHrxz/zjvveL3iau4WyF94njBHQTaODGCLOAJY/EKIOAIuSMQWwjiJOEo6yU3EIeKYajhWxBHah/2XcTRi0SHiCGDwL6m+OAIuIo74spSOOHg+Cvb9eVUvXP7PIHvhhRccOdx9zQLZrRx9NXh1bLRTWN5du3bZqXKwjWPfvn3VqMoZ3Zp5Wjf6YiSZJhR2bmMd0/O0brR/YLp2kWfLjwP9bwwLdNuXjaNdWkeD9yniCECJOAIOWeaq8BeHiKNEw7EiDhHHTCe5iTjir3PpuirYNTEYcAbssqWpa3j/mjjD1dJu2bLFTpUDNy62AJ7xio0MVxu3tDgz0nR0R+auCc+cxG5PM8N2TKB2H9Wj3YZbq/dd76yuSj1k6odrOJawEXEEQEQcAQd1VegFmVRFHISLiCMAIuIIOIg46AWZVKcjjv8BAAD//wf15HYAABK2SURBVO1daXNVxRYNqEgYFWVSJmUIQgjiPCWWgEPpZ/0XfnP4Q8+y6lHOYmEpFCCKCkLAPAwYBKJMIpMgjsjLvpfsu/Yi915O7njuWedD7t6np3NW91np3r27e0x7e/uVCRMmtOF1+vRpVFtKvummm8L7TJkyxfWZM2a6bELXyq6gv/jii64/8sgjLptwxx13BP3y5cuuDw4OumzCJ598EvRNmza53tfX57IJp06dCvqFCxdc//33311OKowZM6ZokitXrhQNS2PAzJmxXh944AF/jVdffdVlE1auXBn0W265xXWsU7t56dIlDzPhl19+cX3Pnj0um7Bx48agr1+/3vUTJ064bEIl9RoyqkC57bbbPPVff/3Vhu3OAsZkjTgmTpzogJgwa9Ys1zs6Olw24cEHHwz6c8895/rSpUtdNmHq1KlBN7CHr927dw+Lud933nkn6J9++qnrAwMDLpvAFdZqH3V42RopTBxYr6+88kootVrEsXfv3pAvE8eHH37o4SIOh6J5BRFH89ZNrZ5MxJEcWfU4CDMRBwGSAVXEkbySRRyEmYiDAMmAKuJIXskiDsIMAbGg5cuXe4yenh6XTXj00UeD3tnZ6fqMGTNcNoGNjWfOnPHw7du3u2zCu+++G/Rt27a5fvjwYZdNkE0jwDEqpV7EgXVezjj6wQcf+LvIxuFQNK8g4mjeuqnVk4k4kiOL34lmVYbwQ0AMTvU4kjeqtKUQcSSvMfxORBxD+CEgBqeII3mjSlsKEUfyGsPvRMQxhN+8efMCio8//rjrzz//vMsmPPbYY0GfPn266+xIxv4W6PT1+eefezoTNmzYEPRdu3a5fvLkSZclVAcBJo7777/fM37ttddcNiGJHwc7ap08Uai73j29IV908rOAjz76yMO5zjlfj1hHQcRBYIs4CJAMqCKO5JUs4iDMRBwESAZUEUfySs4EcfBUKA4jhlzqA2qLFi0K+po1a1x/4YUXXDYB1zSYfvPNN9tP7vrzzz+Hxdzv8WPHg973v8Kaky+//DKEbd26Nej9/f2u45Se35RQEQI4xLSMcKjy+uuvh7x5qHLrrbd6+N9//+2yCTykwOEpDj8t7pYtW+zHL1xmwEMVblueqI6CiEPEUcfm1pxFiTiS14uIQ8SRvNW0WAoRR/IKFXGIOJK3mhZLIeJIXqGZII4bb7wxIDN58mTXcT8Fu4l+G6avXr3afnLXM888MyzmfjkuBp47dw7VtoMHDwYd7Rpff/11CONl9j/++KOHc74eIGHUCPDygPvuu8/zSmLjwK0SLINff/3V8zFh3759rn/zzTcum8BT8rgMAffxsLhcjt2r9yXigI1YDHwmAxFHvZtk/csTcSTHXMQh4kjealoshYgjeYWKOEQcyVtNi6UQcSSv0EwQx7hx4wIyuI3f7NmzQ9iKFSuCvnbtWteffPJJl0246667go4KL4XmreJwnp7n9NkegvuK/vbbb1iM5FEgwH49pZz+Xn755VDCPffcE3RsSxcvXgxhaJuyALRrcZ339kYXdPTdOX/+fMiX/UVCYJ0UEYeIo05NrXmKEXFUXhciDhFH5a0oZTmIOCqvsEwQB7qCG2TYveShyr333htQRZdz3gFs/vz5IS4qhw4dQvWa6bb33nvPw8sdeYDTes3QTfUHb2KByQGXFrBNY8mSJeFNcEX0Sy+9FMJ4WIPlJBme8tDkyJEjoRw8goRd15th1zcRB/U4RByh/aZWwQ/aXkLEUd2qFHGIOKrbopokNxFHbStCxCHiqG0La1DuIo7aAp954uCjGZMMVebOnVu0dvbv3x/C+FjHdevWefiBAwdcNoHdytHFuBnGt+Fhm0QZO3ZseBI+thSXv/OJfKtWrQpp8SS37u7uEDZp0qSgo/2J65GXEmAb4PaBNg0rAO0azVjnIg4601XEEb6L1CgijvpWlYhDxFHfFlej0kQcNQK2SLYiDhFHkaaRrtsijvrWl4iDiIPHu2vXFFzOu3vieHfOnDmhtnAsikuoLdL69etD3DfffNN1djFn12WPKCEggAZQ3CrBIqGvjunoc/Pwww/bLb/QpmE3cYX03Xff7fFM4G37sO7Yjfyrr74Kab/44gvXjx+PW0myW7lHbFJBxCHiaNKmWf6xRBzlMapVDBGHiKNWbavm+Yo4ag5x0QJEHHUijvfffz9Uwhv/ecP1I4PR3VgrYB2akgJ6g/L2f4sXLw5pcXfyJ554IoR1regK+py5hSEo7ohvkX766acQF4cjn332WQjjndx++OEHDz979qzLJuD0awhoUkXEIeJo0qZZ/rFEHOUxqlUMEYeIo1Ztq+b5ijhqDnHRAkQcIo6ijaPZA0QcjashEUcViQPdj/fs2RNqFQ8RtoC33nrLw48ePeqyCWkb74aHr1BBfwzeDoF1dCPnaVO0adgjoUdwV1e0afCyAzS6/vzzz+GNvvvuu6Dv3LnTdZ6Oxalai4Sn8PEh5P/884/nkwZBxCHiaKp2KuJoquoo+jAiDhFH0cbRiAARRyNQT16miEPEkbzV1DCFiKOG4FYxaxFHGeJ4+umnHW5eYs1b0B0+fNjj7txRGPvazY2bNnqYCbjEmsfR7NYcEraYwqfsTZw40d+Q3cixsVqkBQsWeNzOzk6XTUCbhukLFy60n9zFp/fhtgUWAXcnZ7sF2zjQjsFu5OyrgUsJuExcrpB/yub+i3Vh78I2mzFDlusrvLcB7x3Q3K/Y1sZGNVzHwIYxXqsi4qht7Yo48viKOGrbzkaVu4hjVLDVJZGIIw+ziKMuzS1ZIZUQx7PPPuuF8VAFpwMtEnZr8fAdC+NDhTGce3DcjbX0ab7QbsEu3NybxWHEnXfeGV6bdyPHw5H4IC2Oizt38SHOvBvXjh07vNzNmze7bAIOY0zH4QfvQM9DTpxyTRtR2LvipaFKGRuHiAOby+hkEUceNxHH6dOja0ENSqUeR4OAv1qsiCMPhIhDxJFrCRqqXB8hiThEHDkEeEx+fc2ncbGaocexbdu2AMD27dtd52m7tNs4kCjsJXFaFadbLYyXw+Ouarw0HnfmsrQYziesoa3E4uJ0IS93R5uGxcWl8uhSbmFo0zAdexGmZ+WSjaNONg4RR/6TEnG0BrWIOEQcVW/J6nFUHdKmy1DEIeKoeqMUcVQd0qbLUMRRhjhKeY7ySfe4rRyPjT/++ONQ+bjrOfsVpN3GwUbj2bNm+7vPXzDfZROWLVsWdPS/QDdxi8R+HegDwn4RbDfCU9a2bt0aymSbBy4d4OUAWbVpBMCGFBGHiIPbRMW6iKNiCJs+AxGHiKPqjVTEUXVImy7DTBIHTtXxIjdeVZnkQCbcuWvv3r2hsjds2BD0df8tHDp99FjcAQynDi0RdsNRDhmOoLCt4YYbbgixcJ0Iu4JzXNwVK2QypIwbNy7c4lXDOG3KU6q8UxcOVWbNmhXy5RkZ3A2ed1FjN3JcDsBDFdx93ArEYU7ah40BwCoqIg7qcYg48q1LxJHHQcQxMtuIOEQcuZahHkfhA1GPo4BFMUnEIeIQccBBSQaGiKMYXRTuZ5I4Sm3kw0OVNWvWOFo9PT0um8Buzhh4cOAgqm2bt2wO+ttvv+067yqFu6VbJFyejbKFXb582X78wiEG2x7Y9X78+PGeju0HONVpkTAtlmFhaDMyfe7cufbjV0dHh8tLFi9x2YSFiwo7c5mOdg1+Bn5XtGvs799vyf3atXuXyyagjYOnX0+ePBniMsYhUEoOARFHmR6HiCP/pYg4xBiIgIhDxJFrD+pxFD4L9TgKWBSTRBwiDhGHhirF+KHofRFHjYiDx819fX2hEvBk82+//TaEHTkST69Ht2e2f/B2deibgUckWgFo2zEd/S1wObuFsY5xp0yZYlH8wkZkNzGu6TNnzrSf3MXPwPYS9FP5448/hpPlfvnd0f+C8eWT9L7//nvPC20jdvPcuXMeZoKmYAMcIypY54YX+x5lbpfzahlHRRyF9ibiKGDRKpKIQz2OXFvmHgbr2ItQj6NVPv/Rv4eIo0bEwd1qXDlr1dXf3++1xu7RAwMDHmYCpsWDiy2Mu9XoZo47b1lc/PhNR3d7PNzIwubPj6tYcZp02rRpFsUvLocNrehchkMRy4C7uLhS+MSJE16GCbzD+KFDhzwchyJ2E8NMx7y4bvgZ/v33X0uiqwQCIg4RR655iDgKX4mIo4BFMUnEIeIQcVy4EL4PEUeAY0RFxCHiEHGIOEYkh1I3M0kc6CLNu0pdM6uyuuBy3t3THbBk12oMLDeViGP5Y8eOYdJg07AAPMyYpw65HJyOZdsDzm5YvmjzQNnCePdx3GOD80WvUkvLruH4jGxf4NknnIpmW8++ffsse78GBwdd5nzOnz/vYSbgEnzc/sDC2E7EdhiLoysiIOKgYwZFHPkGIuKIH4q0iICIQ8SRaxHqcRQ+DPU4ClgUk0QcIg4Rx5DnI14iDkRjZDkTxMHLy9HGwTuVr1q1KiC1evVq13lZPfs6eMQhgcf57BqO4+pLly5h0jYen6NdAMfqlojH62jjYH8KrGxLi+G4xN7C2G6BGGIZFpffje0w6DKPsqVF+43puMM4bzfA2zGinYhx4IVqWB8oW5kiCkMh2YVtqWVdzrHRGzwijnwjEXHkcRBx5HFI8lfEMbtw5ocBpx5Hvvmox5HkM8pe3EwQB7o8WxXjWguePejs7AytYO3ata4/9dRTLpuAu3eHgCGl1K7gFrfUfzl2QMJhDcqWD3fJ0eWchx+TJk2yJNd18fPhM3GZPPzAVatW2MGDhd3QeOqZDzDHcJyatXzYrRyHcPy8Fl9X7RAQcUyfHtAVceTh4A9RxBGaSeYVEYeIY8SPQMQxIiy6eRUBEYeIY8SPQcQxIiy6mSXiYHsD7p7N7tN4kphhhNOxeAC1hXV1ddmPX7jjFu9s5ZGuCvxhYjgOC+w+Th9yGB+CjOXytCnberBMltmWcvHiRY+Cy/ztJm8LwLuI425cvPsWT+WiezpPPfOWApzWH1BCzRHIRI9DxJFvRyKOmn9PmSlAxDF5cqhs9TjycKjHEZqFFEJAxCHioCaRV0UcI8Kim1cRyARxcG3j2B/tHRaPl8o/9NBDnry7Oy6r55PWb7/9do+LviJ2k30q2MHKE44goD0EZYvKNg/04+AwtgmgPwa7bKOPhJWDvhq8LR8vd+/t7bUkfqHrOOfrka4KaM8p9bycTnp9ERBxTJgQEBdx5OHgD1zEEZpJ5hURh4gj9xGox5F5LkgEQCaJAxHCrr3dx928TV+4sHAo8vLly+2WX0uXLnXZBFwtyz0XXoWLu3HxrA8/UyikjIJDGZ7OPHXqVEiNu2Zhj8IiYZjpOI3K07G4otXi8lAG47PtxOLrSh8CIo6xY0OtiTjycIg4QrOQQgiIOEQcuSahHgd9GVJLIiDiEHGIOEp+IgocCYHMEweDgpvbWBhOqyJYFoYnoZne0dFhP7lr2bJlw2Lul93Tcd8PdBO3yDhdbDraLUzHi+0j6IKOO2RZGj7cGqdReck62y3wJDTeoYxtKeiebuVyuN3TlW4E8FswuxWfhtcSh04nqSIRRx4tEUeSVpO9uCIOqnMRh4iDmoTUERAQcRAoIo48IOpxUMOQGhAQcQQ42trYhwLtDeyejpseWzbz5s3z3BYtWuSyCWzzQHd1dFW3uPwMpWwcbB/BsSb6T1i+aNMwHZfDs+8F7z6Odg32xWDXcHQbt3LY9d3u6Uo3AiIOqj/+aEUceYBEHNRQMq6KOKgBiDjygKjHQQ1DakBAxBHgKK0wqfDuYVOnTvUMpk2b5rIJfMQiuqDz7uNcTqmhCsfFHbTOnj0bnoGdvHCHcY7LU6q46K3U84QCpbQsAiKOBFXLH6mIIwF4itpSCIg4ElSniCMPlnocCRpNi0YVcSSoWBGHiCNBc2npqCKOCqoXZ1wsG9zVi8+rLaXzlGoFjxSmPtH93PLkaVPUeYoVbSWWVlOqhoKuYQREHMNIjOJXxDEK0JSkJRAQcVRQjSKOCsBT0lQjIOKooPpEHBWAp6SpRkDEkerq08MLgcYgIOJoDO4qVQikGgERR6qrTw8vBBqDgIijMbirVCGQagREHKmuPj28EGgMAiKOxuCuUoVAqhEQcaS6+vTwQqAxCIg4GoO7ShUCqUZAxJHq6tPDC4HGICDiaAzuKlUIpBoBEUeqq08PLwQag4CIozG4q1QhkGoERByprj49vBBoDAIijsbgrlKFQKoRuC7iaG9vDy955syZoEsRAkIgWwjgLv62kxweBGZI5A6dFnFkq1HobYVAOQREHOUQUrgQEALXICDiuAYS3RACQqAcAuWJY3z7lfYJsnGUA1LhQiBLCIg4slTbelchUCUERBxVAlLZCIEsISDiyFJt612FQJUQKEcc/wf+GgmzZvrKuwAAAABJRU5ErkJggg==;" vertex="1" parent="1">
          <mxGeometry x="230" y="130" width="41.54" height="40" as="geometry" />
        </mxCell>
        <mxCell id="2_PLvZ0-YJUxEWmZZNLs-3" value="" style="shape=image;verticalLabelPosition=bottom;labelBackgroundColor=default;verticalAlign=top;aspect=fixed;imageAspect=0;image=data:image/png,iVBORw0KGgoAAAANSUhEUgAAAPoAAAD+CAYAAAATfRgrAAAKqmlDQ1BJQ0MgUHJvZmlsZQAASImVlwdQk9kWgO//p4eElhDphN57CyAlhBZAQTqISkgChBJCIKjYUFlcwRVFRAQruiCi4KoUWVREFNuiYK8bZBFR1sWCDZX3A0Nw9817b96ZOXO+nJx7zrl37p05PwBkRY5IlA4rApAhzBGH+XvTY2Lj6LghgAc4QAKOwILDzRYxQ0ODASIz9u/y/g6AJu1Ny8lc//7/fxUlHj+bCwAUinAiL5ubgfBJRF9wReIcAFD7EL/+0hzRJHchTBUjDSJ8b5KTp3lkkhOnGA2mYiLCWAhTAcCTOBxxMgAkOuKn53KTkTwkL4RthDyBEGERwh4ZGZk8hI8hbILEID7SZH5G4nd5kv+WM1GWk8NJlvH0XqYE7yPIFqVzlv+fx/G/JSNdMlPDCFFSijggDLHKyJndS8sMkrEwcX7IDAt4U/FTnCIJiJxhbjYrboZ5HJ8g2dr0+cEznCTwY8vy5LAjZpif7Rs+w+LMMFmtJDGLOcMc8WxdSVqkzJ/CZ8vy56VERM9wriBq/gxnp4UHzcawZH6xJEzWP1/o7z1b10+294zs7/YrYMvW5qREBMj2zpntny9kzubMjpH1xuP7+M7GRMriRTneslqi9FBZPD/dX+bPzg2Xrc1BLuTs2lDZGaZyAkNnGLBAJkhHVAzoIBj55QNADn9ZzuRGWJmi5WJBckoOnYm8MD6dLeRaWdDtbOzsAZh8r9PX4S1t6h1CtCuzvvVEANyFExMT7bO+oM8AnNQFgCid9Rn3ASCP3PtLW7kSce60b+otYQARKAAqUAPaQB+YAEtgB5yAG/ACviAQhIAIEAsWAy5IARlI50vBSrAWFIJisAVsB5VgLzgADoGj4DhoAe3gHLgIroIb4DZ4CKRgELwEo+A9GIcgCAeRIQqkBulAhpA5ZAcxIA/IFwqGwqBYKAFKhoSQBFoJrYeKoVKoEtoP1UG/QKegc9BlqBe6D/VDw9Ab6DOMgkkwFdaCjWBrmAEz4SA4Al4EJ8NZcB5cAG+GK+Bq+AjcDJ+Dr8K3YSn8Eh5DAZQciobSRVmiGCgWKgQVh0pCiVGrUUWoclQ1qgHVhupG3URJUSOoT2gsmoKmoy3RbugAdCSai85Cr0ZvQleiD6Gb0V3om+h+9Cj6G4aM0cSYY1wxbEwMJhmzFFOIKcfUYJowFzC3MYOY91gsloY1xjpjA7Cx2FTsCuwm7G5sI7YD24sdwI7hcDg1nDnOHReC4+BycIW4nbgjuLO4Ptwg7iNeDq+Dt8P74ePwQvw6fDn+MP4Mvg8/hB8nKBIMCa6EEAKPsJxQQjhIaCNcJwwSxolKRGOiOzGCmEpcS6wgNhAvEB8R38rJyenJucgtkBPI5ctVyB2TuyTXL/eJpEwyI7FI8SQJaTOpltRBuk96SyaTjche5DhyDnkzuY58nvyE/FGeIm8lz5bnya+Rr5Jvlu+Tf6VAUDBUYCosVshTKFc4oXBdYUSRoGikyFLkKK5WrFI8pXhXcUyJomSrFKKUobRJ6bDSZaXnyjhlI2VfZZ5ygfIB5fPKAxQURZ/ConAp6ykHKRcog1Qs1ZjKpqZSi6lHqT3UURVlFQeVKJVlKlUqp1WkNBTNiMampdNKaMdpd2if52jNYc7hz9k4p2FO35wPqhqqXqp81SLVRtXbqp/V6Gq+amlqW9Va1B6ro9XN1BeoL1Xfo35BfUSDquGmwdUo0jiu8UAT1jTTDNNcoXlA85rmmJa2lr+WSGun1nmtEW2atpd2qnaZ9hntYR2KjoeOQKdM56zOC7oKnUlPp1fQu+ijupq6AboS3f26PbrjesZ6kXrr9Br1HusT9Rn6Sfpl+p36owY6BvMMVhrUGzwwJBgyDFMMdxh2G34wMjaKNtpg1GL03FjVmG2cZ1xv/MiEbOJpkmVSbXLLFGvKME0z3W16www2czRLMasyu24OmzuZC8x3m/daYCxcLIQW1RZ3LUmWTMtcy3rLfiuaVbDVOqsWq1fWBtZx1lutu62/2TjapNsctHloq2wbaLvOts32jZ2ZHdeuyu6WPdnez36Nfav9awdzB77DHod7jhTHeY4bHDsdvzo5O4mdGpyGnQ2cE5x3Od9lUBmhjE2MSy4YF2+XNS7tLp9cnVxzXI+7/uVm6Zbmdtjt+Vzjufy5B+cOuOu5c9z3u0s96B4JHvs8pJ66nhzPas+nXvpePK8aryGmKTOVeYT5ytvGW+zd5P2B5cpaxerwQfn4+xT59Pgq+0b6Vvo+8dPzS/ar9xv1d/Rf4d8RgAkICtgacJetxeay69ijgc6BqwK7gkhB4UGVQU+DzYLFwW3z4HmB87bNezTfcL5wfksICGGHbAt5HGocmhX66wLsgtAFVQuehdmGrQzrDqeELwk/HP4+wjuiJOJhpEmkJLIzSiEqPqou6kO0T3RptDTGOmZVzNVY9VhBbGscLi4qriZubKHvwu0LB+Md4wvj7ywyXrRs0eXF6ovTF59eorCEs+REAiYhOuFwwhdOCKeaM5bITtyVOMplcXdwX/K8eGW8Yb47v5Q/lOSeVJr0PNk9eVvycIpnSnnKiIAlqBS8Tg1I3Zv6IS0krTZtIj06vTEDn5GQcUqoLEwTdmVqZy7L7BWZiwpF0izXrO1Zo+IgcU02lL0ouzWHigxG1yQmkh8k/bkeuVW5H5dGLT2xTGmZcNm15WbLNy4fyvPL+3kFegV3RedK3ZVrV/avYq7avxpanbi6c43+moI1g/n++YfWEtemrf1tnc260nXv1kevbyvQKsgvGPjB/4f6QvlCceHdDW4b9v6I/lHwY89G+407N34r4hVdKbYpLi/+som76cpPtj9V/DSxOWlzT4lTyZ4t2C3CLXe2em49VKpUmlc6sG3etuYyellR2bvtS7ZfLnco37uDuEOyQ1oRXNG602Dnlp1fKlMqb1d5VzXu0ty1cdeH3bzdfXu89jTs1dpbvPfzPsG+e/v99zdXG1WXH8AeyD3w7GDUwe6fGT/X1ajXFNd8rRXWSg+FHeqqc66rO6x5uKQerpfUDx+JP3LjqM/R1gbLhv2NtMbiY+CY5NiLXxJ+uXM86HjnCcaJhpOGJ3c1UZqKmqHm5c2jLSkt0tbY1t5Tgac629zamn61+rW2Xbe96rTK6ZIzxDMFZybO5p0d6xB1jJxLPjfQuaTz4fmY87e6FnT1XAi6cOmi38Xz3czus5fcL7Vfdr186grjSstVp6vN1xyvNf3m+FtTj1NP83Xn6603XG609c7tPdPn2Xfups/Ni7fYt67enn+7907knXt34+9K7/HuPb+ffv/1g9wH4w/zH2EeFT1WfFz+RPNJ9e+mvzdKnaSn+336rz0Nf/pwgDvw8o/sP74MFjwjPysf0hmqe273vH3Yb/jGi4UvBl+KXo6PFP6p9OeuVyavTv7l9de10ZjRwdfi1xNvNr1Ve1v7zuFd51jo2JP3Ge/HPxR9VPt46BPjU/fn6M9D40u/4L5UfDX92vYt6NujiYyJCRFHzJkaBVCIwklJALypBYAcCwDlBjI/LJyep6cEmv4GmCLwn3h65p4SJwAaEDM5FrE6ADiGqFE+khvRyZEowgvA9vYynZl9p+b0ScEiXyz7fCbp/rZF+eAfMj3Df9f3Py2YzOoA/mn/BYLIBz4QpyMXAAAAimVYSWZNTQAqAAAACAAEARoABQAAAAEAAAA+ARsABQAAAAEAAABGASgAAwAAAAEAAgAAh2kABAAAAAEAAABOAAAAAAAAAJAAAAABAAAAkAAAAAEAA5KGAAcAAAASAAAAeKACAAQAAAABAAAA+qADAAQAAAABAAAA/gAAAABBU0NJSQAAAFNjcmVlbnNob3SVCzOVAAAACXBIWXMAABYlAAAWJQFJUiTwAAAB1mlUWHRYTUw6Y29tLmFkb2JlLnhtcAAAAAAAPHg6eG1wbWV0YSB4bWxuczp4PSJhZG9iZTpuczptZXRhLyIgeDp4bXB0az0iWE1QIENvcmUgNi4wLjAiPgogICA8cmRmOlJERiB4bWxuczpyZGY9Imh0dHA6Ly93d3cudzMub3JnLzE5OTkvMDIvMjItcmRmLXN5bnRheC1ucyMiPgogICAgICA8cmRmOkRlc2NyaXB0aW9uIHJkZjphYm91dD0iIgogICAgICAgICAgICB4bWxuczpleGlmPSJodHRwOi8vbnMuYWRvYmUuY29tL2V4aWYvMS4wLyI+CiAgICAgICAgIDxleGlmOlBpeGVsWURpbWVuc2lvbj4yNTQ8L2V4aWY6UGl4ZWxZRGltZW5zaW9uPgogICAgICAgICA8ZXhpZjpQaXhlbFhEaW1lbnNpb24+MjUwPC9leGlmOlBpeGVsWERpbWVuc2lvbj4KICAgICAgICAgPGV4aWY6VXNlckNvbW1lbnQ+U2NyZWVuc2hvdDwvZXhpZjpVc2VyQ29tbWVudD4KICAgICAgPC9yZGY6RGVzY3JpcHRpb24+CiAgIDwvcmRmOlJERj4KPC94OnhtcG1ldGE+Csg9dhoAAAAcaURPVAAAAAIAAAAAAAAAfwAAACgAAAB/AAAAfwAAKXjXO1dMAAApRElEQVR4Aeyd188kx3HAZ3a/+y4HRjHdMVMiT1QgqWAoEpL1IFnkEZDhJxuyIkUSMuAn/weGLMmyZcCADZOileggGHSQBRkiTyQYpWMQc44XmY4XeV/YXXf17E79qmZ3+N2Jko5kzcNud1d1dXd1V1dVd09P+ejGqwZFeuZnD8hffjqd7iiY/0sTc5FBzl4lIoxghg2YwHAFdUQnRFlUH5GEPij6msnRL4tODSsLtKZEWDAYZTjDUB6CNeGxAUfERZnFVAWRsrPQTIkacR1/WFbRBjOINjJIXB77TEgW3H4f/ZLig4HGBw1YCyEWDJaU4FVGAQ86HfR7qWHBGwCPpKswCpjU5mamiSmk5pFsrTxU4303pge9+RpYTk3X4c//xbeLm+94qI6PAmUI+ogV6Z89wrCglBiECCL3mKAj4qLMYMYrIiHo5NIwDD6GoKehGYJeDYzQ6E5YQqO/+TT6vru/l/XToDfnRsP4qDHBBYUmBQeQ13ow0wbE8zRYrKeBOE3ATIImFuuUgDTXGS6gOXOxjENrVDAWnlMO+mdAmgwnSiW9JdSjhPlZFYiMwMswxh0PTGVhPpNtBmdcBEUbsC8L8f68muqSh+Y6wwIzZj5oCMw8aGfZtcYv450phZXOdC/IV9eugTHt0O+mEu0RkmS4PdfCoYN+T5HLqTq84Yq/Ka6//YE6PgqUIegjVqR/DCDT14JySKY7aKdgCHoIuh0Rhx4LQRfeOW1ALc6wEWzJF4IuXJj8TFJNjt/kf2j0NKwmc/SQIQcv6HdelW2T/vxsXWjDPK8hYwLs5J6aOd48L425qHiZoouOSvE0Runy7+s4cUU44ZLRrYLOAly4sejj4BpVU9U3y8RZKcnMOMLedGc9Ggt1nKi0Qs0Q+ozdUiGaWpq81vpVvEY/wTUb9JQfQozmujHVHaxBkzUx/EEk4XS66gOVUxruOBO/YNzxbeDiLDq1wEZHMZdsazVCav4vFM/n5PgfwHS/5Kt/l0z3Mavu+0LQPQ/HxilgYxHqRB3Yru/tEPE9zDjCIeg1YzVg+INIwghBD0HPAyU0emJDaPQiNHoeB14XZRkZ/4NBU4TpnngUGp0HcsJ0Hy82o1Rrj4xSX/3/kE333mvho08Qeqk2F60bfg7nFdJQmcktZ+MaNF6dNw2MVnPc+2kL7hFtjF83YP0Vq1Et4683TXfFb9Rfd5PSumJbhQFrrYiWlUMlOgT91PCn4aMXbT66XyAAzZ7blnM1qaN+naJrfHRlSImtNslM/90swiYYfXTPR/ZhXQkJoO4SLRlv4bEBoVuEhhkIVQJ+kbOjJ+M2XPHt5KM/CLwqWI589BB0xxsvKI1OcPh1VDsgBD0xJQS9VSfpaEm8aoyxRkI9ygzREHTwZUzQz9YGJQTdsCNHQqM3dntqJlGDp8TQ6DVnEHBMqiGwFCXNmk1mLqyzvFrACHfbhNkQ9DZklAq0pkbXBtm2IL8LmvomGKvlYXh35/Ax3XEiUprGdnOrLTcbXdrr6cmvScND8pAfEv+dme50V6RerDTDUkk8fowA1GwcgWz44avRWeMUnsQIlYucgYPEmC6OXFvUCAeEspGHjBSgjzcyDBNA03cij+3atkwiJsWCoKuGh4Wgh6AfZj66G9gh6I4hGvXCTLn3sBD0EPSJgr73juHJuN5MPbomyV2NMCkA08uYLgnfrrpbAo1V2yG4uSiLAuzxE0uwBUbhYNgRSBXWFVuBmdVdSpvPiIaas+0Jjxq9WUVtG/lRNhF9iRpHldvaZs4SNFeAlF4jBBMLg4T1zVm0KanRyCNA5kPYF2W25UjPI1qDx/QTX3AxL7EkGmYVvq0/fXnOFRmBB9hazmloW8N6Iwz965tpqmUiMh61s8tFS0fVKDZc8bfjV91D0Gse2UAIuuVHjkFoOVidf4qxG4Ke+BaCPhxKDY1Qpw8DozgGV2KfBZrYZBg1HcMmu0RC0Bss4WEgo5lD0IvQ6MPhAou2MYBC0IUlOjmRH2G6G9Y0xo73POhihemu7Cr3bLoyj7BBn2+vKcLBhNqEuQ3Ggc3yvDtkFDoEo8qjgkKhqWDqyFGLd9ruDYMPJDSYz9zNVhWgv1pUyqTJEjImHKub0dQspi/PsKUmBBspdYIp2vt3iFt/PWVv7SgUyM5guK7BKIA8o6Th/6R+F7CBNUggAUHJZ/tJUoYP2pxT2PeGWQlKms5aaWwJjug7PGPxGIKWPndm+q4erDJ9cimS9zp2FquPfvHlE3z0EPRRT7n/EHTHkBSlQE8KN3JRaizQCLMFhaAnfoSg50HhBxDjDAuyTpWc8UOjC2eUN5mtodHf2Bq9oOnuOt+LTR4Qwx8KjrFQOOOLqGGvieZKJjOhgKbproitJq2piJsZMU3Sn8v1AMxMp1J/wBr5cubqx+Ahj0CN6Y48FWy86d64nAF89WYkRdYWTUhqCy5d6FjEBLO4pprYKkM1rKY3GV4l0lIU34AzloSQhJk80AN0uTAdISnKSroJjCAr2S6fRWyc3c+Fyo8puE7NgX4LkOPFm+4UQ39xRmeR3hPXmV5WF3jxZenOuNvG3Bk3Mt1D0BOvOOgZziAdlSHoVoaMQNVDbgEBZWkTGcLcoA9YCHry10PQq/FDmeUM2hBYi2gGX2s+YBo80ks4odHBKAmGoBtLMTT6cHxQUMJ0TxOH820oN3aOISRMdxlO1iJ3djeBDEtG99qtJOXHkRgly//rxnRnpY15mwDUYBRE75bQRTJ4hriN8OpqgTDfwQg6NQcFwG9ZsG1sl5TNeMMSEIThY/BYWIKz/iP80T/bw/DB+OgjWs1/K+hdXMLQdT55Oa0XKpJvmSZ8dPrJqWXNIheSwi2uBj7q7I6X9udR3px10vvEpYnPuqeyeItqg8eYQNsOwpgqo7qS3jYOOH7MGHQ0eGy3hE8u9DuLtJ86i9VHv+jL3yyuv/UQfXQhXD9u8LJBZiCjLyRvCHoIej2GRoEQdHNmvTGxYos3BH00aMy/n2UUyHnKzKaCAiAnsAqk0y1nZKVchZiPYYGaidBlpBZnuKFtYEp6092RRFTrLomh0d+EGn3vpquyVPBkXGNmwZBpnAGHcJiB7GSNTpEHkTzDfW9umUHeQgV4pCdhI3z6AlBGI4xhn68xQeTc1Y/ZrrLylUYXEF2QX8ukADcFHdtwMDEduXTtsaZwO01SB1j12feKfpVTYDv3qyl8YFbDVT4tG93O+VHQ7EPEBOG+fQs70ueZFDqF7UAhvmyRMvaIJWhogk3DFeEblIN525Z5+IUe1iesMZa0XlKX0dPhO8IpkcrAb42V6JwO6mtuphUaaHc5rdtpUmY5pfEuVt0//cWvF9fdcp+gmKcMQVd+ULgZFgzGQ9CFH+SbhhshIgofoUXGi0xFIQQ98SoEXbRSyzBpzMI6/CiwbhK2wuwHKOIh6CHoOqKq0GGv0fcMTXcemDHTtW8RBryAjODANm3IGhKaItpMEdrGFchxSR094/MIFEUNkRXXVX9ErPoH0LbLtpNmmSWQYqDRgLUlYOJiu73pzsb13VYPLELjh3ecebtvj5qxDz+9x9Rq02O76vjWl/RFpypR+Yhbld0YqLPngGcH+TrAaUlBVupFMYfV85VLrI91yrFL6kLee+rKOiyBo1fp1cfTWAEeuNX5OZjyraY77ukX+jBkJFo/ncZrzVpnfj1GMnRgdvMCDK6kZ8LU6FhlzzQQL6f0pZZPf/5rxXU3jzHdQ9AzS6sfjEoOSAEyHoIuVzYp38gbTa1CYGlOIG4IehpX2OoMQR+OHqupOf/b4WXxBKa4fuCZnAByQAoO4yHoIehm3KRIaPQRRyB9KnY1cBQw/zRhBQASEjO4jFg8gSguZJlZqjCAFGwBMh6CHoLuB89hL+i7h19TLXpzvu4LilMAKFA2LKQWKGwo1QusjwMV1KUkLYs4PjzJ38p4EHqJs50Me5oTnbgGoktAlc0E57bQLA+QKddRaZZT2rr+Yt2KEYwtW/fXiBvvfLEOS+DaW3fU8ae3vlKHfWAK9Lk67PEcG4WRNYptS+o3NGcen2Ras9LW/52nL69p/PEHj6/DEjjzJPVXVyxSP7l3wG4jzs1ovI875IVG378pI4nDR2ufmjJKTP8dHG6R5A4+2cy75gXGrTF+GqqE313hqX9UTmtbMsz479rmP/jsXxbX3XSvoJinDEE3/NAIBqQkUrgZ1gzDEHu/AWxJwCAPQS+KEHSZEELQGxIDOQmNnrgTGr0oQqOrmBzWGt3YRqnOAyRQsKU5Pq5NPMSQ08w86OFAh1iAy4YGGI3e0jK3o2NMX7748eIe65bd8bhuof1k0/OmIht/+VId3/XCgTosgQGsR5qm3mw1mdBnNr0ZY7v72P5agS0zyfX2t62qM//5J9fWYQmcc/qKOr4K24p9dwKwP6em+7zbeqMp791AjgM2zfOA8Slo5lw5xGmuU4MLHl2iN7TpTkZKw0PQhQv6hKAXRQh6mhDwAYfXpY8egi5CDVWvMp5DIegh6DIQQtCdYBxU1NnnNNkc6KDITkSGPNOEDUFPvnaY7sWvbbrvuus7eYgN5nHc0W3pTBycHgAJQDBjcffBLWinKUkJGZhXWUAcGETNLyF3stICFxhDlYY5mAKpdPSskFogJwsLSXVmpbnP5DR6BztNvvNfOaBHW7du0S20H2/SLTMp9/aH1Ed/ZLPiCeyF5/UbfLMzSk9ghuXoG3+uoH1XgnwUqnjQbl74sHL1IiAVxbvO1mOv3nQ/64w1Ne7Kpbpq3QdvBKGP7TV/PNZ8shlHkyXfpNpzfGc8JNBfF5h5Sw14XED1eP4NuAJbh0V3cUaXn09/4a+K68cdgQ1Br3lkAs0OZUoIOl9XDkGXfXQzfMyFEiHoI95AhiZpjQpVEUOjJ+3iDlGERi+K0OgTNfo/D0133UppvDE1EshX+efNQCqSVSbOeEaYE9hoBGaEeVhRARAng5rVAp4AGZ2sjA0ZZqkAmtFvuZiMMD9Neo6QKsPOdDfmupbr6zHjzModL2sf3vnQy3Xx11y/rQ5L4OEn9I213W7rrQeavik0yRlufqJK2+a70PS9iZgqFtweXLka/kpCW3+abqF97sLjTMYz1+rW2zK89dafs3zsonHL1cLPtBZ1FNcp6uRiKYwF+6bQTeM2Wc5DZAhN4059Cg0vqBAiiJeL9G2+i770jeL6cRdP7LorBJ0dNgrrUB2laAeHoKe5c8Jgrbil3AtBT7zySmkC70LQR7JG1eyZV+NIQAdaTmZU5dXk8BFmqWCaMQQ9BL0xXtyACY2eOMQJTRgWpnuY7l5wwnRPHHktTffdd38vq6p+T/07fymjcRl9j0B7dnCjhzHtcp1VI3q/x17phKmRDZVyMUOU3iZkvYDH5BzWajRArQnwzSb5aZK/7YorU2UTcRoSfOwXdotrZp8e3Xx6h90au+cZ9b1veVB99Bvu3Gma9tJz+lYab1oRJG7jdPCGmiHgIr6v21bk+WFLfyUXu2aA23OWLLNO9Nrj9G2tj5yjPrlUa91RCluE+mPpIdd+Dbbe3nqsbk8J8Fjs2y91C572NhrWOJPFj45j306IjBVmN25LNhu+fC4EPvpgSn30DZeme91vux/1qIJlCHqDJ+MTQtDH8yWlhqCPY00IulXgwiOj4pVBxnQRPMx4odGLIjR6UYRGT1bkQjT6nnt/kO2P/ryeiOIHBES+oMwkah7O5tbShsCmHJ0O7wRvM3lA3pu3tHkcDLnShGBiNrLAor27YhbgyBBtVi6nzaynKdYw52CKEa+HO8algO2b99btufa25+qwBK77lZrrjzy7r4bt32ffXpvDiTfeIS8ZDFsxsVbExjOvMemCiFl/SUS6eHPLX5pYlVH9cou3a3fXimmY06uXWyAvxOCV0TTjpYRTjlFz/TPvOYpFF+edpifvjl5pT+UVuOu+ra85CCkjuSCa4eAVFVmFp9UimqQOSGNKL8TccPm3Jnw2OQRducmQG9Mh6Hl4kUN1OAS9ZgUCqm1C0MGWsUE3jXHLwqoel1t57AAp6gS4iTBMcXgh6MIXx5Qhq0LQh4wwfzoIDwtB33v/Nbn3+j2Y7n6Jkg0Y39cZw2xtazszrMRKsvniYoaOJ1pa59346K2CzvpKmKY2ijLC28jjEsgT0nNoIF/MY+VY0GZm1c5/aa81p2dwEQIFip8VEhoPbdaV9f+63d739ssHdwtKfl7Gnex8XyYD2Tf+s1cThLmiytZVKfLbNpA7vGw+4RrT3cFoutJ0Jz9yqeC/Wd5JQO56cOV+Cp9xEhrHH6+r85+/8NhMdvTzoXNWj4LFSUeqiS+JfeP2jOdHlVmZbD7TJUAqMLpHDAseG6fkBJJIaMJgSuu44Ypkut/+QMbhTxmCTnYg7PswBD0xxzOl4lcIOsZNHVRBDEGvmTJhAJkpLSFzxuOsWNOZEIAG4FgNjZ74FRq9CI0+Tm7Gy2TGDNPd6rww3WW3hac+wnTPgkIlZZSXWgEZ77U03fc98C+V6Pb04gm/bcBtCg/j0DZ1hg8hlbZR9VUF1qQpqeKH2EFiTEQyq0LXX2rwlGroA4ag5h2FPBBxQ2+EP/ynmbYfWzEC3vaCnki77WG9/EFgz7ygp9z4uWK+SSV421/WfrrvKc0jsK3bdZ3lAC5DNJ/mTXjcBvVtsb6xUOXTMssDjf6j70OejGvbXgM5s8Qi6WY82qFU8MIKbh1OuzvT33KCnib74seOYXHFR9+uPvraIxUvl4374dvuZ6HINhYrIQx2TDNXKo1R5JF6kMcL8tFD0IVtYx4IdoYi7oWDuUPQ7SAMQU/88EoJQhuCnqTHDxLLFNo1FLUUhlAKxAgmYAg6Ak0apGnouZwh6CHoMiSojA8LQd8/3F4b9HW7pzGQseLca9grznYaDnyaFpJEAUiiN8Qa/fl4ld4u6GTliM7w30kw28PtFwqvo2AnhwQkDVbfTD4Jr4NtnF37ladC/4EndPvruxu3SFL9PPCkbpvt3qsvriwCPUHu9bXdvFFGYDMzysc+PjvsFQr5b/iRaLwWprvUZfT4E4B2XGhbRvijf/LVdecIJf8TTxJ49x7N+Olpe4LupBN1S+pPP3q0ofmR9fqizIlrFC/ThzvWEAVQYct+I4LOBTFsr118+V+P314LQUfvIGgEO6WbuMpTYw85BB1MTMEQ9MQDP9O+FqZ7CHqWSjPaKKRGg7WoCuYRYiYegm742xYJQQ9Bx/iA5CA1TPeiCNNdJlkMChcM0z0xZCGm+77hSy38bLJnLLVg371Nlbw6x/oqan0xmdXgtSA4NvMwsey67bVJJo8n4hpAbdyD75qGkM+pcUfDjDZk8/d8dRdrnXe6t8buvF+PrH7r2qe0rBR6CNtt+/bpFlqXJlrCI0/8XWRdvgHXwmOzPeXayS0pU8EcQcMJZN8yPYVNvzuYWbHyMFOUawzK8+MslVhTGvQ0PI1+EYS1J+q22ecutNtrH8YR2BPbjsDaO0HqcnNAi27yYFL9kV4RUyJ+nHGPtMPLIS/7RnHduIsnQtBt/9QxJwAh6MIZI301q9JI1rALhaCPmezALzNRIb1io/I1BN0NrBx1Qhoa3TIpNPqbUaPfWV333DfbazqTVIKjA2XQMNV1ljcTkiNhZnaDqLRzCPlopgqMs5+h50gY7Ztgv0lB706rqS7V6OAihN2vWNvufpjuX//RY6bW9z6gl0bs2aMn3HiHW6ZP85xH3AQIvpq3BU1JiR/wthrn/d0kabKyb2Ais1yDn6uETBmo46V9K89T0jhfV/aLfakHakS2k5dVCMK6k5bVeJ/7uL0b/sNvP6KGnXiU3V7jp50GtnvrPD7QGKtgCWEc35kG+tMdLZX96rqYDnz0i74yyXQPQa8ZZgJ+wDOuY7UIQU9c44A0TBxjtsL8D0G3/AlBHw4eMoIzoRtbosJNUmh0w47Q6IkdbzqNvucXV1VS0deV3nQhlR0ZiDVMPXOhhJoTtOxyds76QAPpKkg8t+LcwcGDxuIECTlB7yPOE2PM4sN+IoGlZL7W6psyg7K24QUUoX/XAy/UxVz902fqsAQefkxN9717tS+86U6+cuLLxMg7Q91FOA+ivoLloiajKQ9leV75OIkYLe6OlnF3J9WE2WzYjAM7VnlZCTeIlrhV93Xrltc0v/CJE+qwBD5y7pF1/ISjdXVeEnu4eKLQA4zmwos68zDg+YHqp7GEEYRglRUJHIAJyL4oabpfmj7JdNt9vgpFGYLe4ElO8J1DPvPGFnRFzheCbs1Rz90QdBFS5UoIuvAiNLr5oEIeHphZOKtXMABzwoQfKkunwl3UEDDlQRP5SdHHSSQEPQS9Gg8YQCHoaXHVTXZhuqdhApXoDw2F6T7BdN992z9V8zvudecWBWfjcWHw3Cz5e1yaKDR9PZ6Jt5yMa3xcHsrMryPQ9+MesinLRTpTsK8SbArbWgN86mfGXfL4+Fa9T/1Xj6vfLeQ3PaKfRrr1Pj0lJ7Dtz+klEjMz6vx57ch5MI14yaoPgAgqfBgyWpvavYFpE4xGhy/jX9pgnbkQKtR48m7Qs/tTtm8mV6zExfcd3BMv9FmXhfrol37yRMlaPx96h77NdvxR1kefx4UeBU9ZMpwokQe+m+qCUqDPjuJ6V4KRA4aeEMDWKn30DZN89BB04VrzCUFv8iQEvShC0GVcYJb3wyQ0emh0GROh0a1k/PY0+q3/UFkIc7ql0zAJTd28uQggzBBj0ksHA+ZNaxzUArE0b7SY7jRdciZUiyaPwGg+GrMVeUzBKdJ1d4xNLVZTvr9UP9Oz4yl799u1N2yuSf3k9u11WAKPPK24B2CeC2wOd757/gh8/GMb0HBnxmdqTTX8cZg0i832puts3gvn6fXn1Vz3pjvvYbdFu3bCXC8Rljw063kybrHbXjt5nZ6Mu/xTJ5niPvhO/UTTMe6llt5+1l9HmrO6k7WOOiNoCkoRjn3f730a754GTPdOV92LS9LJuI3jXmrZHYLueZ/jIehNtoSgp330EPQ0MKC13SQfGj2xJzR60mCh0c0MGho9sSNMdzMmxkSsPReme5juB2m6jxlTdZIdXNTiJlzjDwPIpp5NBeOshpePGnvIZosBPkqmQvqwLAQ2yUc39BJeh/cHOpNkdk5ruROXPt75oN0m+48b1Ue//e7nc9VGPztxd3uBLboMx/Yd3btR3nH/3DMWOAXd+8bM3wYjng+zPK7AN94gA/+7bptyerF21LJpDUtZS3ARJkgUs/N2xMzgzs39B7RfhMa87kymO94lpXr8xRPHHqd+7Yb363aaYH/4HH177fTj9KiswFYt1kHSNfW1bTE+ekuH8m1QHtWWskzckk+drQm/ho8uxUx6tICMwR5h2GdHNtttdkEiBD0xDrzybGScgifpIegh6KHRhxJCbRYandPGq4c5sYRGl50ZnZH9WDr8NPptY7bXvMo1Y0Abl5OpxRk2eVIE2Tx5H6+zOrOP2zaN7bU6k2zlIZKCpE9Bn1qkW2aSo7tE4/uxuiqwJ/C54pvuVXP9Fw+9JOD6uRen4XZs11NygnAAJr/72lS6Cw6VRrAmPCbQwQkxAXNVnOj2xFmCgCE8Ncg8Y8PoX9MXNMMkI/CWrrAXN5x8on6u+B2nWLN4HS554HcAXsQ990L+iR36aat7ntD78AW2Z5fa9bwf0LsQy1ZOC3p+TsPnmSRh/ckrKkD6Pf90veNdEt9/hpr1xxyj5v9it83XGIQ1RRvoYQ+QLqZgtZruIFN2lMeVRh/z9truEPSaZSHoNSvGByDAIehFEYI+bphAS0GhZEwfr7OHRq9ZMS4QGr0oQqMnA2ohGn3PL/4xy9mAJ+O87ctRRttX0jHL029jFgkPYLt7E8Xj1nEn6KTfWOmtMyWTB5NKTvbxIa5/M2weK+FbnlfzUNBvuUtX0H90g35O6TF3Mm7vfl32nZvDsm+iMYCZZuxngdGelgKHj/X1RqnVv/8kMXlCjUszWHKqg2LpVbGJ024Cg5Hod/at0OBnkY5wFzf83nr9UunFF9hrltefrGYyvwC7+fkDVdWGvzc/qC8H/dstOwzsuW3ab9wp8W+5dbFr463uY45WU/h956wx9P/kQ/oCzBmnaVuWL9HV+JzBsBF8M9QSr3D5hjHVE167nKCAUt2QDV/5erHx1jGmewi6cj4EXXiBAaSsGYYwYEPQixD0xgCR4aODpH2mQubQ6IlryjdwJgdDoxdFaPQ0FEKjD0VjgqyE6e6nDomHRn9Dmu5777gy9+ygh7fXfF8z7n10M1YmSJQbP16jk7whd4ga3ftjJXxvVn/WvUG27SW9T/3uJ+2lEdfd9VxdtZ/druE9L6pPKAj0yv2WDg/bWX89ZWTF6pJSACYykyXMfW2Jd+FsLl6qPuNRq9WHEzz6k/yMk8C8nyhp4x5esukOrhWz+Mz2Ovi7QudC3Jn+qfOtj34CtrXIux07rI9+0690S/Pv/2+rqd4zz+qW5uwMTs25ocltxXle+JiorcDW27vWWx/9zz61ri7v3LfpVtuqpZbHpjsnDnDpdgWaa7ZSKYTVhQ4DZt++o2Vv+PLXiuvH+egh6MrCEPQQdBkNIejCBcxAErWPmzYJ1ImrMVMBxBzp/ia7PrzQVffQ6EURGr0oQqOrOJX77rm6krN5Nd29LBsTAtsBmQzMtNbTQJBmQy8RAUhrJqGGoKvgcyvJZkrbR/4zScv0s0m01l/YYk9V/ftNum128316B7vQf/TZvXUxO3eqic8LIwSBljZNdYH5dkta/Xim14CWydMt1C1eohdiHHecXqzwMVykIGTfulZPpK1epia+wOZw91mPfStA9H1vXs3ieXf32yxeRV2JY6JCYu0Ramae4sz6I2Ayd3Dxx9adOjaFxo0Par9dfYua8QJ7dou6UjMH6EjZUcZtrR4u/RAaq+DqvBvbgQK77BNr5S8/556lZv1KuEoZyKJdP/GFFI4J7zYRNiyy/qPp3oHpftEk0z0EveZdEYIegi6jIQRduIBZXaJp9Sb/5Z/WgzZAc9oLFBRJQqHRExNCo4dGt2IhsdDoiQlhuhdFmO5FEaa7ThDl/vu+lxXqYAA/SN2vChNavO/8Md5t7RS1liIhqG1ubWSkCRlL+GmCZz6jjCOMmQYUX99pQX2fqSie263+9X2P6lFKofH9nz2dScnP/Y/Y7bVduzRfH2+N+WrQSW8ca2U7wQ8pb7I/hoZlRPmpHh41lZTly9RHP/1UfQPrs79vLz88D9tCa1ZpHqHRx14Zt9AEVqDveSVUj7c9CI05PQZcOlgXl61PdywTFuFjFUuwzrJ1l9KTatzwuPrh39+k/rrAtm7Tfpo5gHy8hSLhsW0DXCoiNFat0XWE887RY64C+/LHT5C//Jx7hsJWYn1EgBCZFHN96KKZmOTh+EjxyWMiKTMsBnWm9C26iT56CPqIzSHowokQ9BD0LBGh0ZMwhEY3lzyGRi+Kw1+jP/TDyn7qw8A1b1klEwJbKX1nivFubpPNWmXJ7NOENpNE9WsyeFpMd54Cy3lwicTu3WhLAj65Q09L3fPk7rqIXz6iF0hI4i24UOKFHfqJJIHxTaipaTV3Ozh1J3hcJPHtNBdAeDON7pKySggKWX2Ax3VQQViOrbKzztA3wb560TrNn0LvwWeBj1yjZl9GguneuGcd22YcB4NZmMiJSG9W+T8/A5cwwQ68onF+ekrKZlNXwHTftsfsVRU3PKUn5a65U814obFtu9Lnycd+T+skeP2eMnIwR4YXxeojtH/PO1vNc8n3pY/BdMelFCvc22vwUJLXavuQY4SN9uOl4fpJBYaPeQeiq2/bXZLeXhv72eT9Iegj3oWgCydC0EPQZRxwJpd4aPTJs7WfoUOjh0YXmfmdaPRXHvvXbLcMcDIuvQ0v9amfQU9Nsx5WVAVhQHMO5jk1QyYEO9MLQF2QCzS+lAlTfmqxmleSrYSp9/gzdiX2p5v0coKfbtpel/LwU2rGS+KBV7TdvG9MYLS0WS9ekCB4qSbVX/61JqHZbQA/xqCCBunZegzI75RjCU5nnX66rrpf9kk9zSWE37f+yJr+sUeo2ZcTZ7XOXJgTGE+TDeDC+cl/Dub6zKya0kJj9oDG50FDYF3Y7ivRn1v3aL8I3g1Pw3S/w7pYk0x3jmGhwbWmAawYgdF0P7/FdF9/mrpHK5fo6UuhgQ2KNHZsH1LQGeYYExptprsZkDTdL/9msfH2+yW7ecoQdOVHCHriRQh6CLqIRGj0tIeJ10FDozfdudDoodGz+gzTPbEhTPf0VRV1CWVghOmexaP+eV2Y7t7voU9k/Iu6WcMA/LRu175ZxaOtbT76fY/ZU20/uP7ZupT/vWlrHX5+m76RJonlIi2Pb08JjLfR8HVZ9WgFKz3wx0r3LV1+oXXFcuvTLZnWN/N46YLx6xN5nrjy6wgr4KOftVbfXvujDxyXqzb6eQcuNTx6pfXReWLMFJbL1tZye6o3b7euKMBz2GqT8ufnFNeMiQTjqstS+uj+ZNwT6pf/YJNunQr9bdvVfzcn48i4hMey/Vh93fnovAX2it+yj+6ZR8aGoKfLDULQjbCJkIagCxf0WbBGD0GvmBYaPTR6wzrBsrhXSm9Ijb7/4Wsqe8zcGWe3M3i/WQ/baSJGA9xdTnOuj9N0gkdYw0fHvgI3IrpTakoLjc60xhf57bXFagrf+6g33TdL9vz8mKa7+2RSF/RpZkvGDk7e8a42NWYr+n1cYuDvY1uBSxcueJs9cXUmLopYDRN8Die4pASwu+g5c3QJ6nj8kWqSn3fKyqpyw9/jjtLTcMscHw0i3BBJ5wkvahtuuwleD0LkzXq+DGP2oFI+7cGk3XHicDPu8hP6Nzyi26ffu2WnJNXPlq16Um7G3AVne4p1PhhBvxQn487B9lrjZBxEyG+vcQu2bXstSU3dLh8wMrQQjR6CriwMQVde5FAIeuH30UPQ08ig1g6NnjQUP5yY+BMaPY0RWoTQ/DKxhEYXLvAJjV6E6Z5M5DDdizDd08SwINP9we83fHRj/yc63OIx57UFhll54RrdzVRwn4yP3uUc73109ddlDizho9//+C5Jqp9/2bilDv/Pzdvq8Hbvo6O8xvYafMZUk5qGeYtIUrHesNQdi1x3om55/eEH3lLTkMD5Z+hFg0eu0osP5umUJ7x5CDeKyrR4GcESXMPlL4BcjK2rLi57ECL20k32Rmo1btkYYBu0z1tFhAgqxvGRQai/XyDrwCfl1uTmF3TLTGjceL/65d+5Ub+JJ7DNW3TrbQbrJaiuoKUq6qBre3vtAncE9lJcPHE2tilXLLbjkc307MkVGP2wYlqlIbSRMMpl6l90dbxcko7AXj/uCOz+EPSaed0Q9BD0NBq46h6CPppzQqPXE0UOQFOERrcWn/CHq92h0RNDflsafd+93832waCvbxX5u6uM6eGObtK4YCf6Swvsm1DMZSy9LCujH376V9K45TUF81NgJczkR56wb6Vd83M13f/7Fn17bdsWe6qqxOIZT8Jl+oCl0iQpP4vgMkjCihVqwp1w1NIKafj7blxU8Jn3HmNgZ56qb0KtWKlHR3jpR85Ar0c9iIoW3majizWwJ01Td5L/2hYhQvM8HQes6A5/6c6U/tJ6YBr6xoZNSBw/7i3JNBKUSqkN3fycmuOCcMO9epf7ldepKyYwmu6zeEEH3pagmUFnx2ZRrFmj/G9odNy/d/apum253I0D820uTP5V4eA5Bb0Cjv9FFkEAp8SnrfNsyKb7mM8mh6DXPEqXTyo3Q9ATX0LQixD0oXxwZgmNHhpdhkVo9MQE3n51OGj03XddXclqT6/JbdRrKNTyx5M8OVmVoEBz0rgfQ5OzQ0ZuJFSpzuzjyyRTS6zd2sF9aY8/Zk33H27Uk3H/eZOa7ltbTPeGZYoGIFgc4czzC87WL2x+dP3RhhXnnaam3kk4JSdIy5eryW9WwsezpqLbYvaZVWVW2NRIIrbPXhPTnVcr+7LVIk9lm4it2ZTCtjjT/ed3611/V/7Mmu7PPqtm/izugsN9nlU5qNdrYrrjpSQpYMAvubpxbBqKnQz/zcDkRymq7SZjupcw3S+eZLqHoIOXMN1D0BNfDtV0D0E/7AT9/wEAAP//kmc4mwAAKYBJREFU7Z37813VddjPufd+v3oiJDDCICHAIBvJDpNQcGKawcZOnKadEYakGc902sy00wbiuIn9S/6A/tK8m8506ge2SV9J+pg2jknsJDwc0yKeIg5gbINBX0kg8RCSkIT0/X7vvd1rn3vO+qx17j36gh2Psdb54d79XHuftdfaa6299t6nPLbnjnEhz/B0/pOfcZXSxBkoy5LRojBREzHlDMwW/FZCrjsejQyMsqfwB6t7Jq+3dtDEn3n6WBOWwH+7Z38T/5P7Djbh5w+caMISKPsKv7TgDVL4LpvOX2NgXLtjUxP/wLvf1oQlcM07zmniWzfNN2EJrFun/e/30fh01FR1/VgA4hidZBhFJkF9Z0no9dB2r2+K9+Y0XrYQpEXH4yEjGpaQGVITseUGmnfgxZMm797HXmnin/urF5qwBPbt07KLS4q8UrtelQd+RstaTjI3bpyryqTfa3ec24QlcOtPb23iOy7X8Vw3D7ylEuPT2v/C0XEDQALAd8lxd3mWzxJ8ACl7Sks3fex3irsfeBy5VbAMRlecBKMHows1/HAy+iNfyJPD2Eh0zhfKCBIyM36Kl5iRUkQLW0Gh6RJqgW8l5PJeEo0wM55ehtRIpU8u6Qz69WeO5Pr1z5cePFQHi7/ec7gJv3jo9SYsAXbfd9L0BdLgoi3rDYxd11/UxHe97+ImLIHtl21o4vOu/8VQ+29UKiQ3lesANJCcBI3H9LcuP+Xfa2hmfC1Cil5fxeKY4w58SBPjIcfGjm2PWgj6m7um4JN2pfWef0mltJS791GV6J/9iwO5av2zb0HLdkv0ukZSMtxYbIS21ZLoH9rSVNzxDh37dU4aj04vN+XGHNsmdRIgHh0M8lY5AG+lqhy3sr+6gXrTr/x2cdfuaRI9GL1BkqVrJTQpYBgHhB2MnpHT4DDjKhi9CEbPlGDoIkUsU9W5hrlSYkj0GjOT/5DoRUh0WVtaiUR/dKK6L3MxbjrjCXkZ1S7FSyzYmLzvgepelLYfr51cmlB4URx4WVU0Sfzb5442eY8+YxfjHsPi3LNYgDt+bLGpI4ES7Y3HVmc2k85Q+3XJNlXHBcbP37hN/vLzj99/SR3M/5dj8Wb0mm17+ZS+23hZ29aWDKgqQjU4pXCNwS/eTKmdk6gCSoIdQz+IGh+jbYMbATJUtdXD73NymnPqKPLKVdrWC4fsWH9tj6run7rTqu57F3SBdRHmHBdypYvss1etN27Sxbi/d5VbjIPqvvOydQIqP2uBD0kYLup4Li8pPqrS+IUa6dVzmkq9AeyaVN0shs7rgvDNH5fFuCfQQBUsjwWjN0gJRg9GF2IIRk9IMDN+iodED4lO6SiMEhI9JHqmg7ZJPkNBhSotFUN1r9DX/Dp1MVT3ogjVfYbqfvyxP8hcNlqhjW5sg0RxtH28tG8I0gewap2zGFfTrCjmGCmKg6+oO+yhp141UP/4q2qrPfWctdGPwhZfXFT7d2RWhw04s/AnOSO6SEY6MW29xEr0W2ijf+BSA/SdV6i9NzpubfThabXpRkvqnhq1Z0UD00TA+IbpTSGx7xSvDEsx4/5y9ThMlOJcJJUqdK/Re5TBwaU2grsu561Sm73EBpSXX9Jxl3L3wUb/9J/ruEveAtxrpzHWpFMpxwVgrolIzrm00d9lx/e2D6nLdMelsNHdOC2d0vE9vTzbRif+6U6TfhgbfV43VOU8rI31V62VpPzc8mu/l2z0J+to818Goze4MAFPvMHosoClKApGL4pgdKWH6SFSjJRgXIVNSPSEmpDoRRESPUn371qif/2/TFT3Uw1TcrZuEicBqhqSxHiX2mfgkLElg3EwejmPSCq290VV4e5+SHe7CYhPfek5+cvPoX3H62D+P013D3YftdRK1GpJdOyeGsO9drFX3T+g7rVfuNGq7ldt39i0MIKrUBKHcK/RpDCaRFN7RoAqOVxVvjTHjGEp1zWGBicwX2Q6Mg9ck4uLaoZImaMnVY09fBIqQso7DZiroca/+KqaNQLjwW+rK/X/7H5ZkprnpYNKI3SvJUJtylQBbXsEd6bkbdig7rVrd1jV/Zd/iqq7qsxrvOp+UlX3U8u2/+xICT+oV9372A3Xm9c+Sf3+QFX5/io1IWar7sHoxHsTNkSdUrlNMhhdEKKMEoxeFMHoDesgQAkuyYxj4g2JnliIi4BA4dQgpNbfxWKcmfyC0ZONHhJ9Kh02iWRsSWQ8GD0xt6q7wehFEaq72Ojfpep+8sk/yjrYaFlt9JGZrTMnNjzqA7Tp2i4MlKZkImNn8FADyeiw06TYXmyFvMvZ6J/+0rNNYwe9jQ77uke7p8OO9QxG1X2ErZUXbtEzydIButc++iG11yVv55Ww0U8rM0vecMZppxHsXSnX+UCiw/RLVYBUiSFKG1FgIyvFMC4pZiQ6xrDXs+VKNR+Lw4eVrgT+I8+8Jn/5uf/bul1VEvYfVrt21UB7cgr4lnIvHVY7/1nY5JJ38rjmsb9j9y5j0PjQrSOsP0df4MeusuP7rz98iTSTn52Xq0Rf6+AvGxtd+1TXbf71NVub0fpwP7YYfU77SPfazb86w70WjN6g3ASC0QUdloHJONTCgtGLIhi9Zp+Q6CHREy2ERK8ZYvL/fZPo3/zv1bTNiydwwUPuDiZ273qbqa5DtRMYPCHkr4iidKDu2Heq+wIuILj74ZcmmKr+br/zuSa+f5+qh5J4Gqpfj+41hJvKkwBVO0kq4ULqQ9JtucSqdrt+cksD6uaf3NqEJfBOnF4bo0+SN8QuLuIHqJdi3Q+Iprug5voqNm5bNyf6oPqa9AT6JHb2fXu/dXX+5WO6o/Hur9sdjC8cUjXfuD5payT4WMJIY2v7SNI16rqnR5hEPbyLYGbTeWoPX/cuO77/4kZ1r73rElXd1cElEIqCO+MWO3bG0Y7y7jWeWOtBVRf4A7jXeqv19NpHfuV3p++MOxmMLnhrPcHoghLLRIahwRwmPdUKRg9GzwxFiVUlgKAgUkKie1bL2Jr9A9zNLmRzfBUbx7ikaoahg9GLt5REf/3p/5VHc4xV9zYjgjicCmRIkXkMp+pD2Ogt+NC3aAp4Rt8H1f2eR6zq/vk/X2g6ubDgVXclWKruXlVqAKTAAKu+kr5mjR64OA93ir3nMr03TMrd+KMXyF9+3rdDw5Kw7SJV9bzGwJtIHeoqYCv5tVy6khqpjOKmqqBxD46LbkswPY4e00tLBMZ3XtDV9Aef1l1skve1J1Vd/7pbdT9+VFfdpWz9+N17aXm6zkpB10uq+UQk01PtAS62OA+3vgrg7Vv0xpb3XmlV95+9+vym7S0XrGrCqxVtOW2IyyaWEG4q1AH2y5mSPNQycKq78R7h4gm5Bfau3U/U0Jv/Mhi9wYUJBKN7V1vy5cKNFoxeFMHowjKcTVM0JHpIdCGLkOiCBTwh0dPGfbfqHqo7CGRa0Gmx04q005zOCVXegwuJXhShugsFUYrDJpesIXwiZuNFymOcm9V6jtEP4AKCe3D5gMD/wlf2yV9+FvarjSgJi4tKzHRZcDKVclgqKNav151Hkrcd+5p/6hq1067Bbjcpt+18te82bdAvaEje+lU2Lmn1M/JcNckY099YF67//QvU6Wf8V3yYMcv1NA93G+ScHr6Oc/y4nsh6ytnhf4Sv4ex52rrXXnhF7fnXT7jdge6LKbNfYwayUgXzkRgsGPbdmsvGt+lY/My155mmbtipF4S8293bfwHGdB6XW/ZwolGAkaZba1KmNUTcegNt9MLZ72Yta07XCnbdJve6fz9t9GD0Ihi9KILR0+RDCQK+bgWD0SuUhER3pBES3SEkJPpMiX7yqfbOOK/Ode0wMmWhKpn0NBxDzGpUa2SkGH+zqvsdf7G/GfS9TnVfourODwU6tXgI9WvTRlXtBPC1UOf++Yd1x9v2K6z75dx5vX+75+5jgPmbLnhQF5HApypGl9EbUt1na7TSxNSHV1xXBVR19/v9T+DgzbMH9a71+588bGD/z/vU9bn/gJaTQqdOqbo+dhKM89ZIi3HzWG5nDmPIj1NK5gCutxFMyTmnum+7SHeTffT9F2S49c9179TDRxfCFJP8Pm0s0EsJ+q7hNP9Ou23SfcDhg27ERDCmNF2OvYHS6q5bZ3ySKRhd8ReMLrgIRg9Gz3SghJBZBLOmuXWE6algSHTDQyHRBR0tKZUpKv+ERE9ogHYSEn1CG6G6J0RY7W6Cme6/UN2L4qxQ3U888YdZRI+H3H7YIbWdpCYZ+ZNtJg82jF+FZD3aqgPnXtv3sl78d+8j9lLAL3xFt8B6G30Rr9aHfecvXaDqzm2u8h7XX72peZ3b/tGlTdjb6NgpWyyftkY64fed74rvzcs8OrnXMzYkZMcwpfWApvtF6e7OH+OjGSdeVVeY1HgYbrQHv6Wfpn4YlzVKuce/oy61k0ftpQu0m/nOUo/PECfg5nBZiJTZ9DZ1J119hb28cTO2JxO+xWna1Xa+2rUffI91r10Ol9qatbrmIm2PQEtjugM9whlnWICs9OGihR9rzOq9vr7Lrtt+a/pnk4PRFetkxGD0oghGT2ccgtGVQeoQJXOdVv9TijMs+azHWTgkumCnNZVLYvX4rJDoRUj0GRL96J7/nPX0cqw6CTWGiqKgyiNY01vz367YZJkA1PicTtUGxNpfbdWm/dgZd687vXb7nz3bNLHg74zTTVzpPmzAdP0dwV1y3iZVDwXwj/+Iqu63/qzeG3YVPrMk5dbqnQXpHjiruvO1/eereJLOq5kCd0UPGJ+fNfaTBW+IHdsNgMUpuEj34lPU0v4f//XzTTe+9jd6gcR+d2/bIi6DoKreVK4DHPeUhrsgijHu+Vu31nZy+zv0xOBH339RDS3/77xM3Z2rQT/eVbgKFzdsxm43AbJmjQ7iwJkNxRhIBq7grKj6g3ejIKsyp/+2y3UwG7LKntLqTR8LRs/YDUZPbI/NCsHoRRGM3kw8mD4QbLLrgJOQdXLrn6JNMjH70Y0QEr2Fue4ECJuQ6EUREl3JpTzyyB2ZdUssJ3JnlhZdQYh+P1ecO3laKgoYndKmt8qqbPtx8cRXH7afZPrsnc82LbYvnmiyih5X3bn8nIpY1V1XMqW2Ud3/gV7jfNWVegBCylF1HznVnaopVXWpR5/p90R1x1hw3UOa4qUXJ9ynoQ4c1p1su7+hK+tS73//34Pyl59vfEsvkDh+ArZRyh1g3Diek6r6h3GXRHS5WIUDI1sv1INCUu4n3q04/2c36i5Fydt6uar1a9Yo/YxtF4sCK+altbDMnXR+LEjH0l7zOBhGeLn3bOqkAHmBYSnj46yHOT15UVagugejK/qC0YsiGF1OWipNBKMrLjTEKVlTc4gzYWumwoxHCRAS3SHxTFFM82OMRUj0JB1DoofqXvNPSPSQ6EILP5QS/fCDn882em+su6C866dmBPmnZM7pXICjFHH2r5Uqs1f0WK5crTaWtHXgRbUf73nwhdx8/fOZP32mDhYLC2o/SuJp2GO9vsL078JLC847X+0egfETcK99/B9eJkn5ueJKuzNrLXaajd2nfjiR1PXrf9rsJXEHnOay2NXWcptBohdYWS/nTaXiCC5/2PMtdZMJ/L96TE+e7XE73vYe1HvXjx9TETmEO01g9IADf/SMeyjQRalWnHOuurWueafi9brtapNLuWvg0ty5TW1yyVu3UcdtQFcqT51JQcTN6cyUxbUUKcrH00yT50+oQUs19nqqQI2W7kfiRuCyXNPOJEAa6fd1DWOmey0YXVEYjB6MLtQQjJ6Q0JrRQqLrTJFCIdFDomeC+MGT6LdPVHdVxd6I6k7G57FDqhb5xTkhGNaQyUMTjOoO94iUOICvqd7zkLp6JO8zX3xa/vLTrbrrzjjfR87k57qLJ37sKr2M4Bc/eHHdVLH9MlUxJZFfAV3GRQ2SR/gStw+QgN2B/oKKglo4EZeAcSz60IvnsENM2lw4oHfq3Q1VXfLu3P2i/OVnH8pJwhJMIOtNQt9TOVoedOUJDN5f764qLza/XS+D+IUb3i7F8/PBH31bHcz/V2xVdX0N3HCSyTHt4eAQ6aoChj7PtiSrovwlAzMduypzMsq1voiL9vhRDK+q+zib43sOBqq67/rlGTvjDj8YjF4jkIwYjF4Uweg1ZeAfDIzUtIIH7pUMlAtGn2CKgokzbxkSvXVBRUj0ogiJbjWXkOiTicSuuofqHqq7EMbZpro/NFHdRx02OkQu7cDMRyvGFwpOGLD+A/h04EKN0F6He+1evwUW7rW9+5x7De4fc6jFu65geK5dr64e6edlW9fV3S1uuFovKrh8s35PTQrQ7lxCu5Lnt/hL2tQHqPKXY0AjNDZ5hoN6A+Bxfh4ZqeC+F/UCjwe+ad1rDz+h2179t9CobfHbX0yXftAu5+eyJY8uxjmsI0jeRdsUx7fhhOBPX7dZspvnorcrzse4bFIK0AdeQv1prTv5sW+g+4BTyXlijUVBO5JM+5p2eJU3vSLreBisIeE3bqMHoysOMVjB6EURjC6kEYxeMQiEhUOJMlAOoaDPQVZI9IQc4oORlBUSPUn+kOhvXKK/+sjnMn/2xnq3V0vNcYw5K2pUD1KkVOiYBai689Mz/VVqTwsIfsDh3kd1B5fkfdZcPOE+m2zudYdp0KG+DeZ1B53AX4XLD87doLuv1jjzog+Y3swZOaYVuPVTFqpOcIcU77zPZYlHhmtAk3+2jXkj576OHXv8tJJkvvaamnDLKCd5RkUnUNcP3qXmL3yw7jUCKYoLtqpK/i8/rC7Mn7nuQmm+eS69WMthQ2fOH0G1LkulnxZN0wfYQJ4E2K0WHbuXnVRpF9NyXnW3zbGchqWMh8l6HN/BQOlxpnstGJ3o03AwejrJGYze5rYZ3OeTKfSC0Sd8FRJdtPWQ6CHR/w4l+rHHqtNrPMdH9VNlXBWiaiQpM2cuv8Rs38GApaZkj6mq6iUVDrykhyrucar757680MBc2K/XDUvi4qIyUYk7wLhyLOWoDvGQieT1sELMq5q9Ssh6XG8QGKmB/Df1B7t1Rlg69qvWXNHuMocoYXyrHEOGpV+KqTS2UINzn9F/Xk6Cc0K52JpV2uIAu/wkkzD9fWzbuDPuelXX//5O9XIIjC0X6A46nk+QPPMREarnMKlyObxLjuOHdED6zkU66BggTNAfmjGZbzLCPvb66iHaddtvTr/uORhdMU3kkWGlRDB6QgKYIxhd6eZMoWD0CYZ0/k+0BMnZay3GhUSnRAyJnjQE3AaTyYlaSEj0Zg4qQ6I3uAjVPaEiVHdrwv3QqO4nnqjudS+wM44qWsUGapiMlkkK1uYyq4s0EgWIgqhA4tdIdPV+FW2Jrju67nn0ZUAoitu/sq+J79/n3WvaZ9rofXfyiceujCspQeZOJFMOu6+kA7TLGW46NyNAl9qscK4KvI55x7hkAsdW8iNDilHqZaD6A/CaOCU0D21rw0brivyRbWpDX7RR7UcBwx17NJUkb/O5eiHne3G5xJUX6445KbdxvZYzNnnKs2+qxOTb4m3DAtM+pEib82Zitk8JAsCbfsE0OlM75i67nuJ4162/kWz0v21VL4PRgROoesHowMuUYDD6FKTMSApGnyAGExyFZUj0hB9K94wuiNyQ6AkjTjuxTBUSfcJiRXnyG/+1wg1V9zq3/gdx0fUj2dz51LJn6vruHx/szDlkdGrCfXfX2QI+yfRV51777JdVdd/nVHe613ive5fq3sOhEOkkV+F575y5jNyVY538olQs4U6TPDI00G3clxUM/W0deFELxajnfszosnPeL6K/ZcGNcc/aahz6ecfFqqpL737uvfr5qp1bbd45a9RlOhoqI0o9utvOA/z1bvehuQtOKuJxaEWOoTIjUFBoEkRZBNvlNMWo4JpchbxKjrihEaRLRa9VerBNnO61X/q3xV33T1Hdg9EbdAlmm0gwekKHI/Jg9IY8WoFg9BZKEgFZ/YprE8lhrRVCoidJT/GuqMmhkOgOISkaEj0keqaKUN0TM+Bq4lDd25NFEkWaiKAmtkM/+BL9W384sdH1s8mtBQ5sZx1je6a8rtlCSUntEQQ90Et0CHEj0f195AuHcKnhwy8abH/mzxaa+PPus8mLcAn2cTNEf17txaqydrrs2zzujOvhk7udW2D9tkvY6EOHR4oiCnHtUfN6CNhc1hstqcE+XNKTiVIZdyYWq9zFkeeeo66aVW6NZBk2+kZ8ZO7qbXqaTOD/kx9XG/1SnEiTvHXrFP54ZEY+ERPeB4tsbSmNcgIUD8sady8mNxQ/cxB0mwszjm4Y92sqyJ2DLVceYYBG/GRhbHTW8b0eKE53/atZEj0YHWjTkQtGT0dzg9HbCxVkOCUXu88iGL3iqZDocuWR27sJUUTJDFrChFQHbS7rhUSX9Q3VaoqzXaK//nSluo+XqboDQYmmjOvHIcyo7qA7o3YkGNzJQ4IUkjWTJGAUTqLsO6iq+18+cEiqNs9//OKzTfjQfi0nidBiC6ruA6e20jYrqd8mGFTdmed3v1GF43tJP7iwNvabtD1SpMIZHl+FtvcQL738ul4mISDXrFez5Ipt55hWbniPqt1XbLausSWaQJitN69TeALs3TiFtmEDdrGlvPl5VTO91mQJQdX6MW1maYA0InE+oE/j+l2yODB5nBAIS8JuEHsw6ega814aE3e0ZJqAp8er+ITvumH7tRLVPRidaFcKIjNLiWB0+YCDCoB+MLrbW6ETU0UviAejV0zG2YrhkOgVfmb9hkSfgpmQ6NM3zJz4ZrUzrlzWr6lSVRdUDoG81p3Fs1basZooMLgKaZhZMlWQmt1A5ZxVCZ9/Sb+met9j9lDLHV9ZEEj5eXavvXjixAm1h3lvmzcvTNz136jkPErbUa7uT/1vVPdC+5TzPdfWlTr+/eEUG9eB6ZszaenwyAX6CZ/rd6qqLk3dgvvZLt9iV9OHQ6ze45qpedf3dRi3Pi76EPhUfc0OQ8mEWkw3qFefSS/JIJKazUOv0GhJcTxetKr78jLyOlR3v1eB/ep6F6N2u12WTWdzgMSPsOSRtlwWV+hLqu63ysUTU3bGBaMr2oPRg9GVGqpQMHqNEU6onHU4G6WyIdHdYlxI9CTd7fHWkOhkoMw0NZcZrVcSQ6InJITqLqSgM3Co7gkbZ7vqfvzJ/5QpYrSo1zR5G512ubUDDT3ZWQd2rJCdsVmckc4o3RLeRj9yTF2ATz1nL5fg53/3fPuoNNk8T8PddvgVXYtYhgtKChs73GkkvOKK5ay9aN+z6UAdgC07dnZz8r3Vpez/jGQpRHeaxOmpWQWX15bNapNLufdcqhc53HCVvXjxA7iIceP5tl5vqHYuP4U0dnjkl0WxwU2aFiO9+pfgQMM5cZaN7vfpYsXf420M25uXpIzd7sDlZV1vaNE0BGtr5yP7CNvbayeG3n3/GwxIQBtrDTUZQ4tVtZFXDtSFedPHfqu4e/fjpoXcSjC64oQMzIHKiMLExXIYpwzI11PoKQRmDkYPRq9oQzk4GH3CLSHRzbQREl3QgckzR0OiT5foR/Z8Pk8k42W9j40uCkGeUYFaupiUmDw6OZnbXCWXd6j3qGNKHtVkqEN9qEkCYzjUBk65L5UePalq5e5vvCLFm+eL/+9gE969R91yR1/Rd5YCJVRJ9lfy2GcuhFD1knLc3QTtKmfRvdYiUNjUuXD94wiZxfyFEvPY6Xch7lm75fq319Dy/w071KW2/ULrQtuAu+Ba54mxbdeYDZ4mjGjCxpHUOj0bflMSccdPc+HLSrn/5vpk17bZ8Ua3MMMJSutTVxly+4empOT2elhABN22NDkl1TQZteHWKRxe816pQEc1uxg3p59kuvlXf6e4+4EnavDNfxmM3uAiGD2hIhhd6UFCwegWH1UMsxgXrzLCsHGC0jHnYWbkTB4SPWGHU74gC9N8SPSEj5DoRRkSXTijKEJ1D9Xdn14761T3Vx/6dJYR49Nqr9LOEUahPdaxW9CYq84MTza7ulL6sMMFPu1h2jqsk/sB10zpLo0YrVZbcOE7dgvsnfcfkOr5+fIDemHF3uftKbc5bN3kRYVSkYdazItWYPUXWo1fkTfS2UtqhWBCxq5POUNIdJ5Qk0rr8GnnHZfqqbR/+v4tBuZO3Jm+cR1szlSqd0rdTkvOJVWaC0jQEQM9wUC8NLEz2eioSC+Hc08RJ941RtcwwwZxuZnZ/adXxa7HpIqgY9IB6TaDJx34sUbT5l1cOW+zAzvWFTyvbtCbf+13p9voweiKvmD0YHShhmD0hISQ6JkU5Gf6w5mcYSnNGZvh6ZByKmd8SQiJLmhUkRgSPU1MK5Hoh+/7Dxlro0VV3b09Y1R3xXGLPA1dm0gqSteVU92pytPlQneXNMa4/1wTd9EdO6K7/KTe488ck7/8PPrMkTpYHHpVd8lJIvvBvfmSx7h3m0l+/YAGU5JDFjMZritP+R+7xlhtSK5PdVfDnLkMnxZ+37vUnSZNXHi+umPmoCJL3qhDdSeDcWOfH2qq7k7rTtYMSnMRNrXNPC7mjh0QqrQtRieCZoV9Ww7HVNcZFvyY7Yd8F7xWLoe2Dd5yJn46ypl6Dr7hk3m9IGSm6h6MrkgPRg9GF2ogczOcKcUsPoH7EMzlOhg459c/HeWC0ROSQqLLBiKrMYREt2p9l6lktIeQ6NW0E6p7qO5CCUbC6K1SVGAzwYTqnpGVcSE/Bm9N6iTwfZPo9/77LBbGPL2Gu8Fyd7gpwQoR023zFV+vysAWNFteEwRujKGbwrvXuJmmcJ885tZKL+mOnVSX0ZHX9WaR07glRV6EWpnvfkuFM2+uEWMzEm9SBINqwlq9CrFx4M1njrAlWPLgfSx4y8smuN2k3PwADbBPKY+bcMzFnynPECzogIfJBD4Z3QlLOyn4TKk8eQyNtGz0upTsl0FHNLkKdeQZOnP94FhT8ldAgTu259tC3OCNdSTcUY5rEb5aia245aqV2OjB6A0Og9GD0YUYgtEFC10TKCc7hqUeJJOZrSULmxDMTIt0ARESXZCgiA2JHhI9U8SKJPo9v59Zd3xaXU2lO+lj1FGBPOPhHOC0oaTPKYGSmQWUYXzofXQh5CYBI1Wa0YvECk6t78HtxB11vh8GIFQqSTdqFF/UVEoR4s7DMKp8BxAgr7OPKJe7AZAjLNSNF2FQp4LLuDRxiN1uFQxbNqdN+0FbfvLvIa/nM6fBmpJm7st37wnw3dCV5IyUluZIc6atlEeJ7hvw1/E3XW/hUXv5ZlX3Bva0AOy0HtxrH/nEjJ1xh4PRp6HR2E5SIBjdoUnpuKXlBaMLwSiCgtEntMPZlSs5IdGTdOnQXJLosdyntJUW1TQSEt1J6YQ10txZIdGPfLXaGVcsYTcZ1U8hJaicXbOTkpalv1aMKnjKJNJNWa+dg7C5HznXYVln21N1p53Pe7lNu1MifG9jymDmztWowgFvkmcOWXidEG3Sg9A2UcDcrUlA89hHv3o+wi0sQ99/9KMVRNkSYf8qlOjaowraqHMPtbZImjCqdCpCOmNYa1ch7q4jPMnlLks/YZr23BhyD7J5FY67NAD8kHYkyzwrLWcqpcgbVd2D0T0Gp8c5WGQiDmiuyQF3RBKMLjJjZWsAZEzDeAnJZG6G/cgFoytGymB0RUZXKBg9YQfSJyR6QgfnLE7wQkjAFWmnRWMrLecrhkRPGAnVPRGhyrpQ3dvm4Vmnuh+971MVRWBnnJ2qEuOAaDhT+UlGScvnpDjsa6t8pawpxSXJ7LTLZVCSNnnKQ06L0cn4vOSCdk4Gzx8DMGVg5rX4YKWEKqxvWFVd3roTQw0gqqrtxTh0zJ0CJI5NW65ZShhOCFUHXOGmVymArC6JTlSVrCQgmEnYLmxwYGjnDeAR+PF3v5ldlw4+227hB7tGuTXc0IS8ywrfk/hg2KGjFeUaVQ/HVG/6xO9Nv3giGL2FwyoB/JQTOHBm4rP1g9EtjQejW/rwMTI3w76cjwejC0ac6s54SHQrVVsSy0lgQ2Ah0dNuIzXM31IS/bXdn8nDN17SnXH8BFMeaEiwNzLrkEiMOkTpmAuBgkwQEQKTsJO4JurdTli4YD+8/9TAdOoc6X8MH7XvFleVvxe4aqnudE369yQSfP99R2fFW2OjBc37cGg66rRUWgWXQgRiMkzEHywx/fAwgAPa4R6Pnav66FbrEkmYZtwF6SdMf9DHvBAiRF3rgI5Z7UOlHNQX7c3hUMsnk+r+4JO+cFEGowMniju3ppDKYPCD0S0+Ou1RCAlgehIEUtuZTUoweoMKBJRYg9FrtIRErzFx5n+KGFfaSFLyaEedkOgOiS5K1IVEd8jJUZ3Q2lGv0gajT8Pg9DRSnisRjJ4Q8pZV3R++vZqbl9VGb6mmGHzvMnK0oFEe7k6ptI3b7jtd4DAqst+EoNA7QxQ2UtDYZ7Rd/YSAycP0N8EACowa3+oIYLTyOhJMe8YOdwDRf/NeAht5PC3om2VbhnmloHlRV5N5QHILhqtmooRhMlYeMe15OxboIn4Yzi05+jStw9zotNFRzvOFNzcMfI4T8OjbGo/0khRTv3qBJomq+y2f/HczbPRg9AZhXIwjM0gBQ58YHK08CYHQWnkdCaa9YPQOTMlYYACC0Ytg9Jr3KLk5mzJdyoJJDeOlLNIWtY5JE/oHGJp45pBpLxi9E2HB6IIeJbQ3xuijRUWuoeqUjHhLrddaaZ8hIk41MoQMeFJjlj/SpOeCnMkRRrO+WJU1oyyZXgoq7lKYL5OiLMs8pnsYVePNr3HnkZlzPTQOmKbdjnK5EYLwk1jTCxfwY+HipjTzGDaFXKSzHDrsqtmoHT8y+njmTRAyZjqGLdXdDLZrDSajV6cLXNph+MJ2MUHXd+scQ9TzbY29tmK6qfB7A72n/5ZP/v4ZVPdg9GD0REhkIkNXEiHTMtwqiITOckqsqDElCG5IuexjMHqSr8HoNc1YQqlTzeKVJJLuIA1yFqSskfZM9zAkjickOpCRg0S4z2Pcjl8wuuBGcbdCRq92xhUjvRKZKM5hzMpEcqscib6LUQDPw6fflRck5HJc5aSbI2VSzeF+c6lnVCLfdgZc/yjySnzPXXKp+vXornMqMpmZYQ+DF2BIHndqtSYgKTDt0e5WueyLz5tWX9IcHon/WVUk3dKBZUTW60J3S6VlRRO28Nl2l0QnM3icmn5Z8IkVdLXbr3wzz2o4psNGdfcXnBiTAnzC96qgwRtlwaeYDnA5mG9yb/5EWnV/YNrOuIeD0RssGeSpfSf5weiKJQlZonScgqKGoZAuwWB0wYHSmcWpYCgY3S7gJZSERE9ICIku3IFHpV5I9JDoUwkjVHegZUrQSp+Q6N7lylX3HwjV/cSjd+RRGmHVneqEH+OVqmLmgkMBQvvd0wXiJKDxUG0lAUF32wjHBas8XWMYunrmM0PeJpXKUx5znDXl86KCwWCuqdHrD5qwBDhBeBvdDLg/Sgt3G4nEAD9jhBKsozDcNsR3rtFxMi+NwHSgXUQxvUaVSproKufbNe25PiEPSzoJAnCT2uJ7Myzd4JrOaFnpKufBfqeNbqEnOkB7/ECJwOj1lX5oEkre7Me+J0/HjUGDH/n4bycb/fEWmDIYvYWTnBCMPg0vltiaEmCuJm0lgWB0s/bTjTKL+2D0hK2Q6AkJXsSQikKin4US/fH/UU0VIz3UkjzwJIszUI0WpbpiVHUp0jV7c7JC2Ls2qMp71d2o507dIuNTLfMaIZnDuLtS96l29+fVncF0eU3eTUY1XvLMByngopM84qdl9uQC37sfcwDDS2Pqu60mMTjM8zCY1xXuoglTz7Xb1R7yWAtzW4ZMdX3kCIHuWYal4ngIVR5t+XmVHgVv3tE9SzprjXvHWJA3yjmlx12/9G+Ku+7/G4M9iZQngtEVKRgtDoAUIEMHoyvKcggE73K6o8HoZv9EMPqEXEKid/PNSnNDotvFuLNCov/Gr/9ipeHwcACc+CslnlY5N1tTlfFljUDo0LdIoP6OLuYZ9Tw1xjyqbE5jS/qN9sz3l6ujVMX8LMw4wwKZMFJEG/Mhhzuf/V3HZyI8QSb+Ww1NzzTgWnVmJ7zZ1zRj6MHP6IxPtm9iY7wH39OZvU/R1mNXaMaacU+F6NUinTGcYflOswHaIlh1//XfvIOlmrCQ9uzeNsUiEBgIDLyVMRCM/lYeveh7YGCFGPj/xjRPhAUWs3MAAAAASUVORK5CYII=;" vertex="1" parent="1">
          <mxGeometry x="231.09" y="200" width="39.37" height="40" as="geometry" />
        </mxCell>
        <mxCell id="2_PLvZ0-YJUxEWmZZNLs-5" value="" style="ellipse;whiteSpace=wrap;html=1;aspect=fixed;fillColor=#dae8fc;strokeColor=#6c8ebf;" vertex="1" parent="1">
          <mxGeometry x="304" y="175" width="20" height="20" as="geometry" />
        </mxCell>
        <mxCell id="2_PLvZ0-YJUxEWmZZNLs-49" style="rounded=0;orthogonalLoop=1;jettySize=auto;html=1;entryX=0;entryY=0.5;entryDx=0;entryDy=0;strokeColor=#B3B3B3;" edge="1" parent="1" source="2_PLvZ0-YJUxEWmZZNLs-6" target="2_PLvZ0-YJUxEWmZZNLs-9">
          <mxGeometry relative="1" as="geometry" />
        </mxCell>
        <mxCell id="2_PLvZ0-YJUxEWmZZNLs-50" style="rounded=0;orthogonalLoop=1;jettySize=auto;html=1;entryX=0;entryY=0;entryDx=0;entryDy=0;endArrow=classicThin;endFill=1;strokeColor=#B3B3B3;" edge="1" parent="1" source="2_PLvZ0-YJUxEWmZZNLs-6" target="2_PLvZ0-YJUxEWmZZNLs-12">
          <mxGeometry relative="1" as="geometry" />
        </mxCell>
        <mxCell id="2_PLvZ0-YJUxEWmZZNLs-6" value="" style="ellipse;whiteSpace=wrap;html=1;aspect=fixed;fillColor=#dae8fc;strokeColor=#6c8ebf;" vertex="1" parent="1">
          <mxGeometry x="304" y="205" width="20" height="20" as="geometry" />
        </mxCell>
        <mxCell id="2_PLvZ0-YJUxEWmZZNLs-52" style="rounded=0;orthogonalLoop=1;jettySize=auto;html=1;entryX=0;entryY=0;entryDx=0;entryDy=0;strokeColor=#B3B3B3;endArrow=classicThin;endFill=1;" edge="1" parent="1" source="2_PLvZ0-YJUxEWmZZNLs-7" target="2_PLvZ0-YJUxEWmZZNLs-10">
          <mxGeometry relative="1" as="geometry" />
        </mxCell>
        <mxCell id="2_PLvZ0-YJUxEWmZZNLs-55" style="rounded=0;orthogonalLoop=1;jettySize=auto;html=1;entryX=0;entryY=0;entryDx=0;entryDy=0;strokeColor=#B3B3B3;endArrow=classicThin;endFill=1;" edge="1" parent="1" source="2_PLvZ0-YJUxEWmZZNLs-7" target="2_PLvZ0-YJUxEWmZZNLs-11">
          <mxGeometry relative="1" as="geometry" />
        </mxCell>
        <mxCell id="2_PLvZ0-YJUxEWmZZNLs-7" value="" style="ellipse;whiteSpace=wrap;html=1;aspect=fixed;fillColor=#dae8fc;strokeColor=#6c8ebf;" vertex="1" parent="1">
          <mxGeometry x="341" y="130" width="20" height="20" as="geometry" />
        </mxCell>
        <mxCell id="2_PLvZ0-YJUxEWmZZNLs-56" style="rounded=0;orthogonalLoop=1;jettySize=auto;html=1;entryX=0;entryY=0;entryDx=0;entryDy=0;strokeColor=#B3B3B3;endArrow=classicThin;endFill=1;" edge="1" parent="1" source="2_PLvZ0-YJUxEWmZZNLs-8" target="2_PLvZ0-YJUxEWmZZNLs-10">
          <mxGeometry relative="1" as="geometry" />
        </mxCell>
        <mxCell id="2_PLvZ0-YJUxEWmZZNLs-57" style="rounded=0;orthogonalLoop=1;jettySize=auto;html=1;entryX=0;entryY=0;entryDx=0;entryDy=0;strokeColor=#B3B3B3;endArrow=classicThin;endFill=1;" edge="1" parent="1" source="2_PLvZ0-YJUxEWmZZNLs-8" target="2_PLvZ0-YJUxEWmZZNLs-11">
          <mxGeometry relative="1" as="geometry" />
        </mxCell>
        <mxCell id="2_PLvZ0-YJUxEWmZZNLs-8" value="" style="ellipse;whiteSpace=wrap;html=1;aspect=fixed;fillColor=#dae8fc;strokeColor=#6c8ebf;" vertex="1" parent="1">
          <mxGeometry x="341" y="160" width="20" height="20" as="geometry" />
        </mxCell>
        <mxCell id="2_PLvZ0-YJUxEWmZZNLs-58" style="rounded=0;orthogonalLoop=1;jettySize=auto;html=1;strokeColor=#B3B3B3;endArrow=classicThin;endFill=1;" edge="1" parent="1" source="2_PLvZ0-YJUxEWmZZNLs-9" target="2_PLvZ0-YJUxEWmZZNLs-11">
          <mxGeometry relative="1" as="geometry" />
        </mxCell>
        <mxCell id="2_PLvZ0-YJUxEWmZZNLs-59" style="rounded=0;orthogonalLoop=1;jettySize=auto;html=1;entryX=0;entryY=0.5;entryDx=0;entryDy=0;endArrow=classicThin;endFill=1;strokeColor=#B3B3B3;" edge="1" parent="1" source="2_PLvZ0-YJUxEWmZZNLs-9" target="2_PLvZ0-YJUxEWmZZNLs-10">
          <mxGeometry relative="1" as="geometry" />
        </mxCell>
        <mxCell id="2_PLvZ0-YJUxEWmZZNLs-9" value="" style="ellipse;whiteSpace=wrap;html=1;aspect=fixed;fillColor=#dae8fc;strokeColor=#6c8ebf;" vertex="1" parent="1">
          <mxGeometry x="341" y="190" width="20" height="20" as="geometry" />
        </mxCell>
        <mxCell id="2_PLvZ0-YJUxEWmZZNLs-10" value="" style="ellipse;whiteSpace=wrap;html=1;aspect=fixed;fillColor=#dae8fc;strokeColor=#6c8ebf;" vertex="1" parent="1">
          <mxGeometry x="378" y="160" width="20" height="20" as="geometry" />
        </mxCell>
        <mxCell id="2_PLvZ0-YJUxEWmZZNLs-11" value="" style="ellipse;whiteSpace=wrap;html=1;aspect=fixed;fillColor=#dae8fc;strokeColor=#6c8ebf;" vertex="1" parent="1">
          <mxGeometry x="378" y="190" width="20" height="20" as="geometry" />
        </mxCell>
        <mxCell id="2_PLvZ0-YJUxEWmZZNLs-53" style="rounded=0;orthogonalLoop=1;jettySize=auto;html=1;entryX=0;entryY=1;entryDx=0;entryDy=0;endArrow=classicThin;endFill=1;strokeColor=#B3B3B3;" edge="1" parent="1" source="2_PLvZ0-YJUxEWmZZNLs-12" target="2_PLvZ0-YJUxEWmZZNLs-11">
          <mxGeometry relative="1" as="geometry" />
        </mxCell>
        <mxCell id="2_PLvZ0-YJUxEWmZZNLs-54" style="rounded=0;orthogonalLoop=1;jettySize=auto;html=1;entryX=0;entryY=0.5;entryDx=0;entryDy=0;strokeColor=#B3B3B3;endArrow=classicThin;endFill=1;" edge="1" parent="1" source="2_PLvZ0-YJUxEWmZZNLs-12" target="2_PLvZ0-YJUxEWmZZNLs-10">
          <mxGeometry relative="1" as="geometry" />
        </mxCell>
        <mxCell id="2_PLvZ0-YJUxEWmZZNLs-12" value="" style="ellipse;whiteSpace=wrap;html=1;aspect=fixed;fillColor=#dae8fc;strokeColor=#6c8ebf;" vertex="1" parent="1">
          <mxGeometry x="341" y="220" width="20" height="20" as="geometry" />
        </mxCell>
        <mxCell id="2_PLvZ0-YJUxEWmZZNLs-13" value="" style="shape=flexArrow;endArrow=classic;html=1;rounded=0;endWidth=22;endSize=4.33;width=10;fillColor=default;strokeWidth=1;" edge="1" parent="1">
          <mxGeometry width="50" height="50" relative="1" as="geometry">
            <mxPoint x="267" y="185" as="sourcePoint" />
            <mxPoint x="297" y="185" as="targetPoint" />
          </mxGeometry>
        </mxCell>
        <mxCell id="2_PLvZ0-YJUxEWmZZNLs-14" value="&lt;font size=&quot;1&quot; style=&quot;&quot; face=&quot;Times New Roman&quot;&gt;&lt;span style=&quot;font-weight: normal; font-size: 18px;&quot;&gt;Low-level shift&lt;/span&gt;&lt;/font&gt;" style="text;html=1;strokeColor=none;fillColor=none;align=center;verticalAlign=middle;whiteSpace=wrap;rounded=0;fontStyle=1" vertex="1" parent="1">
          <mxGeometry x="245.54" y="107.5" width="136" height="15" as="geometry" />
        </mxCell>
        <mxCell id="2_PLvZ0-YJUxEWmZZNLs-36" value="" style="shape=image;verticalLabelPosition=bottom;labelBackgroundColor=default;verticalAlign=top;aspect=fixed;imageAspect=0;image=data:image/png,iVBORw0KGgoAAAANSUhEUgAAAQAAAAEECAYAAADH4+pwAAAKqmlDQ1BJQ0MgUHJvZmlsZQAASImVlwdQk9kWgO//p4eElhDphN57CyAlhBZAQTqISkgChBJCIKjYUFlcwRVFRAQruiCi4KoUWVREFNuiYK8bZBFR1sWCDZX3A0Nw9817b96ZOXO+nJx7zrl37p05PwBkRY5IlA4rApAhzBGH+XvTY2Lj6LghgAc4QAKOwILDzRYxQ0ODASIz9u/y/g6AJu1Ny8lc//7/fxUlHj+bCwAUinAiL5ubgfBJRF9wReIcAFD7EL/+0hzRJHchTBUjDSJ8b5KTp3lkkhOnGA2mYiLCWAhTAcCTOBxxMgAkOuKn53KTkTwkL4RthDyBEGERwh4ZGZk8hI8hbILEID7SZH5G4nd5kv+WM1GWk8NJlvH0XqYE7yPIFqVzlv+fx/G/JSNdMlPDCFFSijggDLHKyJndS8sMkrEwcX7IDAt4U/FTnCIJiJxhbjYrboZ5HJ8g2dr0+cEznCTwY8vy5LAjZpif7Rs+w+LMMFmtJDGLOcMc8WxdSVqkzJ/CZ8vy56VERM9wriBq/gxnp4UHzcawZH6xJEzWP1/o7z1b10+294zs7/YrYMvW5qREBMj2zpntny9kzubMjpH1xuP7+M7GRMriRTneslqi9FBZPD/dX+bPzg2Xrc1BLuTs2lDZGaZyAkNnGLBAJkhHVAzoIBj55QNADn9ZzuRGWJmi5WJBckoOnYm8MD6dLeRaWdDtbOzsAZh8r9PX4S1t6h1CtCuzvvVEANyFExMT7bO+oM8AnNQFgCid9Rn3ASCP3PtLW7kSce60b+otYQARKAAqUAPaQB+YAEtgB5yAG/ACviAQhIAIEAsWAy5IARlI50vBSrAWFIJisAVsB5VgLzgADoGj4DhoAe3gHLgIroIb4DZ4CKRgELwEo+A9GIcgCAeRIQqkBulAhpA5ZAcxIA/IFwqGwqBYKAFKhoSQBFoJrYeKoVKoEtoP1UG/QKegc9BlqBe6D/VDw9Ab6DOMgkkwFdaCjWBrmAEz4SA4Al4EJ8NZcB5cAG+GK+Bq+AjcDJ+Dr8K3YSn8Eh5DAZQciobSRVmiGCgWKgQVh0pCiVGrUUWoclQ1qgHVhupG3URJUSOoT2gsmoKmoy3RbugAdCSai85Cr0ZvQleiD6Gb0V3om+h+9Cj6G4aM0cSYY1wxbEwMJhmzFFOIKcfUYJowFzC3MYOY91gsloY1xjpjA7Cx2FTsCuwm7G5sI7YD24sdwI7hcDg1nDnOHReC4+BycIW4nbgjuLO4Ptwg7iNeDq+Dt8P74ePwQvw6fDn+MP4Mvg8/hB8nKBIMCa6EEAKPsJxQQjhIaCNcJwwSxolKRGOiOzGCmEpcS6wgNhAvEB8R38rJyenJucgtkBPI5ctVyB2TuyTXL/eJpEwyI7FI8SQJaTOpltRBuk96SyaTjche5DhyDnkzuY58nvyE/FGeIm8lz5bnya+Rr5Jvlu+Tf6VAUDBUYCosVshTKFc4oXBdYUSRoGikyFLkKK5WrFI8pXhXcUyJomSrFKKUobRJ6bDSZaXnyjhlI2VfZZ5ygfIB5fPKAxQURZ/ConAp6ykHKRcog1Qs1ZjKpqZSi6lHqT3UURVlFQeVKJVlKlUqp1WkNBTNiMampdNKaMdpd2if52jNYc7hz9k4p2FO35wPqhqqXqp81SLVRtXbqp/V6Gq+amlqW9Va1B6ro9XN1BeoL1Xfo35BfUSDquGmwdUo0jiu8UAT1jTTDNNcoXlA85rmmJa2lr+WSGun1nmtEW2atpd2qnaZ9hntYR2KjoeOQKdM56zOC7oKnUlPp1fQu+ijupq6AboS3f26PbrjesZ6kXrr9Br1HusT9Rn6Sfpl+p36owY6BvMMVhrUGzwwJBgyDFMMdxh2G34wMjaKNtpg1GL03FjVmG2cZ1xv/MiEbOJpkmVSbXLLFGvKME0z3W16www2czRLMasyu24OmzuZC8x3m/daYCxcLIQW1RZ3LUmWTMtcy3rLfiuaVbDVOqsWq1fWBtZx1lutu62/2TjapNsctHloq2wbaLvOts32jZ2ZHdeuyu6WPdnez36Nfav9awdzB77DHod7jhTHeY4bHDsdvzo5O4mdGpyGnQ2cE5x3Od9lUBmhjE2MSy4YF2+XNS7tLp9cnVxzXI+7/uVm6Zbmdtjt+Vzjufy5B+cOuOu5c9z3u0s96B4JHvs8pJ66nhzPas+nXvpePK8aryGmKTOVeYT5ytvGW+zd5P2B5cpaxerwQfn4+xT59Pgq+0b6Vvo+8dPzS/ar9xv1d/Rf4d8RgAkICtgacJetxeay69ijgc6BqwK7gkhB4UGVQU+DzYLFwW3z4HmB87bNezTfcL5wfksICGGHbAt5HGocmhX66wLsgtAFVQuehdmGrQzrDqeELwk/HP4+wjuiJOJhpEmkJLIzSiEqPqou6kO0T3RptDTGOmZVzNVY9VhBbGscLi4qriZubKHvwu0LB+Md4wvj7ywyXrRs0eXF6ovTF59eorCEs+REAiYhOuFwwhdOCKeaM5bITtyVOMplcXdwX/K8eGW8Yb47v5Q/lOSeVJr0PNk9eVvycIpnSnnKiIAlqBS8Tg1I3Zv6IS0krTZtIj06vTEDn5GQcUqoLEwTdmVqZy7L7BWZiwpF0izXrO1Zo+IgcU02lL0ouzWHigxG1yQmkh8k/bkeuVW5H5dGLT2xTGmZcNm15WbLNy4fyvPL+3kFegV3RedK3ZVrV/avYq7avxpanbi6c43+moI1g/n++YfWEtemrf1tnc260nXv1kevbyvQKsgvGPjB/4f6QvlCceHdDW4b9v6I/lHwY89G+407N34r4hVdKbYpLi/+som76cpPtj9V/DSxOWlzT4lTyZ4t2C3CLXe2em49VKpUmlc6sG3etuYyellR2bvtS7ZfLnco37uDuEOyQ1oRXNG602Dnlp1fKlMqb1d5VzXu0ty1cdeH3bzdfXu89jTs1dpbvPfzPsG+e/v99zdXG1WXH8AeyD3w7GDUwe6fGT/X1ajXFNd8rRXWSg+FHeqqc66rO6x5uKQerpfUDx+JP3LjqM/R1gbLhv2NtMbiY+CY5NiLXxJ+uXM86HjnCcaJhpOGJ3c1UZqKmqHm5c2jLSkt0tbY1t5Tgac629zamn61+rW2Xbe96rTK6ZIzxDMFZybO5p0d6xB1jJxLPjfQuaTz4fmY87e6FnT1XAi6cOmi38Xz3czus5fcL7Vfdr186grjSstVp6vN1xyvNf3m+FtTj1NP83Xn6603XG609c7tPdPn2Xfups/Ni7fYt67enn+7907knXt34+9K7/HuPb+ffv/1g9wH4w/zH2EeFT1WfFz+RPNJ9e+mvzdKnaSn+336rz0Nf/pwgDvw8o/sP74MFjwjPysf0hmqe273vH3Yb/jGi4UvBl+KXo6PFP6p9OeuVyavTv7l9de10ZjRwdfi1xNvNr1Ve1v7zuFd51jo2JP3Ge/HPxR9VPt46BPjU/fn6M9D40u/4L5UfDX92vYt6NujiYyJCRFHzJkaBVCIwklJALypBYAcCwDlBjI/LJyep6cEmv4GmCLwn3h65p4SJwAaEDM5FrE6ADiGqFE+khvRyZEowgvA9vYynZl9p+b0ScEiXyz7fCbp/rZF+eAfMj3Df9f3Py2YzOoA/mn/BYLIBz4QpyMXAAAAimVYSWZNTQAqAAAACAAEARoABQAAAAEAAAA+ARsABQAAAAEAAABGASgAAwAAAAEAAgAAh2kABAAAAAEAAABOAAAAAAAAAJAAAAABAAAAkAAAAAEAA5KGAAcAAAASAAAAeKACAAQAAAABAAABAKADAAQAAAABAAABBAAAAABBU0NJSQAAAFNjcmVlbnNob3TJZ8iTAAAACXBIWXMAABYlAAAWJQFJUiTwAAAB1mlUWHRYTUw6Y29tLmFkb2JlLnhtcAAAAAAAPHg6eG1wbWV0YSB4bWxuczp4PSJhZG9iZTpuczptZXRhLyIgeDp4bXB0az0iWE1QIENvcmUgNi4wLjAiPgogICA8cmRmOlJERiB4bWxuczpyZGY9Imh0dHA6Ly93d3cudzMub3JnLzE5OTkvMDIvMjItcmRmLXN5bnRheC1ucyMiPgogICAgICA8cmRmOkRlc2NyaXB0aW9uIHJkZjphYm91dD0iIgogICAgICAgICAgICB4bWxuczpleGlmPSJodHRwOi8vbnMuYWRvYmUuY29tL2V4aWYvMS4wLyI+CiAgICAgICAgIDxleGlmOlBpeGVsWURpbWVuc2lvbj4yNjA8L2V4aWY6UGl4ZWxZRGltZW5zaW9uPgogICAgICAgICA8ZXhpZjpQaXhlbFhEaW1lbnNpb24+MjU2PC9leGlmOlBpeGVsWERpbWVuc2lvbj4KICAgICAgICAgPGV4aWY6VXNlckNvbW1lbnQ+U2NyZWVuc2hvdDwvZXhpZjpVc2VyQ29tbWVudD4KICAgICAgPC9yZGY6RGVzY3JpcHRpb24+CiAgIDwvcmRmOlJERj4KPC94OnhtcG1ldGE+CnNZGeQAAAAcaURPVAAAAAIAAAAAAAAAggAAACgAAACCAAAAggAAD2b1cf+jAAAPMklEQVR4AexdR28UTRDFJuckksk5g4gCAQJxIIl0QPxJDtwQSBxAgE3O2YDB/sg5mBw+144pv35evHZ7Hbb95uCtmg4z/arnebqruqdsxIgRf3o1HuXl5X/F3G9ZWVmgSxECQqD0EPjzxx/x3M3//v3bG1EmAnAsJAiBJBEQASRpVjVKCLQOgRYJoKGK8P2gdXUqlxAQAgkgYIN8EUAChlQThEAMAiKAGNRURggkgoAIIBFDqhlCIAYBEUAMaiojBBJBQASQiCHVDCEQg4AIIAY1lRECiSAgAkjEkGqGEIhBQAQQg5rKCIFEEBABJGJINUMIxCAgAohBTWWEQCIIiAASMaSaIQRiEBABxKCmMkIgEQREAIkYUs0QAjEIiABiUFMZIZAIAiKARAypZgiBGAREADGoqYwQSAQBEUAihlQzhEAMAiKAGNRURggkgoAIIBFDqhlCIAYBEUAMaiojBBJBQASQiCHVDCEQg4AIIAY1lRECiSAgAkjEkGqGEIhBQAQQg5rKCIFEEBABJGJINUMIxCAgAohBTWWEQCIIiAASMaSaIQRiEBABxKCmMkIgEQREAIkYUs0QAjEIiABiUFMZIZAIAiKARAypZgiBGAREADGoqYwQSAQBEUAihlQzhEAMAiKAGNRURggkgoAIIBFDqhlCIAYBEUAMaiojBBJBQASQiCHVDCEQg4AIIAY1lRECiSAgAkjEkGqGEIhBQAQQg5rKCIFEEBABJGJINUMIxCAgAohBTWWEQCIIiAASMaSaIQRiEBABxKCmMkIgEQREAIkYUs0QAjEIiABiUFMZIZAIAiKARAypZgiBGAREADGoqYwQSAQBEUAihlQzhEAMAiKAGNRURggkgoAIIBFDqhlCIAYBEUAMaiojBBJBQASQiCHVDCEQg4AIIAY1lRECiSAgAihRQ5aXl/ud9+/f32UT+vXrF+h9+/Z1vXfv3i6b0JKO17C8LellZdaVmo5fv341KQ3Sz58/Xf/y5YvLJmAa63/+/Any8v326dPH0/kefv/+7WkmfP/+3fUfP364bALrfN0gc0KKCKBEjYkPowggM6IIoO2dWQTQdsy6RQkRQGYGvQG0rzuKANqHX5eVFgGIAIrR+UQAxUCxE+rA/3R2ucGDB/tVUbaTw4cP9zQTRowY4frQoUNdNmHIkCGBjnVx2sCBA4O8ONeAhGSZvn79GuR9+fKl6zU1NS6b8ObNm0DHOQIei+N8hhUaNmyYl2WMvn375mkmvH371vX6+nqXTfj8+XOg8/3zfEKQuYQVEUCJGI87Nz6oKFtzRACZUUUAhTu3CKAwRt0ihwggM4PeAIrbHUUAxcWzw2oTAYgAOqJziQA6AtXIOtGNxQ88j8dx7Dt27NjgipMnTw70SZMmuV5RUeGyCWPGjAn00aNHuz5q1CiXTcBrmj5gwAD7yR08B/Dp06e/Sbnfhw8ful5VVeWyCZhm+rt37+wnd3A8Ac9DTJgw4W/W4H7s5IcPHzzNhAcPHrj+/Plzl03A+QHTuSzGEFh6KocIoBtZUgSQGUME0HmdUgTQeVgXvJIIQARQsJMUOYMIoMiAtqc6nODi1218NbdrTJkyxS81depUl02YMWNGoE+bOs31yVPC4cH48eM9zQS8DnsX0O0XFMqj8Cvz69evPVdlZaXLJvAQAN2CHCY8aNCgoOzEiRNd5/vDeizTjRs3PO+9e/dcNqG2tjbQ8X4tgYcEQeYSVkQA3ch4IoDMGPjgigA6toOKADoW3zbVLgIQAbSpwxQhswigCCAWqwoRQIak3gCK1aMK1yMCKIxRh+XgMevIkSP9WujespNz5871NBOWL1/u+uzZs102oaVxPYYFW152LyIJcSTdx48frYgfuISWVyRiPVYAX+XZ5cYuQwzDZTcgu0cx6pHDhl+8eOH3akJ1dbXrV65ccdmECxcuBDrPESApBRlLXBEBdKEBRQAZ+CKAruuEIoCuw77Zxh16A8iMoTeAzuuUIoDOw7rZlfQGkEGiN4BmXaPTTogAOg3qXr14XIzjV7sNDOGdN29ecGfLli0L9DVr1rjOcQC85BfHzRhsZBXwGBuXyXK47LNnz/yaJuAS2v79wm3JhgwNlxljWzHWwOrh8F68Xx7X8/0jpjgnYfW+evXKfvy4e/euy2fPnnXZhBMnTgT69evXAx2XMwcJJa6IADrRgNhZ7bL4UJguAjAUevUSAWQ4dMZfEUBnoNx4DRFABoTeADqx0xW4lAigAEDtTcZXVv6PP27cuKB6dO2tXLnyn2mWsGDBAk/HyUM/CQK+1uNCG8vCr/WPHz/2khwei2mWCd2CvFsvuxsxdHnJkiV+DROmTZsW6Ngedi8inlYIdZw8tDR+bcfX+tOnT1sWPzQEcCgkFBMB7KAigAxZEUAxe1j76tIbQPvwK1haBJBBpDeAgl2lSzKIADoYdhGACKCDu1i7qhcBtAu+5oXxgbdUdHHx5Be7+nbu3OkVrlu3zmUTZs6cGeg4nGBX2fv374O8OHbHcFjLdPXq1SAvusrq6uqCtNevmpb0WsKn+qZdf/ge2BU5a9Ysr2vTpk0um8AuTlzOzDsW4S5EVhbx5ngCvn8c97MbkEOB79+/b9X7oVBgh0JCSwhgh7R8IoAMLRFAS72m69L0BlBk7EUAGaB6Ayhyx+qg6kQARQZWBCACKHKX6tDqRAAR8OJDzmNS/s+HO+tyyC6Pfbdv3+53w/MDPH/gGRsEDnnF3W8t3+3btz37rVu3XDYBfeOmP3r0yH5yB2+LxWNs/FoOylYY2206DgF27Nhhp/zgmAdc3sxzADiksgrQFjxOx3Zb3qNHj9pP7jh//vxfMffLeXkpMc+rBIVLWBEBRBgPO50IIANQBBDRkbpBERFAhBFEAM0fehFAREfqBkVEABFGwNdQDFu1qnCXWtPnz59vP7mDI+CWLl36Nyn3u3DhQtf5FRpJxzLhKym67iztzJkz9uPH5cuXXWb3Fq/4w1BhDPW1CninX/wYCO9izGHOixcv9nvYtWuXyyasWLEi0BFD3gWY11MgLk+ePAnqOXfuXKAfPHjQdcTETj59+tTTTEB8TefdkexcCocIIMKKIoAMNBFAROfpZkVEABEGEQGIACK6TbcsIgKIMIsIQAQQ0W26ZRERQB6z4KutJeMDbzqG4eJ41dJwrGv62rVr7Sd3sLuLl8Hil3hwF10rzDvp/lf3X1Zpw9+Lly66bMLx48cDHcN92b3FS2hxrMs77ASVNig4PucxP7ryrNzq1au9OLo77SS7PBFfHONbXt7BCO+Rd/I9efKkFfHjwIEDLvO8Cbs8eb6DQ529ohIXRAB5DCgCyEDBhysPTCKAfKCU2DkRQB6DiQAyUEQATZ1DbwBNWCQviQBEABoCJP+Y/7uB/LUc9vXj5p24NZfVyD5t3L2Xx7q8LTh2OvZLs//+zp073gD2aXOYK4b38lyCV9IKgYkRcWnpy0VW9do1TXMh69aHS515/gCjK3nMj3MUVi8udeawZt7m6/Dhw1Ykd2A5O5Hq13+z1v77r4YAebARAeQBpeGUCCA/LqV8VgSQx3oigDygNJwSAeTHpZTP9lgCYPcSvnbi/nVmXHZpoauPXXsY+mtlKyoq7Cd3MLHgK79lqKmpyTI2/L1586bLJvDHLFHn1X+8Gy6G9/I1g4sUUHC/fsuKK/U2btwYlN68eXOgI04tuT+tEA6N+H6xLZb31KlT9pM7cMcfO3HxYugexSECD4V4aJHVmP5fEUCjjUUAhTu7CKAwRqWWQwQgAmh1nxUBtBqqkskoAhABtLqzigBaDVXJZOwxBMATWDwexy/Z8LJd/GKPWRZ38kHZ0ngZL4bL8jiTv8qDY1aUrV4c85uObkDeCQc/2ml5cRzdnoAW/koPukP37Nljl/Jj27ZtLpuAS5956TAv8cV75CXJPN9x6NAhvw7PAXC4Ly59bml3I6+wBwgigEYjiwAK93YRQGGMSi2HCEAE0Oo+KwJoNVQlk1EEIAJodWcVAbQaqpLJmCwB8IRVS7v1mrWmT5/uRsMlvHaSw3sx/Jd3+uWv5OKyXl6Kyzv04jLeS5cu+f2YwEtdcTzL42QcQweVtFEphCHu9Ltv376gdp4DwPgIrpf3E8SwXA7ZZVwwvJdDojmcGnFCuwQ33sMUEUCjwUUAzXs+P6hMoiKA5piV2hkRgAjgn31WBPBPaJJJSJYAcFcZs9bYsWMDo82ZMyfQ0U21fv36IA1367UEXL3GLixeQ48uOn6N51V7R44c8euyC4uHD/X19Z63LQKHQLOOQxh2lfLHSRYtWuSX3r17t8smcGgwvmEFGRsUdsnh6kV+reedfquqqrw6DKW2k/zBFM8owREQATRCIQLIgBAB+LPRIwQRgAgg6OgigACO5BURgAgg6OQigACO5JVkCQCXqpoVecca3KnH0nHXWnb7jR8/3rL4gf5wHvOz6wnH/deuXfM6TOBw37Nnz3o6j/nRNWaZ2uLqwzBoDE22enicjzP9PObnHZDRHbphwwarzg8Op8Y5GL732tpaL2fChQsXXOfwXnYD4lwJj/m/fPni9UjIj4AIoBEXEUAGhAgg/4OS6lkRgAgg6NsigACO5BURgAgg6OQigACO5JVkCQCXqpoVecy/devWwLiYPmnSpCCNx8047kc/vxXi8F70U7MPG8evVhbH/ewbb0/oKo7zC82NoL+ecZgwYYLdph+I8cyZM/28CTx/gPEG/OVdxqyystLrQtlOVldXe5oJiH975kmCSnuQIgJoNLYIIANCBNCDnv6GpooARABBjxcBBHAkryRLALyT75YtWwJj7t27N9BXrVrlOr/y88cp8LWTP9jBr/nHjh3zevEjnXaSdwTC66A/3vJyyDGmo5vP8mKa6RgWPWPGDDvlB4c9o/uOd0fGD4FYBTi0QNnS2NWHr/28qw+H++JHPdElaPXiKkjTcajEqwotXUfLCIgAGvERAWRAiABafmBSSxUBiACCPi0CCOBIXhEBiACCTi4CCOBIXkmWADBM1azIy1X3798fGJd398VE/ooMjvvRzWdlOHQVl/zW1dVhtb2+fv0a6LhbLs9DDBw4MMiL4cicNnjw4CAvhuFySDTPASBuuOzZKsSPpwQXyKPg2NySnzx54rk4BJrnTTAk+vbt217OBA73DRKltBkBEUAjZCKADAgRQJufoZIu8D8AAAD//2JknMQAABBqSURBVO1daW8VxxI1hsSsNsZ7bIHjGLxADE5YLIISgYSeE+UlQuIBUpCQUD4gPvCDgCgSEh8iIZL3JSBigiBitUnCZkPAEDA4j7AvYTEEHuWlXFVE19f3zr3T03NGQq4z1d3TfWrmcHuZnjE5OTkvX/3z7mhsbFRt+uyzzxRetWqVws3NzQpLcOfOHQlzuru7GR8+fJhtMo4cOaJwR0cH456eHrbJePLkicL5+fmMJ06cyDYZEyZMUDgvL4+x9U2aNIl9ZJSWljKuq6tjm4wlS5YoLHkrKytTvvHjxyucCDx8+FC5e3t7Gf/8889sk9He3q7wsWPHGJ89e5ZtMm7evKkwQHoMjHmVHQLwigQIwMCNBAFI74GKWm5vBeDdd99VsVixYoXC9hfA7NmzlV8C+b8XnT948CC7v/nmG7bJ+PXXXxWW/2P99ddfymf/l6+srGS/tOlkRUUF+8iQ/zsXFxcr37Rp0xSW/vLycuWz15F5bf1yc3NV3kTg3r17yn3+/HnGbW1tbJMhfyUR7ursoj/9x7Xea0Nm/19brnICjJoBCMAgZRCAASIgAKN+hiKdAQIAAVA3MARA0eE9gABAANRNDgFQdHgPvBWApqYmFbyRxgDk4JfK+AqMZgzAjlo/evSIi3vjjTfYJqOgoEDhmpoaxtKmk9OnT2cfGVWVVYzlKD+dnFo4lX1kTJ48mbGdMbAj+2PHjuW00qaTY8bQ7TJ8SCxtSiHHPgifPHmS/vQfO3fuHDL7/x4/flzhK1euML516xbbZDx9+lRhgPQYgAAM8gcBGCBCPvTSJq99yCWWNqWFABAL7h8QgMEYQQAGiJAPvbTJax9yiaVNaSEAxIL7h7cCMGfOHMW+7QKsXr1a+RPNAty+fVul7ezsZHzgwAG2ybh69arCz58/Z2x/fhcWFrKPjKqq4Z/1b731lvLZ6buSkhL2ywVEdNL+rJfTdy9evOB8ZFj88uXwshCZj9JaLLs0VgD++OMPysKHXCC1bds2Pk+G7B4QluJhFxTZ+lJ6HKkzAAEY5A4CMEAEBCD1hymKOSEAEAB130IAFB3eAwgABEDd5BAARYf3wFsBaGzQLwN9+u9PVTBXrlypsJw2HDdunPLJfjw57t+/z37ZX6WTctqPsHygZJ+ZfPKFHsJy6a0dL7D9+jfffJOy9B+2X2zr++zZs6GkOX19fWyTYfPKgT95DUpr62T9lGbo+P3334fM/r/79u1j/NVXX7FNhp06tS9fqcQAgTIAARikEwIwQAQEINDny/nCIAAQAHWTQgAUHd4DCAAEQN3kEABFh/fAWwF4++23VfDsxhet/2pV/vkL5jOWc+x0UvbNCcu+/N9//02n+JB9fjopsZ0r50yDhuy7281C7NiCxHauXI5RUNGyLPmAk68gXy9Hzi/Ip9P9h12nYJcuy7IeP348lK3/77lz5xT+4YcfGG/fvp1tMuzaCVt/lRggUAYgAIN0QgAGiIAABPp8OV8YBAACoG5SCICiw3vgrQDIXXAoirZLMHfuXBXc+fOHuwAtLS3KV11drbD9KaycCYB9k83ubvPnn39y7mvX9E44ibCdirTlcqGvDMuL3Tlp5syZnNy+gWjzyi6L/Rlvl/fKJdO7du3ia5Bx/fp1he3OScoJECgDEIBBOiEAA0RAAAJ9vpwvDAIAAVA3KQRA0eE9gABAANRNDgFQdHgPvBUAu2zVTmnZXXbl24DLly9XgbevFssdeOzUnp0WlP1kO11n+77yuwF2Ke2lS5dUnS5fvszYjgHYKbnxecP7+c+onsH5yFi2bJnCCxYsYCzFgE4WFRWxjwzZVz9z5ozy2b3+5evA0qZMdtcfOcWpCgUInAEIwCClEIABIiAAgT9jThcIAYAAqBsUAqDo8B5AACAA6iaHACg6vAfeCoCNnH31dupUvXOu/ELOwoULVXb7Pb3SkuFv7eWOzVVp5au35JDLcO38vN1qTK4DsFtq2Z2J5fjBgwcPEtZBjn/U19ertJ9//rnCH3zwAePa2lq2yZC7CxOWffeO9g46xcfRY0fZJkN+/ceuEZDlUFq7XoLO4cgMAxCAQV4hAANEQAAy86C5WioEAAKg7k0IgKLDexAbAbDTdXaHHflJbbvU1/70TbQTjr1j5DSgnSJM1F2wP4Pt1J6cgrNtk22h+pSXDX8QdF7zPFVFuzuyHAOQHyClTLb+shtip/Yslp8E7+oa/vgnlWt3ALJtpzQ4MsMABGCQV/nQQAAGSIEAZOahc6lUCAAEQN2P+AWg6PAeQAAgAOomhwAoOrwHsREAG0nbb5Y7AdspQ7nzDZVjv5Bjy5ZY7ggkbZlmyJbjBXa3Xumj9BLLHYrIJ6f9CMvXeu0U55o1aygJH3JFpC3H9s3l1OTevXu5DDIOHjyo8KlTpxjLZcx00k6P2rERzggjcAYgAIOUQgAGiIAABP6MOV0gBAACoG5QCICiw3sAAYAAqJscAqDo8B7EVgB8iqwds7Bbd8nt0BYtWqSavuo/qxSuq69jbKdD5bJmSiRfUf722285Hxn79+9XWH79xy6Btq//2vEPVRBAoAxAAAKlM5zCIADh8O7DVSEAHkQRAuBBEENqAgQgJOKDvKzd/WjatGmqeNkFsNOA9iOpDQ0NnNe+MWmXI8slvdu2beN8ZPz4448KX7x4kbEtBz/5mZqsGxCArFMe/AUhAMFzGpcSIQAeRBoC4EEQQ2oCBCAk4oO8LAQgSDbjVRYEwIN429eT8/OHP/BJzauqquJW2jGAL774gn1kyC8F2aXAtu9++vRpzrt582a2ybBLg+WUoUoIECoDEIBQ6Q/m4hCAYHiMYykQAA+iDgHwIIghNQECEBLxQV4WAhAkm/EqCwLgQbztq8329WD5JaPm5mbV4g0bNigs9wMoKSlRvkRjAFu3blVp29raFJbrAJQDIFQGIACh0h/MxSEAwfAYx1IgAB5EHQLgQRBDagIEICTis3lZ+VO+qalJXXrTpk0Kt7S0MJZdBzppuwDyg6AjdQG6u7u5XBjuMAABcCcWGasJBCBj1Ea+YAhA5EM4cgMgACNzFNcUEIAYRB4CEIMgp9hECECKxLmUzQ4Cyg1OqZ5SAObN018G2rhxo2qKnAZMZwzALgW+cOGCug6AGwxAANyIQ1q1gACkRV+sM0MAPAg/BMCDIIbUBAhASMQHeVkIQJBsxqssCIAH8bZLf+3rwJWVldxK2cenk2vXrmUfGXKdgN1abDTrADAGoGh1FkAAnA1N8hWDACTPFVJqBiAAmo9IIghAJMPmRKUhAE6EIb1KTJo0SRVQVFSkcE1NDWO7I9CKFSvYR0Z9fT3jkXYFTrQUGF0AptFpAwLgdHiSqxwEIDmekOp1BiAAr3MSuTMQgMiFzJkKQwCcCUXqFYEApM5d3HNCACJ6B8i5fzvtV1FRoVpVVzf8wU87BtDa2qrS1tbWMrblYhqQqfHGgABENJQQgIgGzrFqQwAcC0iy1YEAJMsU0iViAAKQiB2HfRAAh4MToapBACIULFlVKQAFBQXSlSOX/pKjsbGR/XYMYPny5ewjQ64ZmDJlivJhDEDR4QWAAEQ0jBCAiAbOsWpDABwLSLLVgQAkyxTSJWIAApCInYj4bBfATgPK5b22C/Dxxx+rVsouwGimAbds2aLKsUuBsSuwoscZAAFwJhSpVwQCkDp3cc8JAfDgDoAAeBDEkJoAAQiJ+CAvCwEIks14lQUB8CDeEyZMUK2wO/lUV1ezf9GiRWyTsXrVaoVn1c1iPJrXge0YAD4OyjQ6bUAAnA5PcpWDACTHE1K9zgAE4HVOIncGAhC5kDlTYQiAM6FIvSIQgNS5i3tOCIAHd0Bubq5qhZ2/l+sC7K7A69atU3nlrsDFxcXKZ5cCd3Z2st9+HdiuA5BfBnr58iXngxEuAxCAcPkP5OoQgEBojGUhEAAPwg4B8CCIITUBAhAS8Zm8rN0mXH7ks7m5WV36yy+/VLilpYVxWVkZ22TYLsDZs2fZ//XXX7NNxt62vQpf6B7+OGhfX5/yAYTHAAQgPO4zdmUIQMao9a5gCIB3Ic3JgQB4GNQMNQkCkCFiwywWAhAm+9G6NgQgWvFKqbbyS0ENDQ2qjPXr1yu8bNkyxtOnT2ebjKdPnyr822+/Md6+fTvbZCRaCnzv3j2VFtOCio6sAghAVukO52IQgHB4j8JVIQBRiFKadYQApEmgx9khAB4Hd6hpEIAhJvDXMgABsIx4iOV+ATNmzFAtXLlypcJLly5lLHcTppP2E2RXe65y2u/++x3bZOzfv19huWbg5s2byvfgwQOFnz9/rjBA5hiAAGSOW2dKhgA4EwrnKgIBcC4kwVcIAhA8p76UCAHwJZIJ2iF/utvlvUuWLFE5Fy9ezNi+OThr1vBuQZToyZMnnPbQoUNsk3H06FGFf/nlF8Zy+pBO3rp1i31k3L9/n/GLFy/YhhE8AxCA4Dl1rkQIgHMhcaZCEABnQpG5ikAAMsdt1EuGAEQ9gknUHwKQBEkxTQIBiEHg8/LyuJWFhYVsk1FbW6vwe++9x9iOD1gsy7p06RLnI+PUqVMKHz9+nPGRI0fYJuPy5csK3717l7GdIsSYAFMTiAEBCIRGtwuBALgdnzBrBwEIk/0sXRsCkCWiI3gZCEAEgzbaKkMARstYfNJDAGIQa7ln4JQpU1SL7VeE5OvCH374oUrb2tqq8MyZMxnbV4V7enrYR8aJEycYHzhwgG0y5O7ChGXeO3fu0Ck+Hj58yDaM9BmAAKTPofMlQACcD1FoFYQAhEZ99i4MAcge11G7EgQgahFLs752uzC5RoCKlm8Lyh2CyffJJ5/QHz7kDsP2Q6LPnj3jdGTIqb729nblk1OE5JDdhYsXL6q0N27cUBggPQYgAOnxF7ncEIDIhSyjFYYAZJRe9wqHALgXkzBrBAEIk/0Qrg0BCIF0hy8JAXA4ONmo2rhx49RlysvLGdsdgT766CP2kfH+++8zrqmpYZsMOyYgpwmvXLmi0toxgJ9++on9HR0dbJMhxxIIY2kwsZD6AQFInTsvckIAvAhjyo2AAKRMnR8ZIQB+xDHVVkAAUmXOk3wQAE8CmWIzIAApEudrNtl3r6ioUM2sq6tTeM6cOYybmprYJsO+ZlxcXMx+KzpdXV3sI2PPnj2Md+/ezTYZ58+fV1huS4bxAEVNUgACkBRN8UkEAYhPrKmlEIB4xXvE1kIARqTIqwQQAK/CmX5j5M9zu0w4Pz9fXaCqqoqxXBZMJ+UUIeG5c+fSn/7DdiWu/+/6kKv/7/e7vme8Y8cOtsk4c+aMwvLtwL6+PuXDR0cVHf8IIAD/SEt8T0IA4hV7CEC84j1iayEAI1LkVQIIgFfhTL8xEID0OYxSCRCAKEUry3WV+wjQpe17BHJX4HfeeUfVbvbs2QrLaUJpUyL5JSDC8itDbW1tdIqP7u5utsnAGICiY9QAAjBqyuKTAQLgf6whAP7HOOUWQgBSpi4yGSEAkQlV9isKAcg+59m+IgQg24x7dL2JEydya+zuwkVFRewjQ36VuLS0VPns/H1vby/77avD9kvCjx8/5rRYCsxUJG1AAJKmCgktAxAAy0j0MAQgejFzpsYQAGdCkXJF/g/uUoImJnkuBQAAAABJRU5ErkJggg==;" vertex="1" parent="1">
          <mxGeometry x="580" y="199.99999999999997" width="40" height="40.63" as="geometry" />
        </mxCell>
        <mxCell id="2_PLvZ0-YJUxEWmZZNLs-45" style="rounded=0;orthogonalLoop=1;jettySize=auto;html=1;entryX=0;entryY=0.5;entryDx=0;entryDy=0;strokeColor=#B3B3B3;endArrow=classicThin;endFill=1;" edge="1" parent="1" source="2_PLvZ0-YJUxEWmZZNLs-42" target="2_PLvZ0-YJUxEWmZZNLs-7">
          <mxGeometry relative="1" as="geometry" />
        </mxCell>
        <mxCell id="2_PLvZ0-YJUxEWmZZNLs-46" style="rounded=0;orthogonalLoop=1;jettySize=auto;html=1;entryX=0;entryY=0.5;entryDx=0;entryDy=0;strokeColor=#B3B3B3;endArrow=classicThin;endFill=1;" edge="1" parent="1" source="2_PLvZ0-YJUxEWmZZNLs-42" target="2_PLvZ0-YJUxEWmZZNLs-8">
          <mxGeometry relative="1" as="geometry" />
        </mxCell>
        <mxCell id="2_PLvZ0-YJUxEWmZZNLs-47" style="rounded=0;orthogonalLoop=1;jettySize=auto;html=1;entryX=0;entryY=0.5;entryDx=0;entryDy=0;strokeColor=#B3B3B3;endArrow=classicThin;endFill=1;" edge="1" parent="1" source="2_PLvZ0-YJUxEWmZZNLs-42" target="2_PLvZ0-YJUxEWmZZNLs-9">
          <mxGeometry relative="1" as="geometry" />
        </mxCell>
        <mxCell id="2_PLvZ0-YJUxEWmZZNLs-48" style="rounded=0;orthogonalLoop=1;jettySize=auto;html=1;entryX=0;entryY=0;entryDx=0;entryDy=0;strokeColor=#B3B3B3;endArrow=classicThin;endFill=1;" edge="1" parent="1" source="2_PLvZ0-YJUxEWmZZNLs-42" target="2_PLvZ0-YJUxEWmZZNLs-12">
          <mxGeometry relative="1" as="geometry" />
        </mxCell>
        <mxCell id="2_PLvZ0-YJUxEWmZZNLs-42" value="" style="ellipse;whiteSpace=wrap;html=1;aspect=fixed;fillColor=#dae8fc;strokeColor=#6c8ebf;" vertex="1" parent="1">
          <mxGeometry x="304" y="175" width="20" height="20" as="geometry" />
        </mxCell>
        <mxCell id="2_PLvZ0-YJUxEWmZZNLs-16" value="" style="ellipse;whiteSpace=wrap;html=1;aspect=fixed;fillColor=#dae8fc;strokeColor=#6c8ebf;" vertex="1" parent="1">
          <mxGeometry x="264.77" y="245" width="20" height="20" as="geometry" />
        </mxCell>
        <mxCell id="2_PLvZ0-YJUxEWmZZNLs-18" value="&lt;font style=&quot;font-size: 16px;&quot; face=&quot;Times New Roman&quot;&gt;&amp;nbsp;= surprised&lt;/font&gt;" style="text;html=1;strokeColor=none;fillColor=none;align=center;verticalAlign=middle;whiteSpace=wrap;rounded=0;" vertex="1" parent="1">
          <mxGeometry x="284.77" y="247.5" width="77.54" height="15" as="geometry" />
        </mxCell>
        <mxCell id="2_PLvZ0-YJUxEWmZZNLs-138" style="rounded=0;orthogonalLoop=1;jettySize=auto;html=1;entryX=0;entryY=0.5;entryDx=0;entryDy=0;strokeWidth=1;strokeColor=#B3B3B3;" edge="1" parent="1" source="2_PLvZ0-YJUxEWmZZNLs-142" target="2_PLvZ0-YJUxEWmZZNLs-152">
          <mxGeometry relative="1" as="geometry" />
        </mxCell>
        <mxCell id="2_PLvZ0-YJUxEWmZZNLs-139" style="rounded=0;orthogonalLoop=1;jettySize=auto;html=1;entryX=0;entryY=0.5;entryDx=0;entryDy=0;strokeColor=#B3B3B3;endArrow=classicThin;endFill=1;" edge="1" parent="1" source="2_PLvZ0-YJUxEWmZZNLs-142" target="2_PLvZ0-YJUxEWmZZNLs-155">
          <mxGeometry relative="1" as="geometry" />
        </mxCell>
        <mxCell id="2_PLvZ0-YJUxEWmZZNLs-140" style="rounded=0;orthogonalLoop=1;jettySize=auto;html=1;entryX=0;entryY=0;entryDx=0;entryDy=0;strokeColor=#B3B3B3;endArrow=classicThin;endFill=1;" edge="1" parent="1" source="2_PLvZ0-YJUxEWmZZNLs-142" target="2_PLvZ0-YJUxEWmZZNLs-158">
          <mxGeometry relative="1" as="geometry" />
        </mxCell>
        <mxCell id="2_PLvZ0-YJUxEWmZZNLs-141" style="rounded=0;orthogonalLoop=1;jettySize=auto;html=1;entryX=0;entryY=0.5;entryDx=0;entryDy=0;endArrow=classicThin;endFill=1;strokeColor=#B3B3B3;" edge="1" parent="1" source="2_PLvZ0-YJUxEWmZZNLs-142" target="2_PLvZ0-YJUxEWmZZNLs-163">
          <mxGeometry relative="1" as="geometry" />
        </mxCell>
        <mxCell id="2_PLvZ0-YJUxEWmZZNLs-142" value="" style="ellipse;whiteSpace=wrap;html=1;aspect=fixed;fillColor=#ffe6cc;strokeColor=#d79b00;" vertex="1" parent="1">
          <mxGeometry x="654" y="143.75" width="20" height="20" as="geometry" />
        </mxCell>
        <mxCell id="2_PLvZ0-YJUxEWmZZNLs-143" style="edgeStyle=orthogonalEdgeStyle;rounded=0;orthogonalLoop=1;jettySize=auto;html=1;entryX=0.5;entryY=0;entryDx=0;entryDy=0;strokeWidth=3;strokeColor=default;" edge="1" parent="1" source="2_PLvZ0-YJUxEWmZZNLs-144">
          <mxGeometry relative="1" as="geometry">
            <mxPoint x="600.7750000000001" y="198.75" as="targetPoint" />
          </mxGeometry>
        </mxCell>
        <mxCell id="2_PLvZ0-YJUxEWmZZNLs-144" value="" style="shape=image;verticalLabelPosition=bottom;labelBackgroundColor=default;verticalAlign=top;aspect=fixed;imageAspect=0;image=data:image/png,iVBORw0KGgoAAAANSUhEUgAAAQ4AAAEECAYAAADZKtrDAAAKqmlDQ1BJQ0MgUHJvZmlsZQAASImVlwdQk9kWgO//p4eElhDphN57CyAlhBZAQTqISkgChBJCIKjYUFlcwRVFRAQruiCi4KoUWVREFNuiYK8bZBFR1sWCDZX3A0Nw9817b96ZOXO+nJx7zrl37p05PwBkRY5IlA4rApAhzBGH+XvTY2Lj6LghgAc4QAKOwILDzRYxQ0ODASIz9u/y/g6AJu1Ny8lc//7/fxUlHj+bCwAUinAiL5ubgfBJRF9wReIcAFD7EL/+0hzRJHchTBUjDSJ8b5KTp3lkkhOnGA2mYiLCWAhTAcCTOBxxMgAkOuKn53KTkTwkL4RthDyBEGERwh4ZGZk8hI8hbILEID7SZH5G4nd5kv+WM1GWk8NJlvH0XqYE7yPIFqVzlv+fx/G/JSNdMlPDCFFSijggDLHKyJndS8sMkrEwcX7IDAt4U/FTnCIJiJxhbjYrboZ5HJ8g2dr0+cEznCTwY8vy5LAjZpif7Rs+w+LMMFmtJDGLOcMc8WxdSVqkzJ/CZ8vy56VERM9wriBq/gxnp4UHzcawZH6xJEzWP1/o7z1b10+294zs7/YrYMvW5qREBMj2zpntny9kzubMjpH1xuP7+M7GRMriRTneslqi9FBZPD/dX+bPzg2Xrc1BLuTs2lDZGaZyAkNnGLBAJkhHVAzoIBj55QNADn9ZzuRGWJmi5WJBckoOnYm8MD6dLeRaWdDtbOzsAZh8r9PX4S1t6h1CtCuzvvVEANyFExMT7bO+oM8AnNQFgCid9Rn3ASCP3PtLW7kSce60b+otYQARKAAqUAPaQB+YAEtgB5yAG/ACviAQhIAIEAsWAy5IARlI50vBSrAWFIJisAVsB5VgLzgADoGj4DhoAe3gHLgIroIb4DZ4CKRgELwEo+A9GIcgCAeRIQqkBulAhpA5ZAcxIA/IFwqGwqBYKAFKhoSQBFoJrYeKoVKoEtoP1UG/QKegc9BlqBe6D/VDw9Ab6DOMgkkwFdaCjWBrmAEz4SA4Al4EJ8NZcB5cAG+GK+Bq+AjcDJ+Dr8K3YSn8Eh5DAZQciobSRVmiGCgWKgQVh0pCiVGrUUWoclQ1qgHVhupG3URJUSOoT2gsmoKmoy3RbugAdCSai85Cr0ZvQleiD6Gb0V3om+h+9Cj6G4aM0cSYY1wxbEwMJhmzFFOIKcfUYJowFzC3MYOY91gsloY1xjpjA7Cx2FTsCuwm7G5sI7YD24sdwI7hcDg1nDnOHReC4+BycIW4nbgjuLO4Ptwg7iNeDq+Dt8P74ePwQvw6fDn+MP4Mvg8/hB8nKBIMCa6EEAKPsJxQQjhIaCNcJwwSxolKRGOiOzGCmEpcS6wgNhAvEB8R38rJyenJucgtkBPI5ctVyB2TuyTXL/eJpEwyI7FI8SQJaTOpltRBuk96SyaTjche5DhyDnkzuY58nvyE/FGeIm8lz5bnya+Rr5Jvlu+Tf6VAUDBUYCosVshTKFc4oXBdYUSRoGikyFLkKK5WrFI8pXhXcUyJomSrFKKUobRJ6bDSZaXnyjhlI2VfZZ5ygfIB5fPKAxQURZ/ConAp6ykHKRcog1Qs1ZjKpqZSi6lHqT3UURVlFQeVKJVlKlUqp1WkNBTNiMampdNKaMdpd2if52jNYc7hz9k4p2FO35wPqhqqXqp81SLVRtXbqp/V6Gq+amlqW9Va1B6ro9XN1BeoL1Xfo35BfUSDquGmwdUo0jiu8UAT1jTTDNNcoXlA85rmmJa2lr+WSGun1nmtEW2atpd2qnaZ9hntYR2KjoeOQKdM56zOC7oKnUlPp1fQu+ijupq6AboS3f26PbrjesZ6kXrr9Br1HusT9Rn6Sfpl+p36owY6BvMMVhrUGzwwJBgyDFMMdxh2G34wMjaKNtpg1GL03FjVmG2cZ1xv/MiEbOJpkmVSbXLLFGvKME0z3W16www2czRLMasyu24OmzuZC8x3m/daYCxcLIQW1RZ3LUmWTMtcy3rLfiuaVbDVOqsWq1fWBtZx1lutu62/2TjapNsctHloq2wbaLvOts32jZ2ZHdeuyu6WPdnez36Nfav9awdzB77DHod7jhTHeY4bHDsdvzo5O4mdGpyGnQ2cE5x3Od9lUBmhjE2MSy4YF2+XNS7tLp9cnVxzXI+7/uVm6Zbmdtjt+Vzjufy5B+cOuOu5c9z3u0s96B4JHvs8pJ66nhzPas+nXvpePK8aryGmKTOVeYT5ytvGW+zd5P2B5cpaxerwQfn4+xT59Pgq+0b6Vvo+8dPzS/ar9xv1d/Rf4d8RgAkICtgacJetxeay69ijgc6BqwK7gkhB4UGVQU+DzYLFwW3z4HmB87bNezTfcL5wfksICGGHbAt5HGocmhX66wLsgtAFVQuehdmGrQzrDqeELwk/HP4+wjuiJOJhpEmkJLIzSiEqPqou6kO0T3RptDTGOmZVzNVY9VhBbGscLi4qriZubKHvwu0LB+Md4wvj7ywyXrRs0eXF6ovTF59eorCEs+REAiYhOuFwwhdOCKeaM5bITtyVOMplcXdwX/K8eGW8Yb47v5Q/lOSeVJr0PNk9eVvycIpnSnnKiIAlqBS8Tg1I3Zv6IS0krTZtIj06vTEDn5GQcUqoLEwTdmVqZy7L7BWZiwpF0izXrO1Zo+IgcU02lL0ouzWHigxG1yQmkh8k/bkeuVW5H5dGLT2xTGmZcNm15WbLNy4fyvPL+3kFegV3RedK3ZVrV/avYq7avxpanbi6c43+moI1g/n++YfWEtemrf1tnc260nXv1kevbyvQKsgvGPjB/4f6QvlCceHdDW4b9v6I/lHwY89G+407N34r4hVdKbYpLi/+som76cpPtj9V/DSxOWlzT4lTyZ4t2C3CLXe2em49VKpUmlc6sG3etuYyellR2bvtS7ZfLnco37uDuEOyQ1oRXNG602Dnlp1fKlMqb1d5VzXu0ty1cdeH3bzdfXu89jTs1dpbvPfzPsG+e/v99zdXG1WXH8AeyD3w7GDUwe6fGT/X1ajXFNd8rRXWSg+FHeqqc66rO6x5uKQerpfUDx+JP3LjqM/R1gbLhv2NtMbiY+CY5NiLXxJ+uXM86HjnCcaJhpOGJ3c1UZqKmqHm5c2jLSkt0tbY1t5Tgac629zamn61+rW2Xbe96rTK6ZIzxDMFZybO5p0d6xB1jJxLPjfQuaTz4fmY87e6FnT1XAi6cOmi38Xz3czus5fcL7Vfdr186grjSstVp6vN1xyvNf3m+FtTj1NP83Xn6603XG609c7tPdPn2Xfups/Ni7fYt67enn+7907knXt34+9K7/HuPb+ffv/1g9wH4w/zH2EeFT1WfFz+RPNJ9e+mvzdKnaSn+336rz0Nf/pwgDvw8o/sP74MFjwjPysf0hmqe273vH3Yb/jGi4UvBl+KXo6PFP6p9OeuVyavTv7l9de10ZjRwdfi1xNvNr1Ve1v7zuFd51jo2JP3Ge/HPxR9VPt46BPjU/fn6M9D40u/4L5UfDX92vYt6NujiYyJCRFHzJkaBVCIwklJALypBYAcCwDlBjI/LJyep6cEmv4GmCLwn3h65p4SJwAaEDM5FrE6ADiGqFE+khvRyZEowgvA9vYynZl9p+b0ScEiXyz7fCbp/rZF+eAfMj3Df9f3Py2YzOoA/mn/BYLIBz4QpyMXAAAAimVYSWZNTQAqAAAACAAEARoABQAAAAEAAAA+ARsABQAAAAEAAABGASgAAwAAAAEAAgAAh2kABAAAAAEAAABOAAAAAAAAAJAAAAABAAAAkAAAAAEAA5KGAAcAAAASAAAAeKACAAQAAAABAAABDqADAAQAAAABAAABBAAAAABBU0NJSQAAAFNjcmVlbnNob3TP9RPlAAAACXBIWXMAABYlAAAWJQFJUiTwAAAB1mlUWHRYTUw6Y29tLmFkb2JlLnhtcAAAAAAAPHg6eG1wbWV0YSB4bWxuczp4PSJhZG9iZTpuczptZXRhLyIgeDp4bXB0az0iWE1QIENvcmUgNi4wLjAiPgogICA8cmRmOlJERiB4bWxuczpyZGY9Imh0dHA6Ly93d3cudzMub3JnLzE5OTkvMDIvMjItcmRmLXN5bnRheC1ucyMiPgogICAgICA8cmRmOkRlc2NyaXB0aW9uIHJkZjphYm91dD0iIgogICAgICAgICAgICB4bWxuczpleGlmPSJodHRwOi8vbnMuYWRvYmUuY29tL2V4aWYvMS4wLyI+CiAgICAgICAgIDxleGlmOlBpeGVsWURpbWVuc2lvbj4yNjA8L2V4aWY6UGl4ZWxZRGltZW5zaW9uPgogICAgICAgICA8ZXhpZjpQaXhlbFhEaW1lbnNpb24+MjcwPC9leGlmOlBpeGVsWERpbWVuc2lvbj4KICAgICAgICAgPGV4aWY6VXNlckNvbW1lbnQ+U2NyZWVuc2hvdDwvZXhpZjpVc2VyQ29tbWVudD4KICAgICAgPC9yZGY6RGVzY3JpcHRpb24+CiAgIDwvcmRmOlJERj4KPC94OnhtcG1ldGE+CjGIaF4AAAAcaURPVAAAAAIAAAAAAAAAggAAACgAAACCAAAAggAAEoREGRDrAAASUElEQVR4AexdW3MURRRORCUJqHjjopaKIXgPiqEULNDyQSxL3+TRP+CjVeo/8c0XH32hyirLGyDlXQQ1CIUQQkAERCDEKyJizNnOnv76q91kJ7uZzGa+qUrmnL7NzNc9306fPt3d2dHRMT7xp0MICAEh0DACnRMpRRwNw6WEQkAIGAIiDrUDISAEMiMg4sgMmTIIASEg4lAbEAJCIDMCIo7MkCmDEBACFeJYtGhRgsSff/6Z6FKEgBAoFwLICf/++2/HxYsXEwA6Fy5cON7d3Z0Ejo2NJboUISAEyoXAkiVL/IEvXbrUwR8TIg6HR4IQEAJVBEQcVSR0FgJCoGEEpiWO7q7u8e6etKsyOjra8AWUUAgIgfmHwA033OAPZV2V33//3XUTOkUcCR5ShIAQmEBAxKFmIASEQGYERByZIVMGISAEpieO7gkbBw3HysahhiMEyo2AiKPc9a+nFwIzQkDEMSPYlEkIlBuBhoijp6cnQencuXOJLkUICIFyIXDjjTf6A//zzz81hmMnbBwiDsdIghAQAhMIiDjUDISAEMiMgIgjM2TKIASEgIhDbUAICIHMCIg4MkOmDEJACIg41AaEgBDIjICIIzNkyiAEhICIQ21ACAiBzAiIODJDpgxCQAiIONQGhIAQyIyAiCMzZMogBISAiENtQAgIgcwIiDgyQ6YMQkAIiDjUBoSAEMiMgIgjM2TKkBWBK664wrNcddVVLpvQ1dWV6BiPsiViHTNevnwZ1Q7bXQwPm/pdPVC2MNYx7/j4eDWbzoCAiAPAkDg7CIg4ZgfXuSxVxDGX6Jfk2iKO+VfRIo75V6eFeyIRR+GqpOkbEnE0DaEKYASQKCwOV5DDXc4t7vrrr7eTH9ggb7rpJg83gfUFCxZ4PO8kxstbnjlzxtPyKv2cFzdQZvuHbB4BRqwnw4gx7JzYGkFLB3qTk9AIAiKORlBq7zQijvauv0LevYijkNXS0psScbQUznIWxkSxePHiBIhrr73W9ZtvvtllE+66665EX7Vqlet9fX0um7B69epEv/LKK10/ffq0yyYMDQ0l+qFDh1wfHh522YQTJ04kOnZlfvvttySOuy5JZIkUEUeJKnu2HlXEMVvIFrdcEUdx66Zt7kzE0TZV1bIbFXG0DMryFiTiKF/dizjKV+ctf+LrrrsuKRO3B7SI22+/3ePZpsF2i7vvvtvTomyBvb29HmcC2jhwuNXiDh8+bCc/Dhw44DLaOyyQ9ZGREU97/Phxl01gm8d///2XxJdFEXGUpaZn8TlFHLMIbkGLFnEUtGLa6bZEHO1UW625VxFHa3AsdSkijvJVv4ijfHXe9BPz9PYVK1YkZd5///2J/vjjj7vOcUuXLvU4E9CtnG0lrKNR9q+//krKGRsbS3S0gbA7Ots4vvzyS8+7fft2l03gvBcuXEjiy6KIOMpS0y18ThFHBFPEEdYz0VyV2CYk1UFAxBGBEXGIOGJrkJQMdRocOMOVXcp5iBW7Jpb36aeftlPlYDdyLgtJCWXLjMOvpnd2dtqpcuCqXRbAw6ToKo6ypcXhV9Oxe/Lmm29akB/sns7Ds55wngvqqszzCp7p4/FLKuIISIo4Ag4ijpm+WfM8n4gjVLC+OGo3dBFHbVxKHyriEHFM9RKIOKZCp0RxaC+wx8ap8KbjSl0rV660ID/6+/tdNmHDhg2Jvn79eteXL1/usglsx8AVtlC2tJcuXbJTzYPvn4kP41G2wtit/KOPPvJrvP766y6bwEO358+fT+LLoog4ylLT0zwnv0wijgCYiKN2wxFx1MaldKEijljl+uKIWNSTRBz1kClZuIgjVriII2JRTxJx1EOmZOELFy5MnpiX+MMl/Z566qkk7cDAQKLzdHh0K8dhXcuEbuOmo/8F+2awjmm5HFwB3cq9+uqr7VQ5mCRPnjxZjaqcP/30U9ffeOMNl03Yu3dvop89e9Z1vj+PmIeCiGMeVupMHknEEVETcUQs6kkijnrIlCxcxBErXMQRsagniTjqITMPw/kTHUdOeOYprtplUKxZs8YRQRdyC+QZr8uWLfO0JmA3gbsUScIJBT/3efiVZ8DiPBHcRMnKxHJMR2Lk2bzsgr5v3z7LUjm2bt1aFSvnwcHBRMduDrufT3W/fM2k0DZQRBxtUEmtukURR0BSxNF8ixJxNI9h25Qg4hBxtKqxijhahWQblCPiEHG0qpmKOFqFZAHLYbdrHgrF1bZ4CBVtGvZoqD/88MPJ0956662JzhtLJ5HTKGjXQBuGZfv111+T3L/88ovrP/74o8sm8Epdi3oWefzAunT4GIeLLRHaKvYOpsOv+/ZH+4elRRf0I0eOWJAfaP+wQLwnXvgGn9sLKLAg4ihw5TR7ayKOiKCII2LRCknE0QoUC1qGiCNWjIgjYtEKScTRChQLWoaII1aMiCNi0QpJxNEKFHMsgw2cPC0dfSa6urqSO7vmmmsSHZf8w6nvluixxx5L0t57772uY6OxQLadMGF5xgYE7Ouzb8boudGkhMPDcbc2dgXn5QDxHjdv3pyUg/Ybi8AlBP74448k7bFjxxId/Tq++eabJA79QSxiaGjI49HeYYHs8+EJCypgGzCfFLbZdHZ3d48j6PYc/NAFfbZ5eVsijlitIo6IRd6SiCNvxJu8nogjAijiiFjkLYk48kZ8BtdDsuDuB7qNW9G4qxp+clscu4LjECx3VdauXWtZ/GAXdI+YEPD+MHwmMnZV+POdh2NxI+kvvvgiuRx3E7AL9+yzzyZpeVX2O++8M4lH5e+//0a1A+8B57hYItzYyfTdu3fbqXKcPn26KlbOOAScRBRUEXEUtGLwtvDFFHFEZPClFXFEXPKQRBx5oNzkNUQcAUB9cTTZkFqYXcTRQjBnqygRR0BWxDFbLSx7uSKO7JjlngOHXNGGYTeCdgrTV69ebafKgcOtFsB9d7Rb3HbbbSHT5H90R7cgHsrFxEhsGD4TGVf14qnxGGdlo7v3Z599llxu165diY5lsU3jkUceSdL29va6znYitnGgm/nXX3/t+UxgG8cnn3zi8byxE5OiJyyoIOIoaMXgbYk4AhoiDmwVcyuLOOYW/4auLuIIMIk4GmouuSQSceQCc3MXEXEE/EQczbWjVuYWcbQSzVkqC6ep8xTwjRs3Jld99NFHXecl/djGgXYLHuZFsrICccm/y5cv+zVMYB19MTie7SFTXRevmVxwUjl69KgHf/zxxy6bwD4V6CfBuLB+zz33eFlsJ+JnRVvFd9995/lM4CHiHTt2eDzvHjc2NuZx7SCIONqglkQctStJxFEblzxCRRx5oNzkNUQctQEUcdTGJY9QEUceKDd5DRwS5O7G888/n5S+adMm1/kTnDd89oQ1BLYn4Cc6u4LzzEgeWsRuAneBePUwXG0dVyavcYsdSBw7d+5Mkmzfvj3RcbUwHnru6+tL0uJs2XXr1iVx3LU6deqUx0/XVdm2bZun5RXLGDNPWFBBxFHQisHbEnEgGlEWcUQs8pZEHHkjPoPriThqgybiqI1LHqEijjxQbvIaIo7aAIo4auOSR6iIIw+UM16D7QC4ATTbLbZs2ZKUjsOzK1euTOJwankSUUNhGwfuPIb2AsuKQ5KmHx05aic/Tpw84fLixYtdNgGHj03Hza05rcXjcfDgQVc/+OADl01g/aeffvL4JUuWuGwCD7miXeO5555L0rIr/qmT0caxe0+cNm+ZPv/88yQv2l3wfiyRbBwJVFJmgoCII6Am4phJ68knj7448sE501VEHAEuEUemZpNrYhFHrnA3djERR8BJxNFYe5mLVCKOuUCdrslT5dEYaknvuOMOz/HQQw+5bAIvg4c+CGgbsbTs7m1h1QOnnVsYrzCOS90NHYqrdVvaIyPpDmZs88DFrfnZNmzYYEX4cd9997nMyyKOjqarnO/fv9/Tsos5T2lHfwu29eDyAlYg3tOLL77o1zCB06Kr+Pfff5+k5an+7733nscPDw+7bAI/WxJZQEXEUYBKEXHEShBxRCyKLIk4ClA7Io5YCSKOiEWRJRFHTrXD3QR0XWZXcHx57PZwhSruqjzwwAPJE6xYscJ1thGMj497nAnYPeGNh3jD5B9++MHz8qxP9KewRFwWbtDEs3v5/tEFnYeEcbUtu87hw3FDJtzsyOLYpfv8+fMWXDkWLFhQFStnxh9XCHvppZeStOyejvXK1+Th2K1bt3pZ3K3BrqAl4hnGnrEggogjp4rABmaXFHEE4EUcAQcRR8BB/wkBEUcARF8cAQd9cdALIrU2AiKOgIuII+Ag4qj9npQ+lFevmtiDN8EE7Q/cb37yySeTtKiz/QNX8bJMOBUdbQsWxzYOHHLF4UpLe+jgITv5ge7U6DptCTgvPzv2h3k3uVtuucWvYQLihNPxLQ5dzE3/+eef7VQ52GWb7Sy8FEA1n53RLmQ6brj98ssvW5Af3LXCIWMcdrYM3377recz4a233nKdV0RnF3R8drRFeQFzLGCdatPpFlYGvzz4QthlRBwBbBFHwEHEEXAo/X8RR2wC+OukL46Ai744YvuQBAiIOCIYIo6Ahboq587FViGpJgI9PT1JOPaFLQKNhOgmbnHPbH7GTn5s3LTRZV72ziMmBbZjYDwu/2fhZ8+e9Wj2g+Bl8L766itPy+7dZ86c8TgT0M5iOk5Fx6UBLY5tNBZWPdhuwX4S6O6N0/6r+Rs9Y11YnrVr13rW1157zWUT2I8Gp+jzEoojIyNJ3rffftt19vHAXeksEQ7Psn2G/Vu80BwF/DGQjaOFwIs4IpgijoCFiENfHPGtqCOJOCIwIg4RRwUBHnaKTaTcEk6H51mgPOSHm0Pjp7EhuH79+gRIXPULPxGTRJMKfrJz1wTjLDl++vPQIeuDg4N+uQMHDrhsArpzJxGTCpIod2MQM87Lbtc4RGlpcQPoqbpoXC7r3FVBF/9XX301ST5VVwXvxzJhd8N0nLHLxtE9e/ZYEj9w5i92ySwB4+KZchSwHaqr0iTw+BKIOCKYIo6AhYhDXZX4VoAk4gAwQBRxBDBEHCIOeC2iKOKIWKAk4ghoiDhKShw834RXksKhOXZ06u3txXcpGdZ78MEHkzh2K8ep5khOlontCziEiS7llpaH9dBbkedOsB0Dp7DzlHu2PbCLNE5jR9nuiXULqx7T2WiasWtUr2Fnriu0cbzyyiuYNKk3i8A6ZxsS1oWlRZd5tmnwamE4XIvD5lbOxYsX7TSnh2wcGeAXcQSwRByx0Yg4OjpkHI3toaYk4hBxTDWqoi+O+Np0TkzOGsc+qkWVdThWxCHiEHGENqCuSsChof88TZ3dyHEFbNyRzArn6dj9/f1+TZ5WP9WMUbZb4Hi/FYjL+LErOE81x3hemZy7I9jP5hW5+Z7YxuEPWlCBbRwDAwN+p2zj4OkB2FVh/wrGBTFmP5mdO3f6NU348MMPXcd6ssALFy543FwJIo4MyIs4AlgijthoRByyccTWUEcScYg49MUR2oC+OOqQRK1gXowH52BYetxAGTcutjjsmpjet6rPTpVj2fJlVbFyZrdsHEY9fvx4kvb9999PdHQNx+FWS8TDpvjJy5/ZrKM79VTl2HVaNUxqZeVxtKqrwsPH3FVBF3SsJ3vGHTt2JI/67rvvuo75LBDrzRPlLIg4MgAu4ghgiThio8Guiogj4qJRlYhFsh6mBeuLI4DDv4D64gi46IuDFqUp63CsvjjCC6EvjoCD/dcXh4yjsTXUkXirRl6NCzeAfuKJJ5JSeDgWdw9jN3J+MY8dO+Zl8cpc27Zt8zgTcHiW+8b8C4if1nwPvPQhrjrF5bA9RF8coUoYJ/zBZRsHrxz/zjvveL3iau4WyF94njBHQTaODGCLOAJY/EKIOAIuSMQWwjiJOEo6yU3EIeKYajhWxBHah/2XcTRi0SHiCGDwL6m+OAIuIo74spSOOHg+Cvb9eVUvXP7PIHvhhRccOdx9zQLZrRx9NXh1bLRTWN5du3bZqXKwjWPfvn3VqMoZ3Zp5Wjf6YiSZJhR2bmMd0/O0brR/YLp2kWfLjwP9bwwLdNuXjaNdWkeD9yniCECJOAIOWeaq8BeHiKNEw7EiDhHHTCe5iTjir3PpuirYNTEYcAbssqWpa3j/mjjD1dJu2bLFTpUDNy62AJ7xio0MVxu3tDgz0nR0R+auCc+cxG5PM8N2TKB2H9Wj3YZbq/dd76yuSj1k6odrOJawEXEEQEQcAQd1VegFmVRFHISLiCMAIuIIOIg46AWZVKcjjv8BAAD//wf15HYAABK2SURBVO1daXNVxRYNqEgYFWVSJmUIQgjiPCWWgEPpZ/0XfnP4Q8+y6lHOYmEpFCCKCkLAPAwYBKJMIpMgjsjLvpfsu/Yi915O7njuWedD7t6np3NW91np3r27e0x7e/uVCRMmtOF1+vRpVFtKvummm8L7TJkyxfWZM2a6bELXyq6gv/jii64/8sgjLptwxx13BP3y5cuuDw4OumzCJ598EvRNmza53tfX57IJp06dCvqFCxdc//33311OKowZM6ZokitXrhQNS2PAzJmxXh944AF/jVdffdVlE1auXBn0W265xXWsU7t56dIlDzPhl19+cX3Pnj0um7Bx48agr1+/3vUTJ064bEIl9RoyqkC57bbbPPVff/3Vhu3OAsZkjTgmTpzogJgwa9Ys1zs6Olw24cEHHwz6c8895/rSpUtdNmHq1KlBN7CHr927dw+Lud933nkn6J9++qnrAwMDLpvAFdZqH3V42RopTBxYr6+88kootVrEsXfv3pAvE8eHH37o4SIOh6J5BRFH89ZNrZ5MxJEcWfU4CDMRBwGSAVXEkbySRRyEmYiDAMmAKuJIXskiDsIMAbGg5cuXe4yenh6XTXj00UeD3tnZ6fqMGTNcNoGNjWfOnPHw7du3u2zCu+++G/Rt27a5fvjwYZdNkE0jwDEqpV7EgXVezjj6wQcf+LvIxuFQNK8g4mjeuqnVk4k4kiOL34lmVYbwQ0AMTvU4kjeqtKUQcSSvMfxORBxD+CEgBqeII3mjSlsKEUfyGsPvRMQxhN+8efMCio8//rjrzz//vMsmPPbYY0GfPn266+xIxv4W6PT1+eefezoTNmzYEPRdu3a5fvLkSZclVAcBJo7777/fM37ttddcNiGJHwc7ap08Uai73j29IV908rOAjz76yMO5zjlfj1hHQcRBYIs4CJAMqCKO5JUs4iDMRBwESAZUEUfySs4EcfBUKA4jhlzqA2qLFi0K+po1a1x/4YUXXDYB1zSYfvPNN9tP7vrzzz+Hxdzv8WPHg973v8Kaky+//DKEbd26Nej9/f2u45Se35RQEQI4xLSMcKjy+uuvh7x5qHLrrbd6+N9//+2yCTykwOEpDj8t7pYtW+zHL1xmwEMVblueqI6CiEPEUcfm1pxFiTiS14uIQ8SRvNW0WAoRR/IKFXGIOJK3mhZLIeJIXqGZII4bb7wxIDN58mTXcT8Fu4l+G6avXr3afnLXM888MyzmfjkuBp47dw7VtoMHDwYd7Rpff/11CONl9j/++KOHc74eIGHUCPDygPvuu8/zSmLjwK0SLINff/3V8zFh3759rn/zzTcum8BT8rgMAffxsLhcjt2r9yXigI1YDHwmAxFHvZtk/csTcSTHXMQh4kjealoshYgjeYWKOEQcyVtNi6UQcSSv0EwQx7hx4wIyuI3f7NmzQ9iKFSuCvnbtWteffPJJl0246667go4KL4XmreJwnp7n9NkegvuK/vbbb1iM5FEgwH49pZz+Xn755VDCPffcE3RsSxcvXgxhaJuyALRrcZ339kYXdPTdOX/+fMiX/UVCYJ0UEYeIo05NrXmKEXFUXhciDhFH5a0oZTmIOCqvsEwQB7qCG2TYveShyr333htQRZdz3gFs/vz5IS4qhw4dQvWa6bb33nvPw8sdeYDTes3QTfUHb2KByQGXFrBNY8mSJeFNcEX0Sy+9FMJ4WIPlJBme8tDkyJEjoRw8goRd15th1zcRB/U4RByh/aZWwQ/aXkLEUd2qFHGIOKrbopokNxFHbStCxCHiqG0La1DuIo7aAp954uCjGZMMVebOnVu0dvbv3x/C+FjHdevWefiBAwdcNoHdytHFuBnGt+Fhm0QZO3ZseBI+thSXv/OJfKtWrQpp8SS37u7uEDZp0qSgo/2J65GXEmAb4PaBNg0rAO0azVjnIg4601XEEb6L1CgijvpWlYhDxFHfFlej0kQcNQK2SLYiDhFHkaaRrtsijvrWl4iDiIPHu2vXFFzOu3vieHfOnDmhtnAsikuoLdL69etD3DfffNN1djFn12WPKCEggAZQ3CrBIqGvjunoc/Pwww/bLb/QpmE3cYX03Xff7fFM4G37sO7Yjfyrr74Kab/44gvXjx+PW0myW7lHbFJBxCHiaNKmWf6xRBzlMapVDBGHiKNWbavm+Yo4ag5x0QJEHHUijvfffz9Uwhv/ecP1I4PR3VgrYB2akgJ6g/L2f4sXLw5pcXfyJ554IoR1regK+py5hSEo7ohvkX766acQF4cjn332WQjjndx++OEHDz979qzLJuD0awhoUkXEIeJo0qZZ/rFEHOUxqlUMEYeIo1Ztq+b5ijhqDnHRAkQcIo6ijaPZA0QcjashEUcViQPdj/fs2RNqFQ8RtoC33nrLw48ePeqyCWkb74aHr1BBfwzeDoF1dCPnaVO0adgjoUdwV1e0afCyAzS6/vzzz+GNvvvuu6Dv3LnTdZ6Oxalai4Sn8PEh5P/884/nkwZBxCHiaKp2KuJoquoo+jAiDhFH0cbRiAARRyNQT16miEPEkbzV1DCFiKOG4FYxaxFHGeJ4+umnHW5eYs1b0B0+fNjj7txRGPvazY2bNnqYCbjEmsfR7NYcEraYwqfsTZw40d+Q3cixsVqkBQsWeNzOzk6XTUCbhukLFy60n9zFp/fhtgUWAXcnZ7sF2zjQjsFu5OyrgUsJuExcrpB/yub+i3Vh78I2mzFDlusrvLcB7x3Q3K/Y1sZGNVzHwIYxXqsi4qht7Yo48viKOGrbzkaVu4hjVLDVJZGIIw+ziKMuzS1ZIZUQx7PPPuuF8VAFpwMtEnZr8fAdC+NDhTGce3DcjbX0ab7QbsEu3NybxWHEnXfeGV6bdyPHw5H4IC2Oizt38SHOvBvXjh07vNzNmze7bAIOY0zH4QfvQM9DTpxyTRtR2LvipaFKGRuHiAOby+hkEUceNxHH6dOja0ENSqUeR4OAv1qsiCMPhIhDxJFrCRqqXB8hiThEHDkEeEx+fc2ncbGaocexbdu2AMD27dtd52m7tNs4kCjsJXFaFadbLYyXw+Ouarw0HnfmsrQYziesoa3E4uJ0IS93R5uGxcWl8uhSbmFo0zAdexGmZ+WSjaNONg4RR/6TEnG0BrWIOEQcVW/J6nFUHdKmy1DEIeKoeqMUcVQd0qbLUMRRhjhKeY7ySfe4rRyPjT/++ONQ+bjrOfsVpN3GwUbj2bNm+7vPXzDfZROWLVsWdPS/QDdxi8R+HegDwn4RbDfCU9a2bt0aymSbBy4d4OUAWbVpBMCGFBGHiIPbRMW6iKNiCJs+AxGHiKPqjVTEUXVImy7DTBIHTtXxIjdeVZnkQCbcuWvv3r2hsjds2BD0df8tHDp99FjcAQynDi0RdsNRDhmOoLCt4YYbbgixcJ0Iu4JzXNwVK2QypIwbNy7c4lXDOG3KU6q8UxcOVWbNmhXy5RkZ3A2ed1FjN3JcDsBDFdx93ArEYU7ah40BwCoqIg7qcYg48q1LxJHHQcQxMtuIOEQcuZahHkfhA1GPo4BFMUnEIeIQccBBSQaGiKMYXRTuZ5I4Sm3kw0OVNWvWOFo9PT0um8Buzhh4cOAgqm2bt2wO+ttvv+067yqFu6VbJFyejbKFXb582X78wiEG2x7Y9X78+PGeju0HONVpkTAtlmFhaDMyfe7cufbjV0dHh8tLFi9x2YSFiwo7c5mOdg1+Bn5XtGvs799vyf3atXuXyyagjYOnX0+ePBniMsYhUEoOARFHmR6HiCP/pYg4xBiIgIhDxJFrD+pxFD4L9TgKWBSTRBwiDhGHhirF+KHofRFHjYiDx819fX2hEvBk82+//TaEHTkST69Ht2e2f/B2deibgUckWgFo2zEd/S1wObuFsY5xp0yZYlH8wkZkNzGu6TNnzrSf3MXPwPYS9FP5448/hpPlfvnd0f+C8eWT9L7//nvPC20jdvPcuXMeZoKmYAMcIypY54YX+x5lbpfzahlHRRyF9ibiKGDRKpKIQz2OXFvmHgbr2ItQj6NVPv/Rv4eIo0bEwd1qXDlr1dXf3++1xu7RAwMDHmYCpsWDiy2Mu9XoZo47b1lc/PhNR3d7PNzIwubPj6tYcZp02rRpFsUvLocNrehchkMRy4C7uLhS+MSJE16GCbzD+KFDhzwchyJ2E8NMx7y4bvgZ/v33X0uiqwQCIg4RR655iDgKX4mIo4BFMUnEIeIQcVy4EL4PEUeAY0RFxCHiEHGIOEYkh1I3M0kc6CLNu0pdM6uyuuBy3t3THbBk12oMLDeViGP5Y8eOYdJg07AAPMyYpw65HJyOZdsDzm5YvmjzQNnCePdx3GOD80WvUkvLruH4jGxf4NknnIpmW8++ffsse78GBwdd5nzOnz/vYSbgEnzc/sDC2E7EdhiLoysiIOKgYwZFHPkGIuKIH4q0iICIQ8SRaxHqcRQ+DPU4ClgUk0QcIg4Rx5DnI14iDkRjZDkTxMHLy9HGwTuVr1q1KiC1evVq13lZPfs6eMQhgcf57BqO4+pLly5h0jYen6NdAMfqlojH62jjYH8KrGxLi+G4xN7C2G6BGGIZFpffje0w6DKPsqVF+43puMM4bzfA2zGinYhx4IVqWB8oW5kiCkMh2YVtqWVdzrHRGzwijnwjEXHkcRBx5HFI8lfEMbtw5ocBpx5Hvvmox5HkM8pe3EwQB7o8WxXjWguePejs7AytYO3ata4/9dRTLpuAu3eHgCGl1K7gFrfUfzl2QMJhDcqWD3fJ0eWchx+TJk2yJNd18fPhM3GZPPzAVatW2MGDhd3QeOqZDzDHcJyatXzYrRyHcPy8Fl9X7RAQcUyfHtAVceTh4A9RxBGaSeYVEYeIY8SPQMQxIiy6eRUBEYeIY8SPQcQxIiy6mSXiYHsD7p7N7tN4kphhhNOxeAC1hXV1ddmPX7jjFu9s5ZGuCvxhYjgOC+w+Th9yGB+CjOXytCnberBMltmWcvHiRY+Cy/ztJm8LwLuI425cvPsWT+WiezpPPfOWApzWH1BCzRHIRI9DxJFvRyKOmn9PmSlAxDF5cqhs9TjycKjHEZqFFEJAxCHioCaRV0UcI8Kim1cRyARxcG3j2B/tHRaPl8o/9NBDnry7Oy6r55PWb7/9do+LviJ2k30q2MHKE44goD0EZYvKNg/04+AwtgmgPwa7bKOPhJWDvhq8LR8vd+/t7bUkfqHrOOfrka4KaM8p9bycTnp9ERBxTJgQEBdx5OHgD1zEEZpJ5hURh4gj9xGox5F5LkgEQCaJAxHCrr3dx928TV+4sHAo8vLly+2WX0uXLnXZBFwtyz0XXoWLu3HxrA8/UyikjIJDGZ7OPHXqVEiNu2Zhj8IiYZjpOI3K07G4otXi8lAG47PtxOLrSh8CIo6xY0OtiTjycIg4QrOQQgiIOEQcuSahHgd9GVJLIiDiEHGIOEp+IgocCYHMEweDgpvbWBhOqyJYFoYnoZne0dFhP7lr2bJlw2Lul93Tcd8PdBO3yDhdbDraLUzHi+0j6IKOO2RZGj7cGqdReck62y3wJDTeoYxtKeiebuVyuN3TlW4E8FswuxWfhtcSh04nqSIRRx4tEUeSVpO9uCIOqnMRh4iDmoTUERAQcRAoIo48IOpxUMOQGhAQcQQ42trYhwLtDeyejpseWzbz5s3z3BYtWuSyCWzzQHd1dFW3uPwMpWwcbB/BsSb6T1i+aNMwHZfDs+8F7z6Odg32xWDXcHQbt3LY9d3u6Uo3AiIOqj/+aEUceYBEHNRQMq6KOKgBiDjygKjHQQ1DakBAxBHgKK0wqfDuYVOnTvUMpk2b5rIJfMQiuqDz7uNcTqmhCsfFHbTOnj0bnoGdvHCHcY7LU6q46K3U84QCpbQsAiKOBFXLH6mIIwF4itpSCIg4ElSniCMPlnocCRpNi0YVcSSoWBGHiCNBc2npqCKOCqoXZ1wsG9zVi8+rLaXzlGoFjxSmPtH93PLkaVPUeYoVbSWWVlOqhoKuYQREHMNIjOJXxDEK0JSkJRAQcVRQjSKOCsBT0lQjIOKooPpEHBWAp6SpRkDEkerq08MLgcYgIOJoDO4qVQikGgERR6qrTw8vBBqDgIijMbirVCGQagREHKmuPj28EGgMAiKOxuCuUoVAqhEQcaS6+vTwQqAxCIg4GoO7ShUCqUZAxJHq6tPDC4HGICDiaAzuKlUIpBoBEUeqq08PLwQag4CIozG4q1QhkGoERByprj49vBBoDAIijsbgrlKFQKoRuC7iaG9vDy955syZoEsRAkIgWwjgLv62kxweBGZI5A6dFnFkq1HobYVAOQREHOUQUrgQEALXICDiuAYS3RACQqAcAuWJY3z7lfYJsnGUA1LhQiBLCIg4slTbelchUCUERBxVAlLZCIEsISDiyFJt612FQJUQKEcc/wf+GgmzZvrKuwAAAABJRU5ErkJggg==;" vertex="1" parent="1">
          <mxGeometry x="580" y="128.75" width="41.54" height="40" as="geometry" />
        </mxCell>
        <mxCell id="2_PLvZ0-YJUxEWmZZNLs-146" value="" style="ellipse;whiteSpace=wrap;html=1;aspect=fixed;fillColor=#dae8fc;strokeColor=#6c8ebf;" vertex="1" parent="1">
          <mxGeometry x="654" y="173.75" width="20" height="20" as="geometry" />
        </mxCell>
        <mxCell id="2_PLvZ0-YJUxEWmZZNLs-147" style="rounded=0;orthogonalLoop=1;jettySize=auto;html=1;entryX=0;entryY=0.5;entryDx=0;entryDy=0;strokeColor=#B3B3B3;" edge="1" parent="1" source="2_PLvZ0-YJUxEWmZZNLs-149" target="2_PLvZ0-YJUxEWmZZNLs-158">
          <mxGeometry relative="1" as="geometry" />
        </mxCell>
        <mxCell id="2_PLvZ0-YJUxEWmZZNLs-148" style="rounded=0;orthogonalLoop=1;jettySize=auto;html=1;entryX=0;entryY=0;entryDx=0;entryDy=0;endArrow=classicThin;endFill=1;strokeColor=#B3B3B3;" edge="1" parent="1" source="2_PLvZ0-YJUxEWmZZNLs-149" target="2_PLvZ0-YJUxEWmZZNLs-163">
          <mxGeometry relative="1" as="geometry" />
        </mxCell>
        <mxCell id="2_PLvZ0-YJUxEWmZZNLs-149" value="" style="ellipse;whiteSpace=wrap;html=1;aspect=fixed;fillColor=#ffe6cc;strokeColor=#d79b00;" vertex="1" parent="1">
          <mxGeometry x="654" y="203.75" width="20" height="20" as="geometry" />
        </mxCell>
        <mxCell id="2_PLvZ0-YJUxEWmZZNLs-150" style="rounded=0;orthogonalLoop=1;jettySize=auto;html=1;entryX=0;entryY=0;entryDx=0;entryDy=0;strokeColor=#B3B3B3;endArrow=classicThin;endFill=1;" edge="1" parent="1" source="2_PLvZ0-YJUxEWmZZNLs-152" target="2_PLvZ0-YJUxEWmZZNLs-159">
          <mxGeometry relative="1" as="geometry" />
        </mxCell>
        <mxCell id="2_PLvZ0-YJUxEWmZZNLs-151" style="rounded=0;orthogonalLoop=1;jettySize=auto;html=1;entryX=0;entryY=0;entryDx=0;entryDy=0;strokeColor=#B3B3B3;endArrow=classicThin;endFill=1;" edge="1" parent="1" source="2_PLvZ0-YJUxEWmZZNLs-152" target="2_PLvZ0-YJUxEWmZZNLs-160">
          <mxGeometry relative="1" as="geometry" />
        </mxCell>
        <mxCell id="2_PLvZ0-YJUxEWmZZNLs-152" value="" style="ellipse;whiteSpace=wrap;html=1;aspect=fixed;fillColor=#ffe6cc;strokeColor=#d79b00;" vertex="1" parent="1">
          <mxGeometry x="691" y="128.75" width="20" height="20" as="geometry" />
        </mxCell>
        <mxCell id="2_PLvZ0-YJUxEWmZZNLs-153" style="rounded=0;orthogonalLoop=1;jettySize=auto;html=1;entryX=0;entryY=0;entryDx=0;entryDy=0;strokeColor=#B3B3B3;endArrow=classicThin;endFill=1;" edge="1" parent="1" source="2_PLvZ0-YJUxEWmZZNLs-155" target="2_PLvZ0-YJUxEWmZZNLs-159">
          <mxGeometry relative="1" as="geometry" />
        </mxCell>
        <mxCell id="2_PLvZ0-YJUxEWmZZNLs-154" style="rounded=0;orthogonalLoop=1;jettySize=auto;html=1;entryX=0;entryY=0;entryDx=0;entryDy=0;strokeColor=#B3B3B3;endArrow=classicThin;endFill=1;" edge="1" parent="1" source="2_PLvZ0-YJUxEWmZZNLs-155" target="2_PLvZ0-YJUxEWmZZNLs-160">
          <mxGeometry relative="1" as="geometry" />
        </mxCell>
        <mxCell id="2_PLvZ0-YJUxEWmZZNLs-155" value="" style="ellipse;whiteSpace=wrap;html=1;aspect=fixed;fillColor=#ffe6cc;strokeColor=#d79b00;" vertex="1" parent="1">
          <mxGeometry x="691" y="158.75" width="20" height="20" as="geometry" />
        </mxCell>
        <mxCell id="2_PLvZ0-YJUxEWmZZNLs-156" style="rounded=0;orthogonalLoop=1;jettySize=auto;html=1;strokeColor=#B3B3B3;endArrow=classicThin;endFill=1;" edge="1" parent="1" source="2_PLvZ0-YJUxEWmZZNLs-158" target="2_PLvZ0-YJUxEWmZZNLs-160">
          <mxGeometry relative="1" as="geometry" />
        </mxCell>
        <mxCell id="2_PLvZ0-YJUxEWmZZNLs-157" style="rounded=0;orthogonalLoop=1;jettySize=auto;html=1;entryX=0;entryY=0.5;entryDx=0;entryDy=0;endArrow=classicThin;endFill=1;strokeColor=#B3B3B3;" edge="1" parent="1" source="2_PLvZ0-YJUxEWmZZNLs-158" target="2_PLvZ0-YJUxEWmZZNLs-159">
          <mxGeometry relative="1" as="geometry" />
        </mxCell>
        <mxCell id="2_PLvZ0-YJUxEWmZZNLs-158" value="" style="ellipse;whiteSpace=wrap;html=1;aspect=fixed;fillColor=#ffe6cc;strokeColor=#d79b00;" vertex="1" parent="1">
          <mxGeometry x="691" y="188.75" width="20" height="20" as="geometry" />
        </mxCell>
        <mxCell id="2_PLvZ0-YJUxEWmZZNLs-159" value="" style="ellipse;whiteSpace=wrap;html=1;aspect=fixed;fillColor=#dae8fc;strokeColor=#6c8ebf;" vertex="1" parent="1">
          <mxGeometry x="728" y="158.75" width="20" height="20" as="geometry" />
        </mxCell>
        <mxCell id="2_PLvZ0-YJUxEWmZZNLs-160" value="" style="ellipse;whiteSpace=wrap;html=1;aspect=fixed;fillColor=#dae8fc;strokeColor=#6c8ebf;" vertex="1" parent="1">
          <mxGeometry x="728" y="188.75" width="20" height="20" as="geometry" />
        </mxCell>
        <mxCell id="2_PLvZ0-YJUxEWmZZNLs-161" style="rounded=0;orthogonalLoop=1;jettySize=auto;html=1;entryX=0;entryY=1;entryDx=0;entryDy=0;endArrow=classicThin;endFill=1;strokeColor=#B3B3B3;" edge="1" parent="1" source="2_PLvZ0-YJUxEWmZZNLs-163" target="2_PLvZ0-YJUxEWmZZNLs-160">
          <mxGeometry relative="1" as="geometry" />
        </mxCell>
        <mxCell id="2_PLvZ0-YJUxEWmZZNLs-162" style="rounded=0;orthogonalLoop=1;jettySize=auto;html=1;entryX=0;entryY=0.5;entryDx=0;entryDy=0;strokeColor=#B3B3B3;endArrow=classicThin;endFill=1;" edge="1" parent="1" source="2_PLvZ0-YJUxEWmZZNLs-163" target="2_PLvZ0-YJUxEWmZZNLs-159">
          <mxGeometry relative="1" as="geometry" />
        </mxCell>
        <mxCell id="2_PLvZ0-YJUxEWmZZNLs-163" value="" style="ellipse;whiteSpace=wrap;html=1;aspect=fixed;fillColor=#ffe6cc;strokeColor=#d79b00;" vertex="1" parent="1">
          <mxGeometry x="691" y="218.75" width="20" height="20" as="geometry" />
        </mxCell>
        <mxCell id="2_PLvZ0-YJUxEWmZZNLs-164" value="" style="shape=flexArrow;endArrow=classic;html=1;rounded=0;endWidth=22;endSize=4.33;width=10;fillColor=default;strokeWidth=1;" edge="1" parent="1">
          <mxGeometry width="50" height="50" relative="1" as="geometry">
            <mxPoint x="617" y="183.75" as="sourcePoint" />
            <mxPoint x="647" y="183.75" as="targetPoint" />
          </mxGeometry>
        </mxCell>
        <mxCell id="2_PLvZ0-YJUxEWmZZNLs-165" value="&lt;font size=&quot;1&quot; style=&quot;&quot; face=&quot;Times New Roman&quot;&gt;&lt;span style=&quot;font-weight: normal; font-size: 18px;&quot;&gt;High-level shift&lt;/span&gt;&lt;/font&gt;" style="text;html=1;strokeColor=none;fillColor=none;align=center;verticalAlign=middle;whiteSpace=wrap;rounded=0;fontStyle=1" vertex="1" parent="1">
          <mxGeometry x="595.54" y="106.25" width="136" height="15" as="geometry" />
        </mxCell>
        <mxCell id="2_PLvZ0-YJUxEWmZZNLs-166" style="rounded=0;orthogonalLoop=1;jettySize=auto;html=1;entryX=0;entryY=0.5;entryDx=0;entryDy=0;strokeColor=#B3B3B3;endArrow=classicThin;endFill=1;" edge="1" parent="1" source="2_PLvZ0-YJUxEWmZZNLs-170" target="2_PLvZ0-YJUxEWmZZNLs-152">
          <mxGeometry relative="1" as="geometry" />
        </mxCell>
        <mxCell id="2_PLvZ0-YJUxEWmZZNLs-167" style="rounded=0;orthogonalLoop=1;jettySize=auto;html=1;entryX=0;entryY=0.5;entryDx=0;entryDy=0;strokeColor=#B3B3B3;endArrow=classicThin;endFill=1;" edge="1" parent="1" source="2_PLvZ0-YJUxEWmZZNLs-170" target="2_PLvZ0-YJUxEWmZZNLs-155">
          <mxGeometry relative="1" as="geometry" />
        </mxCell>
        <mxCell id="2_PLvZ0-YJUxEWmZZNLs-168" style="rounded=0;orthogonalLoop=1;jettySize=auto;html=1;entryX=0;entryY=0.5;entryDx=0;entryDy=0;strokeColor=#B3B3B3;endArrow=classicThin;endFill=1;" edge="1" parent="1" source="2_PLvZ0-YJUxEWmZZNLs-170" target="2_PLvZ0-YJUxEWmZZNLs-158">
          <mxGeometry relative="1" as="geometry" />
        </mxCell>
        <mxCell id="2_PLvZ0-YJUxEWmZZNLs-169" style="rounded=0;orthogonalLoop=1;jettySize=auto;html=1;entryX=0;entryY=0;entryDx=0;entryDy=0;strokeColor=#B3B3B3;endArrow=classicThin;endFill=1;" edge="1" parent="1" source="2_PLvZ0-YJUxEWmZZNLs-170" target="2_PLvZ0-YJUxEWmZZNLs-163">
          <mxGeometry relative="1" as="geometry" />
        </mxCell>
        <mxCell id="2_PLvZ0-YJUxEWmZZNLs-170" value="" style="ellipse;whiteSpace=wrap;html=1;aspect=fixed;fillColor=#ffe6cc;strokeColor=#d79b00;" vertex="1" parent="1">
          <mxGeometry x="654" y="173.75" width="20" height="20" as="geometry" />
        </mxCell>
        <mxCell id="2_PLvZ0-YJUxEWmZZNLs-171" value="" style="ellipse;whiteSpace=wrap;html=1;aspect=fixed;fillColor=#dae8fc;strokeColor=#6c8ebf;" vertex="1" parent="1">
          <mxGeometry x="614.77" y="243.75" width="20" height="20" as="geometry" />
        </mxCell>
        <mxCell id="2_PLvZ0-YJUxEWmZZNLs-172" value="&lt;font style=&quot;font-size: 16px;&quot; face=&quot;Times New Roman&quot;&gt;&amp;nbsp;= surprised&lt;/font&gt;" style="text;html=1;strokeColor=none;fillColor=none;align=center;verticalAlign=middle;whiteSpace=wrap;rounded=0;" vertex="1" parent="1">
          <mxGeometry x="634.77" y="246.25" width="77.54" height="15" as="geometry" />
        </mxCell>
      </root>
    </mxGraphModel>
  </diagram>
</mxfile>
